rounded-black-italic.ufo
<glyph name="exclam" format="2">
  <advance height="1920" width="740"/>
  <unicode hex="0021"/>
  <outline>
    <contour>
      <point x="256.0" y="-40.0" type="curve" smooth="yes"/>
      <point x="226.0" y="-40.0" type="line" smooth="yes"/>
      <point x="49.0" y="-40.0"/>
      <point x="-31.0" y="63.0"/>
      <point x="3.0" y="210.0" type="curve" smooth="yes"/>
      <point x="13.0" y="250.0" type="line" smooth="yes"/>
      <point x="47.0" y="397.0"/>
      <point x="173.0" y="500.0"/>
      <point x="350.0" y="500.0" type="curve" smooth="yes"/>
      <point x="380.0" y="500.0" type="line" smooth="yes"/>
      <point x="557.0" y="500.0"/>
      <point x="637.0" y="397.0"/>
      <point x="603.0" y="250.0" type="curve" smooth="yes"/>
      <point x="593.0" y="210.0" type="line" smooth="yes"/>
      <point x="559.0" y="63.0"/>
      <point x="433.0" y="-40.0"/>
    </contour>
    <contour>
      <point x="217.0" y="1180.0" type="curve" smooth="yes"/>
      <point x="224.0" y="1210.0" type="line" smooth="yes"/>
      <point x="260.0" y="1367.0"/>
      <point x="420.0" y="1480.0"/>
      <point x="577.0" y="1480.0" type="curve" smooth="yes"/>
      <point x="607.0" y="1480.0" type="line" smooth="yes"/>
      <point x="764.0" y="1480.0"/>
      <point x="870.0" y="1367.0"/>
      <point x="834.0" y="1210.0" type="curve" smooth="yes"/>
      <point x="827.0" y="1180.0" type="line" smooth="yes"/>
      <point x="802.0" y="1073.0"/>
      <point x="769.0" y="996.0"/>
      <point x="683.0" y="860.0" type="curve" smooth="yes"/>
      <point x="557.0" y="660.0" type="line" smooth="yes"/>
      <point x="499.0" y="567.0"/>
      <point x="454.0" y="530.0"/>
      <point x="377.0" y="530.0" type="curve" smooth="yes"/>
      <point x="367.0" y="530.0" type="line" smooth="yes"/>
      <point x="290.0" y="530.0"/>
      <point x="262.0" y="567.0"/>
      <point x="247.0" y="660.0" type="curve" smooth="yes"/>
      <point x="215.0" y="860.0" type="line" smooth="yes"/>
      <point x="192.0" y="996.0"/>
      <point x="192.0" y="1073.0"/>
    </contour>
  </outline>
</glyph>
<glyph name="numbersign" format="2">
  <advance height="1920" width="1610"/>
  <unicode hex="0023"/>
  <outline>
    <contour>
      <point x="199.0" y="690.0" type="curve" smooth="yes"/>
      <point x="1409.0" y="690.0" type="line" smooth="yes"/>
      <point x="1516.0" y="690.0"/>
      <point x="1590.0" y="647.0"/>
      <point x="1565.0" y="540.0" type="curve" smooth="yes"/>
      <point x="1562.0" y="530.0" type="line" smooth="yes"/>
      <point x="1537.0" y="423.0"/>
      <point x="1446.0" y="380.0"/>
      <point x="1338.0" y="380.0" type="curve" smooth="yes"/>
      <point x="128.0" y="380.0" type="line" smooth="yes"/>
      <point x="21.0" y="380.0"/>
      <point x="-53.0" y="423.0"/>
      <point x="-28.0" y="530.0" type="curve" smooth="yes"/>
      <point x="-25.0" y="540.0" type="line" smooth="yes"/>
      <point x="0.0" y="647.0"/>
      <point x="92.0" y="690.0"/>
    </contour>
    <contour>
      <point x="374.0" y="1100.0" type="curve" smooth="yes"/>
      <point x="1584.0" y="1100.0" type="line" smooth="yes"/>
      <point x="1691.0" y="1100.0"/>
      <point x="1764.0" y="1057.0"/>
      <point x="1739.0" y="950.0" type="curve" smooth="yes"/>
      <point x="1737.0" y="940.0" type="line" smooth="yes"/>
      <point x="1712.0" y="833.0"/>
      <point x="1619.0" y="790.0"/>
      <point x="1512.0" y="790.0" type="curve" smooth="yes"/>
      <point x="302.0" y="790.0" type="line" smooth="yes"/>
      <point x="195.0" y="790.0"/>
      <point x="122.0" y="833.0"/>
      <point x="147.0" y="940.0" type="curve" smooth="yes"/>
      <point x="149.0" y="950.0" type="line" smooth="yes"/>
      <point x="174.0" y="1057.0"/>
      <point x="267.0" y="1100.0"/>
    </contour>
    <contour>
      <point x="1440.0" y="1430.0" type="curve" smooth="yes"/>
      <point x="1470.0" y="1430.0" type="line" smooth="yes"/>
      <point x="1630.0" y="1430.0"/>
      <point x="1624.0" y="1292.0"/>
      <point x="1576.0" y="1190.0" type="curve" smooth="yes"/>
      <point x="1094.0" y="160.0" type="line" smooth="yes"/>
      <point x="1046.0" y="58.0"/>
      <point x="963.0" y="-30.0"/>
      <point x="803.0" y="-30.0" type="curve" smooth="yes"/>
      <point x="773.0" y="-30.0" type="line" smooth="yes"/>
      <point x="613.0" y="-30.0"/>
      <point x="596.0" y="58.0"/>
      <point x="644.0" y="160.0" type="curve" smooth="yes"/>
      <point x="1126.0" y="1190.0" type="line" smooth="yes"/>
      <point x="1174.0" y="1292.0"/>
      <point x="1280.0" y="1430.0"/>
    </contour>
    <contour>
      <point x="870.0" y="1430.0" type="curve" smooth="yes"/>
      <point x="900.0" y="1430.0" type="line" smooth="yes"/>
      <point x="1057.0" y="1430.0"/>
      <point x="1054.0" y="1292.0"/>
      <point x="1006.0" y="1190.0" type="curve" smooth="yes"/>
      <point x="524.0" y="160.0" type="line" smooth="yes"/>
      <point x="476.0" y="58.0"/>
      <point x="390.0" y="-30.0"/>
      <point x="233.0" y="-30.0" type="curve" smooth="yes"/>
      <point x="203.0" y="-30.0" type="line" smooth="yes"/>
      <point x="46.0" y="-30.0"/>
      <point x="26.0" y="58.0"/>
      <point x="74.0" y="160.0" type="curve" smooth="yes"/>
      <point x="556.0" y="1190.0" type="line" smooth="yes"/>
      <point x="604.0" y="1292.0"/>
      <point x="713.0" y="1430.0"/>
    </contour>
  </outline>
</glyph>
<glyph name="dollar" format="2">
  <advance height="1920" width="1219"/>
  <unicode hex="0024"/>
  <outline>
    <contour>
      <point x="201.0" y="528.0" type="curve" smooth="yes"/>
      <point x="231.0" y="528.0" type="line" smooth="yes"/>
      <point x="334.0" y="528.0"/>
      <point x="376.0" y="467.0"/>
      <point x="361.0" y="400.0" type="curve" smooth="yes"/>
      <point x="359.0" y="390.0" type="line" smooth="yes"/>
      <point x="340.0" y="306.0"/>
      <point x="415.0" y="285.0"/>
      <point x="555.0" y="285.0" type="curve" smooth="yes"/>
      <point x="663.0" y="285.0"/>
      <point x="702.0" y="317.0"/>
      <point x="714.0" y="368.0" type="curve" smooth="yes"/>
      <point x="724.0" y="412.0"/>
      <point x="668.0" y="435.0"/>
      <point x="574.0" y="464.0" type="curve" smooth="yes"/>
      <point x="298.0" y="549.0"/>
      <point x="91.0" y="615.0"/>
      <point x="174.0" y="973.0" type="curve" smooth="yes"/>
      <point x="236.0" y="1243.0"/>
      <point x="458.0" y="1435.0"/>
      <point x="820.0" y="1435.0" type="curve" smooth="yes"/>
      <point x="1184.0" y="1435.0"/>
      <point x="1274.0" y="1236.0"/>
      <point x="1234.0" y="1061.0" type="curve" smooth="yes"/>
      <point x="1232.0" y="1051.0" type="line" smooth="yes"/>
      <point x="1212.0" y="964.0"/>
      <point x="1147.0" y="923.0"/>
      <point x="1042.0" y="923.0" type="curve" smooth="yes"/>
      <point x="1022.0" y="923.0" type="line" smooth="yes"/>
      <point x="917.0" y="923.0"/>
      <point x="862.0" y="964.0"/>
      <point x="875.0" y="1021.0" type="curve" smooth="yes"/>
      <point x="877.0" y="1031.0" type="line" smooth="yes"/>
      <point x="887.0" y="1076.0"/>
      <point x="856.0" y="1135.0"/>
      <point x="741.0" y="1135.0" type="curve" smooth="yes"/>
      <point x="669.0" y="1135.0"/>
      <point x="629.0" y="1083.0"/>
      <point x="620.0" y="1043.0" type="curve" smooth="yes"/>
      <point x="608.0" y="992.0"/>
      <point x="648.0" y="960.0"/>
      <point x="772.0" y="932.0" type="curve" smooth="yes"/>
      <point x="1114.0" y="855.0"/>
      <point x="1244.0" y="757.0"/>
      <point x="1168.0" y="428.0" type="curve" smooth="yes"/>
      <point x="1095.0" y="111.0"/>
      <point x="890.0" y="-35.0"/>
      <point x="451.0" y="-35.0" type="curve" smooth="yes"/>
      <point x="63.0" y="-35.0"/>
      <point x="-62.0" y="123.0"/>
      <point x="-12.0" y="339.0" type="curve" smooth="yes"/>
      <point x="-9.0" y="349.0" type="line" smooth="yes"/>
      <point x="11.0" y="436.0"/>
      <point x="88.0" y="528.0"/>
    </contour>
    <contour>
      <point x="862.0" y="1590.0" type="curve" smooth="yes"/>
      <point x="872.0" y="1590.0" type="line" smooth="yes"/>
      <point x="889.0" y="1590.0"/>
      <point x="905.0" y="1577.0"/>
      <point x="896.0" y="1540.0" type="curve" smooth="yes"/>
      <point x="508.0" y="-140.0" type="line" smooth="yes"/>
      <point x="499.0" y="-177.0"/>
      <point x="478.0" y="-190.0"/>
      <point x="461.0" y="-190.0" type="curve" smooth="yes"/>
      <point x="451.0" y="-190.0" type="line" smooth="yes"/>
      <point x="434.0" y="-190.0"/>
      <point x="419.0" y="-177.0"/>
      <point x="428.0" y="-140.0" type="curve" smooth="yes"/>
      <point x="816.0" y="1540.0" type="line" smooth="yes"/>
      <point x="825.0" y="1577.0"/>
      <point x="845.0" y="1590.0"/>
    </contour>
  </outline>
</glyph>
<glyph name="ampersand" format="2">
  <advance height="1920" width="1701"/>
  <unicode hex="0026"/>
  <outline>
    <contour>
      <point x="956.0" y="210.0" type="curve" smooth="yes"/>
      <point x="576.0" y="734.0" type="line" smooth="yes"/>
      <point x="461.0" y="892.0"/>
      <point x="450.0" y="1000.0"/>
      <point x="476.0" y="1113.0" type="curve" smooth="yes"/>
      <point x="515.0" y="1283.0"/>
      <point x="678.0" y="1435.0"/>
      <point x="1085.0" y="1435.0" type="curve" smooth="yes"/>
      <point x="1422.0" y="1435.0"/>
      <point x="1592.0" y="1313.0"/>
      <point x="1548.0" y="1123.0" type="curve" smooth="yes"/>
      <point x="1491.0" y="875.0"/>
      <point x="1055.0" y="697.0"/>
      <point x="803.0" y="596.0" type="curve" smooth="yes"/>
      <point x="644.0" y="533.0"/>
      <point x="608.0" y="492.0"/>
      <point x="598.0" y="448.0" type="curve" smooth="yes"/>
      <point x="593.0" y="427.0"/>
      <point x="600.0" y="410.0"/>
      <point x="604.0" y="398.0" type="curve" smooth="yes"/>
      <point x="607.0" y="388.0" type="line" smooth="yes"/>
      <point x="614.0" y="370.0"/>
      <point x="643.0" y="355.0"/>
      <point x="678.0" y="355.0" type="curve" smooth="yes"/>
      <point x="830.0" y="355.0"/>
      <point x="1091.0" y="421.0"/>
      <point x="1195.0" y="499.0" type="curve" smooth="yes"/>
      <point x="1304.0" y="581.0"/>
      <point x="1391.0" y="648.0"/>
      <point x="1498.0" y="648.0" type="curve" smooth="yes"/>
      <point x="1503.0" y="648.0" type="line" smooth="yes"/>
      <point x="1620.0" y="648.0"/>
      <point x="1672.0" y="577.0"/>
      <point x="1592.0" y="487.0" type="curve" smooth="yes"/>
      <point x="1356.0" y="223.0"/>
      <point x="740.0" y="-35.0"/>
      <point x="432.0" y="-35.0" type="curve" smooth="yes"/>
      <point x="216.0" y="-35.0"/>
      <point x="101.0" y="25.0"/>
      <point x="55.0" y="119.0" type="curve" smooth="yes"/>
      <point x="16.0" y="199.0" type="line" smooth="yes"/>
      <point x="-23.0" y="277.0"/>
      <point x="-29.0" y="352.0"/>
      <point x="-7.0" y="448.0" type="curve" smooth="yes"/>
      <point x="37.0" y="637.0"/>
      <point x="253.0" y="747.0"/>
      <point x="755.0" y="862.0" type="curve" smooth="yes"/>
      <point x="932.0" y="903.0"/>
      <point x="1092.0" y="1032.0"/>
      <point x="1111.0" y="1113.0" type="curve" smooth="yes"/>
      <point x="1116.0" y="1133.0"/>
      <point x="1096.0" y="1150.0"/>
      <point x="1059.0" y="1150.0" type="curve" smooth="yes"/>
      <point x="1022.0" y="1150.0"/>
      <point x="1000.0" y="1132.0"/>
      <point x="993.0" y="1103.0" type="curve" smooth="yes"/>
      <point x="982.0" y="1054.0"/>
      <point x="1031.0" y="963.0"/>
      <point x="1088.0" y="876.0" type="curve" smooth="yes"/>
      <point x="1494.0" y="260.0" type="line" smooth="yes"/>
      <point x="1573.0" y="140.0"/>
      <point x="1489.0" y="-30.0"/>
      <point x="1282.0" y="-30.0" type="curve" smooth="yes"/>
      <point x="1272.0" y="-30.0" type="line" smooth="yes"/>
      <point x="1095.0" y="-30.0"/>
      <point x="1043.0" y="90.0"/>
    </contour>
  </outline>
</glyph>
<glyph name="quotesingle" format="2">
  <advance height="1920" width="610"/>
  <unicode hex="0027"/>
  <outline>
    <contour>
      <point x="375.0" y="800.0" type="curve" smooth="yes"/>
      <point x="355.0" y="800.0" type="line" smooth="yes"/>
      <point x="288.0" y="800.0"/>
      <point x="262.0" y="842.0"/>
      <point x="253.0" y="910.0" type="curve" smooth="yes"/>
      <point x="231.0" y="1080.0" type="line" smooth="yes"/>
      <point x="221.0" y="1157.0"/>
      <point x="222.0" y="1223.0"/>
      <point x="231.0" y="1260.0" type="curve" smooth="yes"/>
      <point x="233.0" y="1270.0" type="line" smooth="yes"/>
      <point x="251.0" y="1347.0"/>
      <point x="328.0" y="1450.0"/>
      <point x="515.0" y="1450.0" type="curve" smooth="yes"/>
      <point x="525.0" y="1450.0" type="line" smooth="yes"/>
      <point x="722.0" y="1450.0"/>
      <point x="751.0" y="1347.0"/>
      <point x="733.0" y="1270.0" type="curve" smooth="yes"/>
      <point x="731.0" y="1260.0" type="line" smooth="yes"/>
      <point x="722.0" y="1223.0"/>
      <point x="684.0" y="1155.0"/>
      <point x="637.0" y="1080.0" type="curve" smooth="yes"/>
      <point x="527.0" y="910.0" type="line" smooth="yes"/>
      <point x="484.0" y="844.0"/>
      <point x="442.0" y="800.0"/>
    </contour>
  </outline>
</glyph>
<glyph name="parenleft" format="2">
  <advance height="2048" width="785"/>
  <unicode hex="0028"/>
  <outline>
    <contour>
      <point x="93.0" y="838.0" type="line" smooth="yes"/>
      <point x="187.0" y="1243.0"/>
      <point x="478.0" y="1484.0"/>
      <point x="836.0" y="1588.0" type="curve" smooth="yes"/>
      <point x="946.0" y="1620.0"/>
      <point x="1022.0" y="1567.0"/>
      <point x="1004.0" y="1490.0" type="curve" smooth="yes"/>
      <point x="999.0" y="1470.0" type="line" smooth="yes"/>
      <point x="981.0" y="1393.0"/>
      <point x="925.0" y="1365.0"/>
      <point x="822.0" y="1306.0" type="curve" smooth="yes"/>
      <point x="729.0" y="1252.0"/>
      <point x="631.0" y="1109.0"/>
      <point x="562.0" y="808.0" type="curve" smooth="yes"/>
      <point x="477.0" y="442.0" type="line" smooth="yes"/>
      <point x="408.0" y="141.0"/>
      <point x="454.0" y="-22.0"/>
      <point x="523.0" y="-76.0" type="curve" smooth="yes"/>
      <point x="598.0" y="-135.0"/>
      <point x="627.0" y="-143.0"/>
      <point x="609.0" y="-220.0" type="curve" smooth="yes"/>
      <point x="605.0" y="-240.0" type="line" smooth="yes"/>
      <point x="587.0" y="-317.0"/>
      <point x="487.0" y="-370.0"/>
      <point x="391.0" y="-338.0" type="curve" smooth="yes"/>
      <point x="81.0" y="-234.0"/>
      <point x="-99.0" y="7.0"/>
      <point x="-5.0" y="412.0" type="curve" smooth="yes"/>
    </contour>
  </outline>
</glyph>
<glyph name="parenright" format="2">
  <advance height="2048" width="785"/>
  <unicode hex="0029"/>
  <outline>
    <contour>
      <point x="740.0" y="412.0" type="line" smooth="yes"/>
      <point x="646.0" y="7.0"/>
      <point x="356.0" y="-234.0"/>
      <point x="-2.0" y="-338.0" type="curve" smooth="yes"/>
      <point x="-112.0" y="-370.0"/>
      <point x="-188.0" y="-317.0"/>
      <point x="-170.0" y="-240.0" type="curve" smooth="yes"/>
      <point x="-166.0" y="-220.0" type="line" smooth="yes"/>
      <point x="-148.0" y="-143.0"/>
      <point x="-92.0" y="-115.0"/>
      <point x="11.0" y="-56.0" type="curve" smooth="yes"/>
      <point x="104.0" y="-2.0"/>
      <point x="203.0" y="141.0"/>
      <point x="272.0" y="442.0" type="curve" smooth="yes"/>
      <point x="357.0" y="808.0" type="line" smooth="yes"/>
      <point x="426.0" y="1109.0"/>
      <point x="379.0" y="1272.0"/>
      <point x="310.0" y="1326.0" type="curve" smooth="yes"/>
      <point x="235.0" y="1385.0"/>
      <point x="206.0" y="1393.0"/>
      <point x="224.0" y="1470.0" type="curve" smooth="yes"/>
      <point x="229.0" y="1490.0" type="line" smooth="yes"/>
      <point x="247.0" y="1567.0"/>
      <point x="346.0" y="1620.0"/>
      <point x="442.0" y="1588.0" type="curve" smooth="yes"/>
      <point x="752.0" y="1484.0"/>
      <point x="932.0" y="1243.0"/>
      <point x="838.0" y="838.0" type="curve" smooth="yes"/>
    </contour>
  </outline>
</glyph>
<glyph name="asterisk" format="2">
  <advance height="2048" width="1287"/>
  <unicode hex="002A"/>
  <outline>
    <contour>
      <point x="739.0" y="886.0" type="line"/>
      <point x="732.0" y="953.0" type="line"/>
      <point x="996.0" y="1164.0" type="line" smooth="yes"/>
      <point x="1096.0" y="1244.0"/>
      <point x="1121.0" y="1262.0"/>
      <point x="1190.0" y="1283.0" type="curve" smooth="yes"/>
      <point x="1195.0" y="1285.0" type="line" smooth="yes"/>
      <point x="1314.0" y="1321.0"/>
      <point x="1389.0" y="1237.0"/>
      <point x="1398.0" y="1135.0" type="curve" smooth="yes"/>
      <point x="1401.0" y="1106.0" type="line" smooth="yes"/>
      <point x="1410.0" y="1004.0"/>
      <point x="1355.0" y="881.0"/>
      <point x="1236.0" y="845.0" type="curve" smooth="yes"/>
      <point x="1231.0" y="844.0" type="line" smooth="yes"/>
      <point x="1162.0" y="823.0"/>
      <point x="1135.0" y="825.0"/>
      <point x="1026.0" y="842.0" type="curve" smooth="yes"/>
    </contour>
    <contour>
      <point x="701.0" y="901.0" type="line"/>
      <point x="767.0" y="942.0" type="line"/>
      <point x="1002.0" y="802.0" type="line" smooth="yes"/>
      <point x="1091.0" y="749.0"/>
      <point x="1112.0" y="735.0"/>
      <point x="1139.0" y="681.0" type="curve" smooth="yes"/>
      <point x="1141.0" y="677.0" type="line" smooth="yes"/>
      <point x="1188.0" y="582.0"/>
      <point x="1111.0" y="467.0"/>
      <point x="1009.0" y="404.0" type="curve" smooth="yes"/>
      <point x="981.0" y="387.0" type="line" smooth="yes"/>
      <point x="879.0" y="324.0"/>
      <point x="752.0" y="310.0"/>
      <point x="705.0" y="405.0" type="curve" smooth="yes"/>
      <point x="702.0" y="409.0" type="line" smooth="yes"/>
      <point x="675.0" y="463.0"/>
      <point x="676.0" y="491.0"/>
      <point x="683.0" y="604.0" type="curve" smooth="yes"/>
    </contour>
    <contour>
      <point x="712.0" y="941.0" type="line"/>
      <point x="760.0" y="900.0" type="line"/>
      <point x="640.0" y="603.0" type="line" smooth="yes"/>
      <point x="595.0" y="490.0"/>
      <point x="582.0" y="462.0"/>
      <point x="531.0" y="408.0" type="curve" smooth="yes"/>
      <point x="527.0" y="404.0" type="line" smooth="yes"/>
      <point x="436.0" y="309.0"/>
      <point x="314.0" y="323.0"/>
      <point x="242.0" y="386.0" type="curve" smooth="yes"/>
      <point x="222.0" y="403.0" type="line" smooth="yes"/>
      <point x="150.0" y="466.0"/>
      <point x="125.0" y="581.0"/>
      <point x="216.0" y="676.0" type="curve" smooth="yes"/>
      <point x="220.0" y="680.0" type="line" smooth="yes"/>
      <point x="271.0" y="734.0"/>
      <point x="300.0" y="748.0"/>
      <point x="413.0" y="801.0" type="curve" smooth="yes"/>
    </contour>
    <contour>
      <point x="753.0" y="953.0" type="line"/>
      <point x="716.0" y="886.0" type="line"/>
      <point x="407.0" y="842.0" type="line" smooth="yes"/>
      <point x="290.0" y="825.0"/>
      <point x="263.0" y="823.0"/>
      <point x="204.0" y="844.0" type="curve" smooth="yes"/>
      <point x="199.0" y="845.0" type="line" smooth="yes"/>
      <point x="96.0" y="881.0"/>
      <point x="97.0" y="1004.0"/>
      <point x="154.0" y="1106.0" type="curve" smooth="yes"/>
      <point x="171.0" y="1135.0" type="line" smooth="yes"/>
      <point x="228.0" y="1237.0"/>
      <point x="341.0" y="1321.0"/>
      <point x="444.0" y="1285.0" type="curve" smooth="yes"/>
      <point x="447.0" y="1283.0" type="line" smooth="yes"/>
      <point x="506.0" y="1262.0"/>
      <point x="523.0" y="1244.0"/>
      <point x="587.0" y="1164.0" type="curve" smooth="yes"/>
    </contour>
    <contour>
      <point x="770.0" y="920.0" type="line"/>
      <point x="700.0" y="920.0" type="line"/>
      <point x="629.0" y="1190.0" type="line" smooth="yes"/>
      <point x="602.0" y="1292.0"/>
      <point x="597.0" y="1318.0"/>
      <point x="612.0" y="1385.0" type="curve" smooth="yes"/>
      <point x="613.0" y="1390.0" type="line" smooth="yes"/>
      <point x="640.0" y="1507.0"/>
      <point x="763.0" y="1570.0"/>
      <point x="870.0" y="1570.0" type="curve" smooth="yes"/>
      <point x="900.0" y="1570.0" type="line" smooth="yes"/>
      <point x="1007.0" y="1570.0"/>
      <point x="1102.0" y="1507.0"/>
      <point x="1075.0" y="1390.0" type="curve" smooth="yes"/>
      <point x="1074.0" y="1385.0" type="line" smooth="yes"/>
      <point x="1059.0" y="1318.0"/>
      <point x="1042.0" y="1292.0"/>
      <point x="967.0" y="1190.0" type="curve" smooth="yes"/>
    </contour>
  </outline>
</glyph>
<glyph name="plus" format="2">
  <advance height="1920" width="1040"/>
  <unicode hex="002B"/>
  <outline>
    <contour>
      <point x="55.0" y="675.0" type="curve" smooth="yes"/>
      <point x="55.0" y="710.0" type="line" smooth="yes"/>
      <point x="55.0" y="817.0"/>
      <point x="138.0" y="870.0"/>
      <point x="245.0" y="870.0" type="curve" smooth="yes"/>
      <point x="875.0" y="870.0" type="line" smooth="yes"/>
      <point x="982.0" y="870.0"/>
      <point x="1065.0" y="817.0"/>
      <point x="1065.0" y="710.0" type="curve" smooth="yes"/>
      <point x="1065.0" y="675.0" type="line" smooth="yes"/>
      <point x="1065.0" y="568.0"/>
      <point x="982.0" y="515.0"/>
      <point x="875.0" y="515.0" type="curve" smooth="yes"/>
      <point x="245.0" y="515.0" type="line" smooth="yes"/>
      <point x="138.0" y="515.0"/>
      <point x="55.0" y="568.0"/>
    </contour>
    <contour>
      <point x="667.0" y="1220.0" type="curve" smooth="yes"/>
      <point x="697.0" y="1220.0" type="line" smooth="yes"/>
      <point x="804.0" y="1220.0"/>
      <point x="838.0" y="1137.0"/>
      <point x="813.0" y="1030.0" type="curve" smooth="yes"/>
      <point x="651.0" y="330.0" type="line" smooth="yes"/>
      <point x="626.0" y="223.0"/>
      <point x="554.0" y="140.0"/>
      <point x="447.0" y="140.0" type="curve" smooth="yes"/>
      <point x="417.0" y="140.0" type="line" smooth="yes"/>
      <point x="310.0" y="140.0"/>
      <point x="276.0" y="223.0"/>
      <point x="301.0" y="330.0" type="curve" smooth="yes"/>
      <point x="463.0" y="1030.0" type="line" smooth="yes"/>
      <point x="488.0" y="1137.0"/>
      <point x="560.0" y="1220.0"/>
    </contour>
  </outline>
</glyph>
<glyph name="comma" format="2">
  <advance height="1920" width="740"/>
  <unicode hex="002C"/>
  <outline>
    <contour>
      <point x="-9.0" y="-310.0" type="curve" smooth="yes"/>
      <point x="-17.0" y="-310.0" type="line" smooth="yes"/>
      <point x="-54.0" y="-310.0"/>
      <point x="-73.5204117572" y="-256.520411757"/>
      <point x="-17.0" y="-200.0" type="curve" smooth="yes"/>
      <point x="183.0" y="0.0" type="line"/>
      <point x="181.0" y="0.0" type="line" smooth="yes"/>
      <point x="112.479492188" y="0.0"/>
      <point x="13.0" y="81.404296875"/>
      <point x="13.0" y="190.0" type="curve" smooth="yes"/>
      <point x="13.0" y="230.0" type="line" smooth="yes"/>
      <point x="13.0" y="377.0"/>
      <point x="116.0" y="500.0"/>
      <point x="293.0" y="500.0" type="curve" smooth="yes"/>
      <point x="323.0" y="500.0" type="line" smooth="yes"/>
      <point x="500.0" y="500.0"/>
      <point x="603.0" y="397.0"/>
      <point x="603.0" y="250.0" type="curve" smooth="yes"/>
      <point x="603.0" y="220.0" type="line" smooth="yes"/>
      <point x="603.0" y="63.0"/>
      <point x="441.220870621" y="-48.4603946329"/>
      <point x="354.0" y="-100.0" type="curve" smooth="yes"/>
      <point x="134.0" y="-230.0" type="line" smooth="yes"/>
      <point x="62.1687523928" y="-272.445737222"/>
      <point x="29.0" y="-310.0"/>
    </contour>
  </outline>
</glyph>
<glyph name="hyphen" format="2">
  <advance height="1920" width="570"/>
  <unicode hex="002D"/>
  <outline>
    <contour>
      <point x="30.0" y="595.0" type="curve" smooth="yes"/>
      <point x="30.0" y="630.0" type="line" smooth="yes"/>
      <point x="30.0" y="737.0"/>
      <point x="113.0" y="790.0"/>
      <point x="220.0" y="790.0" type="curve" smooth="yes"/>
      <point x="390.0" y="790.0" type="line" smooth="yes"/>
      <point x="497.0" y="790.0"/>
      <point x="580.0" y="737.0"/>
      <point x="580.0" y="630.0" type="curve" smooth="yes"/>
      <point x="580.0" y="595.0" type="line" smooth="yes"/>
      <point x="580.0" y="488.0"/>
      <point x="497.0" y="435.0"/>
      <point x="390.0" y="435.0" type="curve" smooth="yes"/>
      <point x="220.0" y="435.0" type="line" smooth="yes"/>
      <point x="113.0" y="435.0"/>
      <point x="30.0" y="488.0"/>
    </contour>
  </outline>
</glyph>
<glyph name="period" format="2">
  <advance height="1920" width="740"/>
  <unicode hex="002E"/>
  <outline>
    <contour>
      <point x="315.0" y="-40.0" type="curve" smooth="yes"/>
      <point x="285.0" y="-40.0" type="line" smooth="yes"/>
      <point x="118.0" y="-40.0"/>
      <point x="5.0" y="63.0"/>
      <point x="5.0" y="210.0" type="curve" smooth="yes"/>
      <point x="5.0" y="250.0" type="line" smooth="yes"/>
      <point x="5.0" y="397.0"/>
      <point x="118.0" y="500.0"/>
      <point x="285.0" y="500.0" type="curve" smooth="yes"/>
      <point x="315.0" y="500.0" type="line" smooth="yes"/>
      <point x="482.0" y="500.0"/>
      <point x="595.0" y="397.0"/>
      <point x="595.0" y="250.0" type="curve" smooth="yes"/>
      <point x="595.0" y="210.0" type="line" smooth="yes"/>
      <point x="595.0" y="63.0"/>
      <point x="482.0" y="-40.0"/>
    </contour>
  </outline>
</glyph>
<glyph name="slash" format="2">
  <advance height="2048" width="1040"/>
  <unicode hex="002F"/>
  <outline>
    <contour>
      <point x="1068.0" y="1190.0" type="curve" smooth="yes"/>
      <point x="367.0" y="110.0" type="line" smooth="yes"/>
      <point x="279.0" y="-26.0"/>
      <point x="182.0" y="-130.0"/>
      <point x="75.0" y="-130.0" type="curve" smooth="yes"/>
      <point x="65.0" y="-130.0" type="line" smooth="yes"/>
      <point x="-42.0" y="-130.0"/>
      <point x="-81.0" y="-26.0"/>
      <point x="7.0" y="110.0" type="curve" smooth="yes"/>
      <point x="708.0" y="1190.0" type="line" smooth="yes"/>
      <point x="796.0" y="1326.0"/>
      <point x="894.0" y="1430.0"/>
      <point x="1000.0" y="1430.0" type="curve" smooth="yes"/>
      <point x="1010.0" y="1430.0" type="line" smooth="yes"/>
      <point x="1117.0" y="1430.0"/>
      <point x="1156.0" y="1326.0"/>
    </contour>
  </outline>
</glyph>
<glyph name="one" format="2">
  <advance height="1920" width="640"/>
  <unicode hex="0031"/>
  <outline>
    <contour>
      <point x="346.0" y="1323.0" type="curve" smooth="yes"/>
      <point x="408.0" y="1343.0"/>
      <point x="427.0" y="1353.0"/>
      <point x="474.0" y="1396.0" type="curve" smooth="yes"/>
      <point x="523.0" y="1441.0"/>
      <point x="570.0" y="1450.0"/>
      <point x="617.0" y="1450.0" type="curve" smooth="yes"/>
      <point x="621.0" y="1450.0" type="line" smooth="yes"/>
      <point x="718.0" y="1450.0"/>
      <point x="766.0" y="1387.0"/>
      <point x="734.0" y="1250.0" type="curve" smooth="yes"/>
      <point x="498.0" y="230.0" type="line" smooth="yes"/>
      <point x="457.0" y="53.0"/>
      <point x="345.0" y="-30.0"/>
      <point x="198.0" y="-30.0" type="curve" smooth="yes"/>
      <point x="188.0" y="-30.0" type="line" smooth="yes"/>
      <point x="41.0" y="-30.0"/>
      <point x="-33.0" y="53.0"/>
      <point x="8.0" y="230.0" type="curve" smooth="yes"/>
      <point x="219.0" y="1144.0" type="line" smooth="yes"/>
      <point x="244.0" y="1251.0"/>
      <point x="287.0" y="1304.0"/>
    </contour>
  </outline>
</glyph>
<glyph name="two" format="2">
  <advance height="1920" width="1280"/>
  <unicode hex="0032"/>
  <outline>
    <contour>
      <point x="-33.0" y="160.0" type="line" smooth="yes"/>
      <point x="63.0" y="574.0"/>
      <point x="780.0" y="716.0"/>
      <point x="844.0" y="993.0" type="curve" smooth="yes"/>
      <point x="845.0" y="998.0" type="line" smooth="yes"/>
      <point x="859.0" y="1058.0"/>
      <point x="818.0" y="1085.0"/>
      <point x="761.0" y="1085.0" type="curve" smooth="yes"/>
      <point x="691.0" y="1085.0"/>
      <point x="656.0" y="1045.0"/>
      <point x="646.0" y="1002.0" type="curve" smooth="yes"/>
      <point x="644.0" y="992.0" type="line" smooth="yes"/>
      <point x="619.0" y="885.0"/>
      <point x="527.0" y="822.0"/>
      <point x="380.0" y="822.0" type="curve" smooth="yes"/>
      <point x="370.0" y="822.0" type="line" smooth="yes"/>
      <point x="223.0" y="822.0"/>
      <point x="149.0" y="885.0"/>
      <point x="183.0" y="1032.0" type="curve" smooth="yes"/>
      <point x="188.0" y="1052.0" type="line" smooth="yes"/>
      <point x="240.0" y="1276.0"/>
      <point x="473.0" y="1435.0"/>
      <point x="870.0" y="1435.0" type="curve" smooth="yes"/>
      <point x="1197.0" y="1435.0"/>
      <point x="1396.0" y="1303.0"/>
      <point x="1336.0" y="1043.0" type="curve" smooth="yes"/>
      <point x="1325.0" y="998.0" type="line" smooth="yes"/>
      <point x="1229.0" y="582.0"/>
      <point x="613.0" y="531.0"/>
      <point x="578.0" y="380.0" type="curve" smooth="yes"/>
      <point x="575.0" y="370.0" type="line"/>
      <point x="955.0" y="370.0" type="line" smooth="yes"/>
      <point x="1132.0" y="370.0"/>
      <point x="1208.0" y="337.0"/>
      <point x="1174.0" y="190.0" type="curve" smooth="yes"/>
      <point x="1172.0" y="180.0" type="line" smooth="yes"/>
      <point x="1138.0" y="33.0"/>
      <point x="1047.0" y="0.0"/>
      <point x="870.0" y="0.0" type="curve" smooth="yes"/>
      <point x="110.0" y="0.0" type="line" smooth="yes"/>
      <point x="-17.0" y="0.0"/>
      <point x="-59.0" y="48.0"/>
      <point x="-34.0" y="155.0" type="curve" smooth="yes"/>
    </contour>
  </outline>
</glyph>
<glyph name="three" format="2">
  <advance height="1920" width="1300"/>
  <unicode hex="0033"/>
  <outline>
    <contour>
      <point x="313.0" y="577.0" type="curve" smooth="yes"/>
      <point x="323.0" y="577.0" type="line" smooth="yes"/>
      <point x="470.0" y="577.0"/>
      <point x="516.0" y="504.0"/>
      <point x="494.0" y="407.0" type="curve" smooth="yes"/>
      <point x="492.0" y="397.0" type="line" smooth="yes"/>
      <point x="483.0" y="357.0"/>
      <point x="514.0" y="315.0"/>
      <point x="593.0" y="315.0" type="curve" smooth="yes"/>
      <point x="680.0" y="315.0"/>
      <point x="736.0" y="352.0"/>
      <point x="752.0" y="422.0" type="curve" smooth="yes"/>
      <point x="758.0" y="447.0" type="line" smooth="yes"/>
      <point x="774.0" y="517.0"/>
      <point x="736.0" y="560.0"/>
      <point x="639.0" y="560.0" type="curve" smooth="yes"/>
      <point x="619.0" y="560.0" type="line" smooth="yes"/>
      <point x="512.0" y="560.0"/>
      <point x="487.0" y="633.0"/>
      <point x="509.0" y="730.0" type="curve" smooth="yes"/>
      <point x="511.0" y="740.0" type="line" smooth="yes"/>
      <point x="533.0" y="837.0"/>
      <point x="592.0" y="910.0"/>
      <point x="699.0" y="910.0" type="curve" smooth="yes"/>
      <point x="700.0" y="910.0" type="line" smooth="yes"/>
      <point x="767.0" y="910.0"/>
      <point x="815.0" y="933.0"/>
      <point x="829.0" y="993.0" type="curve" smooth="yes"/>
      <point x="833.0" y="1008.0" type="line" smooth="yes"/>
      <point x="842.0" y="1048.0"/>
      <point x="826.0" y="1085.0"/>
      <point x="759.0" y="1085.0" type="curve" smooth="yes"/>
      <point x="699.0" y="1085.0"/>
      <point x="671.0" y="1065.0"/>
      <point x="663.0" y="1032.0" type="curve" smooth="yes"/>
      <point x="661.0" y="1022.0" type="line" smooth="yes"/>
      <point x="641.0" y="935.0"/>
      <point x="555.0" y="902.0"/>
      <point x="428.0" y="902.0" type="curve" smooth="yes"/>
      <point x="418.0" y="902.0" type="line" smooth="yes"/>
      <point x="251.0" y="902.0"/>
      <point x="178.0" y="965.0"/>
      <point x="205.0" y="1082.0" type="curve" smooth="yes"/>
      <point x="209.0" y="1102.0" type="line" smooth="yes"/>
      <point x="247.0" y="1266.0"/>
      <point x="508.0" y="1435.0"/>
      <point x="855.0" y="1435.0" type="curve" smooth="yes"/>
      <point x="1202.0" y="1435.0"/>
      <point x="1398.0" y="1313.0"/>
      <point x="1345.0" y="1083.0" type="curve" smooth="yes"/>
      <point x="1339.0" y="1058.0" type="line" smooth="yes"/>
      <point x="1281.0" y="808.0"/>
      <point x="1013.0" y="720.0"/>
      <point x="756.0" y="720.0" type="curve"/>
      <point x="788.0" y="770.0" type="line"/>
      <point x="1045.0" y="770.0"/>
      <point x="1300.0" y="672.0"/>
      <point x="1242.0" y="422.0" type="curve" smooth="yes"/>
      <point x="1225.0" y="347.0" type="line" smooth="yes"/>
      <point x="1170.0" y="107.0"/>
      <point x="899.0" y="-35.0"/>
      <point x="502.0" y="-35.0" type="curve" smooth="yes"/>
      <point x="150.0" y="-35.0"/>
      <point x="-43.0" y="119.0"/>
      <point x="17.0" y="377.0" type="curve" smooth="yes"/>
      <point x="19.0" y="387.0" type="line" smooth="yes"/>
      <point x="44.0" y="494.0"/>
      <point x="126.0" y="577.0"/>
    </contour>
  </outline>
</glyph>
<glyph name="four" format="2">
  <advance height="1920" width="1310"/>
  <unicode hex="0034"/>
  <outline>
    <contour>
      <point x="1315.0" y="410.0" type="curve" smooth="yes"/>
      <point x="1312.0" y="400.0" type="line" smooth="yes"/>
      <point x="1285.0" y="283.0"/>
      <point x="1210.0" y="230.0"/>
      <point x="1073.0" y="230.0" type="curve" smooth="yes"/>
      <point x="1053.0" y="230.0" type="line"/>
      <point x="1046.0" y="200.0" type="line" smooth="yes"/>
      <point x="1014.0" y="63.0"/>
      <point x="900.0" y="-30.0"/>
      <point x="753.0" y="-30.0" type="curve" smooth="yes"/>
      <point x="743.0" y="-30.0" type="line" smooth="yes"/>
      <point x="596.0" y="-30.0"/>
      <point x="524.0" y="63.0"/>
      <point x="556.0" y="200.0" type="curve" smooth="yes"/>
      <point x="563.0" y="230.0" type="line"/>
      <point x="183.0" y="230.0" type="line" smooth="yes"/>
      <point x="6.0" y="230.0"/>
      <point x="-51.0" y="343.0"/>
      <point x="-12.0" y="510.0" type="curve" smooth="yes"/>
      <point x="-12.0" y="512.0" type="line" smooth="yes"/>
      <point x="20.0" y="649.0"/>
      <point x="83.0" y="726.0"/>
      <point x="226.0" y="860.0" type="curve" smooth="yes"/>
      <point x="617.0" y="1227.0" type="line" smooth="yes"/>
      <point x="743.0" y="1345.0"/>
      <point x="871.0" y="1420.0"/>
      <point x="1048.0" y="1420.0" type="curve" smooth="yes"/>
      <point x="1058.0" y="1420.0" type="line" smooth="yes"/>
      <point x="1235.0" y="1420.0"/>
      <point x="1297.0" y="1287.0"/>
      <point x="1263.0" y="1140.0" type="curve" smooth="yes"/>
      <point x="1134.0" y="580.0" type="line"/>
      <point x="1154.0" y="580.0" type="line" smooth="yes"/>
      <point x="1291.0" y="580.0"/>
      <point x="1342.0" y="527.0"/>
    </contour>
    <contour>
      <point x="654.0" y="580.0" type="line"/>
      <point x="751.0" y="1001.0" type="line"/>
      <point x="319.0" y="580.0" type="line"/>
    </contour>
  </outline>
</glyph>
<glyph name="five" format="2">
  <advance height="1920" width="1300"/>
  <unicode hex="0035"/>
  <outline>
    <contour>
      <point x="288.0" y="448.0" type="curve" smooth="yes"/>
      <point x="293.0" y="448.0" type="line" smooth="yes"/>
      <point x="450.0" y="448.0"/>
      <point x="461.0" y="394.0"/>
      <point x="501.0" y="349.0" type="curve" smooth="yes"/>
      <point x="518.0" y="330.0"/>
      <point x="548.0" y="305.0"/>
      <point x="595.0" y="305.0" type="curve" smooth="yes"/>
      <point x="664.0" y="305.0"/>
      <point x="722.0" y="355.0"/>
      <point x="743.0" y="448.0" type="curve" smooth="yes"/>
      <point x="749.0" y="473.0" type="line" smooth="yes"/>
      <point x="772.0" y="573.0"/>
      <point x="749.0" y="605.0"/>
      <point x="685.0" y="605.0" type="curve" smooth="yes"/>
      <point x="634.0" y="605.0"/>
      <point x="586.0" y="556.0"/>
      <point x="571.0" y="543.0" type="curve" smooth="yes"/>
      <point x="532.0" y="507.0"/>
      <point x="481.0" y="473.0"/>
      <point x="354.0" y="473.0" type="curve" smooth="yes"/>
      <point x="264.0" y="473.0" type="line" smooth="yes"/>
      <point x="147.0" y="473.0"/>
      <point x="100.0" y="568.0"/>
      <point x="162.0" y="743.0" type="curve" smooth="yes"/>
      <point x="301.0" y="1140.0" type="line" smooth="yes"/>
      <point x="362.0" y="1313.0"/>
      <point x="477.0" y="1400.0"/>
      <point x="654.0" y="1400.0" type="curve" smooth="yes"/>
      <point x="1144.0" y="1400.0" type="line" smooth="yes"/>
      <point x="1341.0" y="1400.0"/>
      <point x="1402.0" y="1347.0"/>
      <point x="1380.0" y="1250.0" type="curve" smooth="yes"/>
      <point x="1378.0" y="1245.0" type="line" smooth="yes"/>
      <point x="1350.0" y="1125.0"/>
      <point x="1243.0" y="1050.0"/>
      <point x="1043.0" y="1050.0" type="curve" smooth="yes"/>
      <point x="678.0" y="1050.0" type="line"/>
      <point x="544.0" y="745.0" type="line"/>
      <point x="521.0" y="745.0" type="line"/>
      <point x="604.0" y="868.0"/>
      <point x="800.0" y="955.0"/>
      <point x="960.0" y="955.0" type="curve" smooth="yes"/>
      <point x="1200.0" y="955.0"/>
      <point x="1323.0" y="840.0"/>
      <point x="1248.0" y="513.0" type="curve" smooth="yes"/>
      <point x="1233.0" y="448.0" type="line" smooth="yes"/>
      <point x="1158.0" y="121.0"/>
      <point x="917.0" y="-35.0"/>
      <point x="507.0" y="-35.0" type="curve" smooth="yes"/>
      <point x="173.0" y="-35.0"/>
      <point x="11.0" y="99.0"/>
      <point x="28.0" y="248.0" type="curve" smooth="yes"/>
      <point x="43.0" y="384.0"/>
      <point x="151.0" y="448.0"/>
    </contour>
  </outline>
</glyph>
<glyph name="seven" format="2">
  <advance height="1920" width="1195"/>
  <unicode hex="0037"/>
  <outline>
    <contour>
      <point x="1302.0" y="1060.0" type="curve" smooth="yes"/>
      <point x="895.0" y="330.0" type="line" smooth="yes"/>
      <point x="779.0" y="121.0"/>
      <point x="680.0" y="-30.0"/>
      <point x="483.0" y="-30.0" type="curve" smooth="yes"/>
      <point x="473.0" y="-30.0" type="line" smooth="yes"/>
      <point x="266.0" y="-30.0"/>
      <point x="229.0" y="167.0"/>
      <point x="375.0" y="350.0" type="curve" smooth="yes"/>
      <point x="854.0" y="950.0" type="line"/>
      <point x="444.0" y="950.0" type="line" smooth="yes"/>
      <point x="217.0" y="950.0"/>
      <point x="161.0" y="1023.0"/>
      <point x="195.0" y="1170.0" type="curve" smooth="yes"/>
      <point x="197.0" y="1180.0" type="line" smooth="yes"/>
      <point x="231.0" y="1327.0"/>
      <point x="321.0" y="1400.0"/>
      <point x="548.0" y="1400.0" type="curve" smooth="yes"/>
      <point x="1108.0" y="1400.0" type="line" smooth="yes"/>
      <point x="1375.0" y="1400.0"/>
      <point x="1432.0" y="1294.0"/>
    </contour>
  </outline>
</glyph>
<glyph name="nine" format="2">
  <advance height="1920" width="1429"/>
  <unicode hex="0039"/>
  <outline>
    <contour>
      <point x="754.0" y="760.0" type="curve" smooth="yes"/>
      <point x="864.0" y="760.0"/>
      <point x="937.0" y="815.0"/>
      <point x="956.0" y="898.0" type="curve" smooth="yes"/>
      <point x="970.0" y="958.0" type="line"/>
      <point x="1042.0" y="878.0" type="line"/>
      <point x="981.0" y="614.0"/>
      <point x="824.0" y="510.0"/>
      <point x="527.0" y="510.0" type="curve" smooth="yes"/>
      <point x="200.0" y="510.0"/>
      <point x="95.0" y="669.0"/>
      <point x="158.0" y="943.0" type="curve" smooth="yes"/>
      <point x="169.0" y="993.0" type="line" smooth="yes"/>
      <point x="233.0" y="1271.0"/>
      <point x="519.0" y="1435.0"/>
      <point x="911.0" y="1435.0" type="curve" smooth="yes"/>
      <point x="1388.0" y="1435.0"/>
      <point x="1519.0" y="1233.0"/>
      <point x="1436.0" y="873.0" type="curve" smooth="yes"/>
      <point x="1363.0" y="557.0" type="line" smooth="yes"/>
      <point x="1275.0" y="177.0"/>
      <point x="988.0" y="-35.0"/>
      <point x="561.0" y="-35.0" type="curve" smooth="yes"/>
      <point x="74.0" y="-35.0"/>
      <point x="-10.0" y="132.0"/>
      <point x="19.0" y="256.0" type="curve" smooth="yes"/>
      <point x="20.0" y="258.0" type="line" smooth="yes"/>
      <point x="49.0" y="385.0"/>
      <point x="144.0" y="458.0"/>
      <point x="301.0" y="458.0" type="curve" smooth="yes"/>
      <point x="311.0" y="458.0" type="line" smooth="yes"/>
      <point x="458.0" y="458.0"/>
      <point x="496.0" y="415.0"/>
      <point x="483.0" y="358.0" type="curve" smooth="yes"/>
      <point x="482.0" y="356.0" type="line" smooth="yes"/>
      <point x="474.0" y="323.0"/>
      <point x="542.0" y="315.0"/>
      <point x="612.0" y="315.0" type="curve" smooth="yes"/>
      <point x="739.0" y="315.0"/>
      <point x="844.0" y="412.0"/>
      <point x="879.0" y="562.0" type="curve" smooth="yes"/>
      <point x="966.0" y="938.0" type="line" smooth="yes"/>
      <point x="987.0" y="1028.0"/>
      <point x="947.0" y="1085.0"/>
      <point x="840.0" y="1085.0" type="curve" smooth="yes"/>
      <point x="721.0" y="1085.0"/>
      <point x="666.0" y="1023.0"/>
      <point x="648.0" y="943.0" type="curve" smooth="yes"/>
      <point x="643.0" y="923.0" type="line" smooth="yes"/>
      <point x="624.0" y="840.0"/>
      <point x="644.0" y="760.0"/>
    </contour>
  </outline>
</glyph>
<glyph name="less" format="2">
  <advance height="1920" width="1010"/>
  <unicode hex="003C"/>
  <outline>
    <contour>
      <point x="571.0" y="179.0" type="curve" smooth="yes"/>
      <point x="196.0" y="374.0" type="line" smooth="yes"/>
      <point x="79.0" y="435.0"/>
      <point x="31.0" y="483.0"/>
      <point x="56.0" y="590.0" type="curve" smooth="yes"/>
      <point x="61.0" y="610.0" type="line" smooth="yes"/>
      <point x="86.0" y="717.0"/>
      <point x="156.0" y="765.0"/>
      <point x="301.0" y="826.0" type="curve" smooth="yes"/>
      <point x="766.0" y="1021.0" type="line" smooth="yes"/>
      <point x="939.0" y="1093.0"/>
      <point x="1000.0" y="997.0"/>
      <point x="975.0" y="890.0" type="curve" smooth="yes"/>
      <point x="973.0" y="880.0" type="line" smooth="yes"/>
      <point x="948.0" y="773.0"/>
      <point x="895.0" y="733.0"/>
      <point x="739.0" y="689.0" type="curve" smooth="yes"/>
      <point x="428.0" y="600.0" type="line"/>
      <point x="698.0" y="511.0" type="line" smooth="yes"/>
      <point x="833.0" y="467.0"/>
      <point x="869.0" y="427.0"/>
      <point x="844.0" y="320.0" type="curve" smooth="yes"/>
      <point x="842.0" y="310.0" type="line" smooth="yes"/>
      <point x="817.0" y="203.0"/>
      <point x="710.0" y="107.0"/>
    </contour>
  </outline>
</glyph>
<glyph name="equal" format="2">
  <advance height="1920" width="1180"/>
  <unicode hex="003D"/>
  <outline>
    <contour>
      <point x="64.0" y="245.0" type="curve" smooth="yes"/>
      <point x="64.0" y="280.0" type="line" smooth="yes"/>
      <point x="64.0" y="387.0"/>
      <point x="147.0" y="440.0"/>
      <point x="254.0" y="440.0" type="curve" smooth="yes"/>
      <point x="814.0" y="440.0" type="line" smooth="yes"/>
      <point x="921.0" y="440.0"/>
      <point x="1004.0" y="387.0"/>
      <point x="1004.0" y="280.0" type="curve" smooth="yes"/>
      <point x="1004.0" y="245.0" type="line" smooth="yes"/>
      <point x="1004.0" y="138.0"/>
      <point x="921.0" y="85.0"/>
      <point x="814.0" y="85.0" type="curve" smooth="yes"/>
      <point x="254.0" y="85.0" type="line" smooth="yes"/>
      <point x="147.0" y="85.0"/>
      <point x="64.0" y="138.0"/>
    </contour>
    <contour>
      <point x="172.0" y="715.0" type="curve" smooth="yes"/>
      <point x="172.0" y="750.0" type="line" smooth="yes"/>
      <point x="172.0" y="857.0"/>
      <point x="255.0" y="910.0"/>
      <point x="362.0" y="910.0" type="curve" smooth="yes"/>
      <point x="922.0" y="910.0" type="line" smooth="yes"/>
      <point x="1029.0" y="910.0"/>
      <point x="1112.0" y="857.0"/>
      <point x="1112.0" y="750.0" type="curve" smooth="yes"/>
      <point x="1112.0" y="715.0" type="line" smooth="yes"/>
      <point x="1112.0" y="608.0"/>
      <point x="1029.0" y="555.0"/>
      <point x="922.0" y="555.0" type="curve" smooth="yes"/>
      <point x="362.0" y="555.0" type="line" smooth="yes"/>
      <point x="255.0" y="555.0"/>
      <point x="172.0" y="608.0"/>
    </contour>
  </outline>
</glyph>
<glyph name="greater" format="2">
  <advance height="1920" width="1010"/>
  <unicode hex="003E"/>
  <outline>
    <contour>
      <point x="476.0" y="1021.0" type="curve" smooth="yes"/>
      <point x="851.0" y="826.0" type="line" smooth="yes"/>
      <point x="968.0" y="765.0"/>
      <point x="1016.0" y="717.0"/>
      <point x="991.0" y="610.0" type="curve" smooth="yes"/>
      <point x="986.0" y="590.0" type="line" smooth="yes"/>
      <point x="961.0" y="483.0"/>
      <point x="891.0" y="435.0"/>
      <point x="746.0" y="374.0" type="curve" smooth="yes"/>
      <point x="281.0" y="179.0" type="line" smooth="yes"/>
      <point x="108.0" y="107.0"/>
      <point x="47.0" y="203.0"/>
      <point x="72.0" y="310.0" type="curve" smooth="yes"/>
      <point x="74.0" y="320.0" type="line" smooth="yes"/>
      <point x="99.0" y="427.0"/>
      <point x="152.0" y="467.0"/>
      <point x="308.0" y="511.0" type="curve" smooth="yes"/>
      <point x="620.0" y="600.0" type="line"/>
      <point x="349.0" y="689.0" type="line" smooth="yes"/>
      <point x="214.0" y="733.0"/>
      <point x="178.0" y="773.0"/>
      <point x="203.0" y="880.0" type="curve" smooth="yes"/>
      <point x="205.0" y="890.0" type="line" smooth="yes"/>
      <point x="230.0" y="997.0"/>
      <point x="337.0" y="1093.0"/>
    </contour>
  </outline>
</glyph>
<glyph name="question" format="2">
  <advance height="1920" width="1320"/>
  <unicode hex="003F"/>
  <outline>
    <contour>
      <point x="575.0" y="-40.0" type="curve" smooth="yes"/>
      <point x="545.0" y="-40.0" type="line" smooth="yes"/>
      <point x="368.0" y="-40.0"/>
      <point x="265.0" y="53.0"/>
      <point x="265.0" y="200.0" type="curve" smooth="yes"/>
      <point x="265.0" y="210.0" type="line" smooth="yes"/>
      <point x="265.0" y="357.0"/>
      <point x="368.0" y="450.0"/>
      <point x="545.0" y="450.0" type="curve" smooth="yes"/>
      <point x="575.0" y="450.0" type="line" smooth="yes"/>
      <point x="752.0" y="450.0"/>
      <point x="855.0" y="357.0"/>
      <point x="855.0" y="210.0" type="curve" smooth="yes"/>
      <point x="855.0" y="200.0" type="line" smooth="yes"/>
      <point x="855.0" y="53.0"/>
      <point x="752.0" y="-40.0"/>
    </contour>
    <contour>
      <point x="648.0" y="510.0" type="curve" smooth="yes"/>
      <point x="638.0" y="510.0" type="line" smooth="yes"/>
      <point x="531.0" y="510.0"/>
      <point x="452.0" y="561.0"/>
      <point x="523.0" y="689.0" type="curve" smooth="yes"/>
      <point x="593.0" y="815.0"/>
      <point x="806.0" y="868.0"/>
      <point x="839.0" y="1013.0" type="curve" smooth="yes"/>
      <point x="842.0" y="1028.0" type="line" smooth="yes"/>
      <point x="860.0" y="1108.0"/>
      <point x="838.0" y="1135.0"/>
      <point x="781.0" y="1135.0" type="curve" smooth="yes"/>
      <point x="721.0" y="1135.0"/>
      <point x="683.0" y="1075.0"/>
      <point x="669.0" y="1012.0" type="curve" smooth="yes"/>
      <point x="668.0" y="1010.0" type="line" smooth="yes"/>
      <point x="655.0" y="953.0"/>
      <point x="595.0" y="902.0"/>
      <point x="428.0" y="902.0" type="curve" smooth="yes"/>
      <point x="418.0" y="902.0" type="line" smooth="yes"/>
      <point x="251.0" y="902.0"/>
      <point x="177.0" y="965.0"/>
      <point x="202.0" y="1072.0" type="curve" smooth="yes"/>
      <point x="205.0" y="1082.0" type="line" smooth="yes"/>
      <point x="250.0" y="1276.0"/>
      <point x="485.0" y="1485.0"/>
      <point x="882.0" y="1485.0" type="curve" smooth="yes"/>
      <point x="1279.0" y="1485.0"/>
      <point x="1471.0" y="1323.0"/>
      <point x="1420.0" y="1103.0" type="curve" smooth="yes"/>
      <point x="1414.0" y="1078.0" type="line" smooth="yes"/>
      <point x="1339.0" y="755.0"/>
      <point x="1006.0" y="752.0"/>
      <point x="873.0" y="632.0" type="curve" smooth="yes"/>
      <point x="769.0" y="538.0"/>
      <point x="715.0" y="510.0"/>
    </contour>
  </outline>
</glyph>
<glyph name="at" format="2">
  <advance height="1920" width="1990"/>
  <unicode hex="0040"/>
  <outline>
    <contour>
      <point x="1154.0" y="472.0" type="line"/>
      <point x="1087.0" y="182.0"/>
      <point x="957.0" y="40.0"/>
      <point x="690.0" y="40.0" type="curve" smooth="yes"/>
      <point x="473.0" y="40.0"/>
      <point x="332.0" y="157.0"/>
      <point x="410.0" y="497.0" type="curve" smooth="yes"/>
      <point x="417.0" y="528.0" type="line" smooth="yes"/>
      <point x="491.0" y="848.0"/>
      <point x="701.0" y="985.0"/>
      <point x="938.0" y="985.0" type="curve" smooth="yes"/>
      <point x="1195.0" y="985.0"/>
      <point x="1300.0" y="843.0"/>
      <point x="1233.0" y="553.0" type="curve"/>
      <point x="1078.0" y="533.0" type="line"/>
      <point x="1101.0" y="633.0"/>
      <point x="1083.0" y="695.0"/>
      <point x="1006.0" y="695.0" type="curve" smooth="yes"/>
      <point x="939.0" y="695.0"/>
      <point x="886.0" y="653.0"/>
      <point x="863.0" y="553.0" type="curve" smooth="yes"/>
      <point x="844.0" y="472.0" type="line" smooth="yes"/>
      <point x="821.0" y="372.0"/>
      <point x="855.0" y="330.0"/>
      <point x="922.0" y="330.0" type="curve" smooth="yes"/>
      <point x="999.0" y="330.0"/>
      <point x="1046.0" y="392.0"/>
      <point x="1069.0" y="492.0" type="curve"/>
    </contour>
    <contour>
      <point x="1106.0" y="-285.0" type="curve" smooth="yes"/>
      <point x="1017.0" y="-328.0"/>
      <point x="932.0" y="-360.0"/>
      <point x="782.0" y="-360.0" type="curve" smooth="yes"/>
      <point x="225.0" y="-360.0"/>
      <point x="-17.0" y="13.0"/>
      <point x="94.0" y="493.0" type="curve" smooth="yes"/>
      <point x="115.0" y="583.0" type="line" smooth="yes"/>
      <point x="233.0" y="1093.0"/>
      <point x="699.0" y="1435.0"/>
      <point x="1236.0" y="1435.0" type="curve" smooth="yes"/>
      <point x="1843.0" y="1435.0"/>
      <point x="2006.0" y="1024.0"/>
      <point x="1916.0" y="633.0" type="curve" smooth="yes"/>
      <point x="1895.0" y="543.0" type="line" smooth="yes"/>
      <point x="1812.0" y="183.0"/>
      <point x="1606.0" y="40.0"/>
      <point x="1379.0" y="40.0" type="curve" smooth="yes"/>
      <point x="1172.0" y="40.0"/>
      <point x="998.0" y="185.0"/>
      <point x="1049.0" y="405.0" type="curve" smooth="yes"/>
      <point x="1134.0" y="775.0" type="line"/>
      <point x="1321.0" y="905.0" type="line" smooth="yes"/>
      <point x="1399.0" y="959.0"/>
      <point x="1435.0" y="985.0"/>
      <point x="1502.0" y="985.0" type="curve" smooth="yes"/>
      <point x="1513.0" y="985.0" type="line" smooth="yes"/>
      <point x="1570.0" y="985.0"/>
      <point x="1614.0" y="952.0"/>
      <point x="1585.0" y="825.0" type="curve" smooth="yes"/>
      <point x="1519.0" y="535.0" type="line" smooth="yes"/>
      <point x="1474.0" y="340.0"/>
      <point x="1488.0" y="280.0"/>
      <point x="1555.0" y="280.0" type="curve" smooth="yes"/>
      <point x="1612.0" y="280.0"/>
      <point x="1669.0" y="343.0"/>
      <point x="1715.0" y="543.0" type="curve" smooth="yes"/>
      <point x="1736.0" y="633.0" type="line" smooth="yes"/>
      <point x="1814.0" y="973.0"/>
      <point x="1651.0" y="1295.0"/>
      <point x="1204.0" y="1295.0" type="curve" smooth="yes"/>
      <point x="797.0" y="1295.0"/>
      <point x="404.0" y="1013.0"/>
      <point x="307.0" y="593.0" type="curve" smooth="yes"/>
      <point x="282.0" y="483.0" type="line" smooth="yes"/>
      <point x="194.0" y="103.0"/>
      <point x="377.0" y="-220.0"/>
      <point x="814.0" y="-220.0" type="curve" smooth="yes"/>
      <point x="916.0" y="-220.0"/>
      <point x="1008.0" y="-191.0"/>
      <point x="1081.0" y="-154.0" type="curve" smooth="yes"/>
      <point x="1143.0" y="-123.0"/>
      <point x="1175.0" y="-147.0"/>
      <point x="1178.0" y="-172.0" type="curve" smooth="yes"/>
      <point x="1179.0" y="-178.0" type="line" smooth="yes"/>
      <point x="1183.0" y="-213.0"/>
      <point x="1162.0" y="-257.0"/>
    </contour>
  </outline>
</glyph>
<glyph name="A" format="2">
  <advance height="1872" width="1400"/>
  <unicode hex="0041"/>
  <anchor x="543.0" y="0.0" name="bottom"/>
  <anchor x="1048.0" y="0.0" name="ogonek"/>
  <anchor x="915.0" y="1400.0" name="top"/>
  <outline>
    <contour>
      <point x="345.0" y="520.0" type="line"/>
      <point x="975.0" y="520.0" type="line"/>
      <point x="917.0" y="276.0" type="line"/>
      <point x="287.0" y="276.0" type="line"/>
    </contour>
    <contour>
      <point x="777.0" y="984.0" type="line"/>
      <point x="361.0" y="195.0" type="line" smooth="yes"/>
      <point x="279.0" y="42.0"/>
      <point x="171.0" y="-35.0"/>
      <point x="70.0" y="-35.0" type="curve" smooth="yes"/>
      <point x="40.0" y="-35.0" type="line" smooth="yes"/>
      <point x="-66.0" y="-35.0"/>
      <point x="-101.0" y="76.0"/>
      <point x="-32.0" y="195.0" type="curve" smooth="yes"/>
      <point x="532.0" y="1190.0" type="line" smooth="yes"/>
      <point x="601.0" y="1309.0"/>
      <point x="731.0" y="1400.0"/>
      <point x="868.0" y="1400.0" type="curve" smooth="yes"/>
      <point x="938.0" y="1400.0" type="line" smooth="yes"/>
      <point x="1077.0" y="1400.0"/>
      <point x="1168.0" y="1307.0"/>
      <point x="1182.0" y="1190.0" type="curve" smooth="yes"/>
      <point x="1291.0" y="205.0" type="line" smooth="yes"/>
      <point x="1305.0" y="93.0"/>
      <point x="1255.0" y="-35.0"/>
      <point x="1112.0" y="-35.0" type="curve" smooth="yes"/>
      <point x="1062.0" y="-35.0" type="line" smooth="yes"/>
      <point x="926.0" y="-35.0"/>
      <point x="847.400339359" y="84.9530432618"/>
      <point x="838.0" y="205.0" type="curve" smooth="yes"/>
    </contour>
  </outline>
</glyph>
<glyph name="B" format="2">
  <advance height="1872" width="1341"/>
  <unicode hex="0042"/>
  <anchor x="555.0" y="0.0" name="bottom"/>
  <anchor x="847.0" y="1400.0" name="top"/>
  <outline>
    <contour>
      <point x="619.0" y="836.0" type="line"/>
      <point x="759.0" y="836.0" type="line" smooth="yes"/>
      <point x="836.0" y="836.0"/>
      <point x="875.1328125" y="882.15625"/>
      <point x="887.0" y="932.0" type="curve" smooth="yes"/>
      <point x="893.0" y="959.0" type="line" smooth="yes"/>
      <point x="904.124716756" y="1009.0612254"/>
      <point x="893.0" y="1059.0"/>
      <point x="816.0" y="1059.0" type="curve" smooth="yes"/>
      <point x="670.0" y="1059.0" type="line"/>
    </contour>
    <contour>
      <point x="877.0" y="750.0" type="line"/>
      <point x="1134.0" y="750.0"/>
      <point x="1357.0" y="652.0"/>
      <point x="1299.0" y="402.0" type="curve" smooth="yes"/>
      <point x="1286.0" y="347.0" type="line" smooth="yes"/>
      <point x="1221.0" y="67.0"/>
      <point x="955.0" y="0.0"/>
      <point x="698.0" y="0.0" type="curve" smooth="yes"/>
      <point x="208.0" y="0.0" type="line" smooth="yes"/>
      <point x="31.0" y="0.0"/>
      <point x="-33.0" y="83.0"/>
      <point x="8.0" y="260.0" type="curve" smooth="yes"/>
      <point x="211.0" y="1140.0" type="line" smooth="yes"/>
      <point x="252.0" y="1317.0"/>
      <point x="354.0" y="1400.0"/>
      <point x="531.0" y="1400.0" type="curve" smooth="yes"/>
      <point x="1001.0" y="1400.0" type="line" smooth="yes"/>
      <point x="1258.0" y="1400.0"/>
      <point x="1462.0" y="1313.0"/>
      <point x="1404.0" y="1063.0" type="curve" smooth="yes"/>
      <point x="1399.0" y="1038.0" type="line" smooth="yes"/>
      <point x="1341.0" y="788.0"/>
      <point x="1103.0" y="700.0"/>
      <point x="846.0" y="700.0" type="curve"/>
    </contour>
    <contour>
      <point x="745.0" y="593.0" type="curve" smooth="yes"/>
      <point x="563.0" y="593.0" type="line"/>
      <point x="505.0" y="341.0" type="line"/>
      <point x="687.0" y="341.0" type="line" smooth="yes"/>
      <point x="771.0" y="341.0"/>
      <point x="810.387640449" y="396.679775281"/>
      <point x="822.0" y="447.0" type="curve" smooth="yes"/>
      <point x="831.0" y="486.0" type="line" smooth="yes"/>
      <point x="842.511235955" y="535.882022472"/>
      <point x="828.0" y="593.0"/>
    </contour>
  </outline>
</glyph>
<glyph name="C" format="2">
  <advance height="1872" width="1396"/>
  <unicode hex="0043"/>
  <anchor x="615.0" y="0.0" name="bottom"/>
  <anchor x="957.0" y="1400.0" name="top"/>
  <outline>
    <contour>
      <point x="1365.0" y="528.0" type="curve" smooth="yes"/>
      <point x="1362.36328125" y="493.92578125"/>
      <point x="1344.0" y="451.0"/>
      <point x="1308.0" y="384.0" type="curve" smooth="yes"/>
      <point x="1180.0" y="147.0"/>
      <point x="949.0" y="-34.0"/>
      <point x="593.0" y="-34.0" type="curve" smooth="yes"/>
      <point x="120.0" y="-34.0"/>
      <point x="-17.0" y="232.0"/>
      <point x="69.0" y="605.0" type="curve" smooth="yes"/>
      <point x="113.0" y="796.0" type="line" smooth="yes"/>
      <point x="199.0" y="1168.0"/>
      <point x="460.0" y="1434.0"/>
      <point x="933.0" y="1434.0" type="curve" smooth="yes"/>
      <point x="1280.0" y="1434.0"/>
      <point x="1440.0" y="1286.0"/>
      <point x="1440.0" y="1076.0" type="curve" smooth="yes"/>
      <point x="1440.0" y="1013.60644531"/>
      <point x="1430.88424152" y="985.793630681"/>
      <point x="1417.0" y="943.0" type="curve" smooth="yes"/>
      <point x="1392.82598271" y="868.49150299"/>
      <point x="1344.0" y="833.0"/>
      <point x="1227.0" y="833.0" type="curve" smooth="yes"/>
      <point x="1216.0" y="833.0" type="line" smooth="yes"/>
      <point x="1109.0" y="833.0"/>
      <point x="1030.22363281" y="867.282226562"/>
      <point x="1051.0" y="943.0" type="curve" smooth="yes"/>
      <point x="1068.92773438" y="1008.33398438"/>
      <point x="1047.0" y="1101.0"/>
      <point x="905.0" y="1101.0" type="curve" smooth="yes"/>
      <point x="764.0" y="1101.0"/>
      <point x="649.0" y="1011.0"/>
      <point x="602.0" y="806.0" type="curve" smooth="yes"/>
      <point x="553.0" y="593.0" type="line" smooth="yes"/>
      <point x="504.0" y="379.0"/>
      <point x="569.0" y="299.0"/>
      <point x="729.0" y="299.0" type="curve" smooth="yes"/>
      <point x="889.0" y="299.0"/>
      <point x="967.340030293" y="398.731045112"/>
      <point x="1014.0" y="528.0" type="curve" smooth="yes"/>
      <point x="1037.43620773" y="592.92876225"/>
      <point x="1088.0" y="638.0"/>
      <point x="1195.0" y="638.0" type="curve" smooth="yes"/>
      <point x="1207.0" y="638.0" type="line" smooth="yes"/>
      <point x="1314.0" y="638.0"/>
      <point x="1370.33105469" y="596.8828125"/>
    </contour>
  </outline>
</glyph>
<glyph name="D" format="2">
  <advance height="1872" width="1389"/>
  <unicode hex="0044"/>
  <anchor x="505.0" y="0.0" name="bottom"/>
  <anchor x="857.0" y="1400.0" name="top"/>
  <outline>
    <contour>
      <point x="564.0" y="0.0" type="curve" smooth="yes"/>
      <point x="199.0" y="0.0" type="line" smooth="yes"/>
      <point x="22.0" y="0.0"/>
      <point x="-30.0" y="93.0"/>
      <point x="9.0" y="260.0" type="curve" smooth="yes"/>
      <point x="212.0" y="1140.0" type="line" smooth="yes"/>
      <point x="255.0" y="1327.0"/>
      <point x="345.0" y="1400.0"/>
      <point x="522.0" y="1400.0" type="curve" smooth="yes"/>
      <point x="887.0" y="1400.0" type="line" smooth="yes"/>
      <point x="1301.0" y="1400.0"/>
      <point x="1489.0" y="1169.0"/>
      <point x="1400.0" y="783.0" type="curve" smooth="yes"/>
      <point x="1362.0" y="618.0" type="line" smooth="yes"/>
      <point x="1273.0" y="232.0"/>
      <point x="1018.0" y="0.0"/>
    </contour>
    <contour>
      <point x="610.0" y="341.0" type="line" smooth="yes"/>
      <point x="764.0" y="341.0"/>
      <point x="834.0" y="440.0"/>
      <point x="873.0" y="608.0" type="curve" smooth="yes"/>
      <point x="916.0" y="793.0" type="line" smooth="yes"/>
      <point x="955.0" y="961.0"/>
      <point x="929.0" y="1059.0"/>
      <point x="775.0" y="1059.0" type="curve" smooth="yes"/>
      <point x="670.0" y="1059.0" type="line"/>
      <point x="505.0" y="341.0" type="line"/>
    </contour>
  </outline>
</glyph>
<glyph name="E" format="2">
  <advance height="1872" width="1266"/>
  <unicode hex="0045"/>
  <anchor x="565.0" y="0.0" name="bottom"/>
  <anchor x="980.0" y="0.0" name="ogonek"/>
  <anchor x="887.0" y="1400.0" name="top"/>
  <outline>
    <contour>
      <point x="619.0" y="836.0" type="line"/>
      <point x="910.0" y="836.0" type="line" smooth="yes"/>
      <point x="1017.0" y="836.0"/>
      <point x="1042.0" y="807.0"/>
      <point x="1022.0" y="720.0" type="curve" smooth="yes"/>
      <point x="1020.0" y="710.0" type="line" smooth="yes"/>
      <point x="1000.0" y="623.0"/>
      <point x="959.0" y="593.0"/>
      <point x="852.0" y="593.0" type="curve" smooth="yes"/>
      <point x="563.0" y="593.0" type="line"/>
      <point x="505.0" y="341.0" type="line"/>
      <point x="1067.0" y="341.0" type="line" smooth="yes"/>
      <point x="1204.0" y="341.0"/>
      <point x="1240.0" y="277.0"/>
      <point x="1220.0" y="190.0" type="curve" smooth="yes"/>
      <point x="1213.0" y="160.0" type="line" smooth="yes"/>
      <point x="1193.0" y="73.0"/>
      <point x="1123.0" y="0.0"/>
      <point x="986.0" y="0.0" type="curve" smooth="yes"/>
      <point x="208.0" y="0.0" type="line" smooth="yes"/>
      <point x="31.0" y="0.0"/>
      <point x="-33.0" y="83.0"/>
      <point x="8.0" y="260.0" type="curve" smooth="yes"/>
      <point x="213.0" y="1150.0" type="line" smooth="yes"/>
      <point x="254.0" y="1327.0"/>
      <point x="354.0" y="1400.0"/>
      <point x="531.0" y="1400.0" type="curve" smooth="yes"/>
      <point x="1289.0" y="1400.0" type="line" smooth="yes"/>
      <point x="1426.0" y="1400.0"/>
      <point x="1462.0" y="1327.0"/>
      <point x="1442.0" y="1240.0" type="curve" smooth="yes"/>
      <point x="1435.0" y="1210.0" type="line" smooth="yes"/>
      <point x="1415.0" y="1123.0"/>
      <point x="1345.0" y="1059.0"/>
      <point x="1208.0" y="1059.0" type="curve" smooth="yes"/>
      <point x="670.0" y="1059.0" type="line"/>
    </contour>
  </outline>
</glyph>
<glyph name="F" format="2">
  <advance height="1872" width="1180"/>
  <unicode hex="0046"/>
  <anchor x="525.0" y="0.0" name="bottom"/>
  <anchor x="847.0" y="1400.0" name="top"/>
  <outline>
    <contour>
      <point x="608.0" y="789.0" type="line"/>
      <point x="868.0" y="789.0" type="line" smooth="yes"/>
      <point x="987.0" y="789.0"/>
      <point x="1041.0" y="759.0"/>
      <point x="1021.0" y="670.0" type="curve" smooth="yes"/>
      <point x="1018.0" y="660.0" type="line" smooth="yes"/>
      <point x="998.0" y="571.0"/>
      <point x="930.0" y="546.0"/>
      <point x="811.0" y="546.0" type="curve" smooth="yes"/>
      <point x="552.0" y="546.0" type="line"/>
      <point x="470.0" y="190.0" type="line" smooth="yes"/>
      <point x="433.0" y="31.0"/>
      <point x="360.0" y="-30.0"/>
      <point x="201.0" y="-30.0" type="curve" smooth="yes"/>
      <point x="161.0" y="-30.0" type="line" smooth="yes"/>
      <point x="2.0" y="-30.0"/>
      <point x="-45.0" y="31.0"/>
      <point x="-8.0" y="190.0" type="curve" smooth="yes"/>
      <point x="211.0" y="1140.0" type="line" smooth="yes"/>
      <point x="252.0" y="1317.0"/>
      <point x="354.0" y="1400.0"/>
      <point x="531.0" y="1400.0" type="curve" smooth="yes"/>
      <point x="1249.0" y="1400.0" type="line" smooth="yes"/>
      <point x="1366.0" y="1400.0"/>
      <point x="1410.0" y="1317.0"/>
      <point x="1390.0" y="1230.0" type="curve" smooth="yes"/>
      <point x="1388.0" y="1220.0" type="line" smooth="yes"/>
      <point x="1368.0" y="1133.0"/>
      <point x="1287.0" y="1059.0"/>
      <point x="1170.0" y="1059.0" type="curve" smooth="yes"/>
      <point x="670.0" y="1059.0" type="line"/>
    </contour>
  </outline>
</glyph>
<glyph name="G" format="2">
  <advance height="1872" width="1439"/>
  <unicode hex="0047"/>
  <anchor x="625.0" y="0.0" name="bottom"/>
  <anchor x="947.0" y="1400.0" name="top"/>
  <outline>
    <contour>
      <point x="772.0" y="625.0" type="curve" smooth="yes"/>
      <point x="778.0" y="650.0" type="line" smooth="yes"/>
      <point x="796.0" y="727.0"/>
      <point x="856.0" y="757.0"/>
      <point x="993.0" y="757.0" type="curve" smooth="yes"/>
      <point x="1238.0" y="757.0" type="line" smooth="yes"/>
      <point x="1365.0" y="757.0"/>
      <point x="1416.0" y="687.0"/>
      <point x="1387.0" y="560.0" type="curve" smooth="yes"/>
      <point x="1288.0" y="130.0" type="line" smooth="yes"/>
      <point x="1261.10996862" y="13.2049142018"/>
      <point x="1222.0" y="-30.0"/>
      <point x="1155.0" y="-30.0" type="curve" smooth="yes"/>
      <point x="1146.0" y="-30.0" type="line" smooth="yes"/>
      <point x="1079.0" y="-30.0"/>
      <point x="1051.75538144" y="19.9960965123"/>
      <point x="1050.0" y="130.0" type="curve" smooth="yes"/>
      <point x="1047.0" y="318.0" type="line"/>
      <point x="1300.0" y="620.0" type="line"/>
      <point x="1190.0" y="230.0"/>
      <point x="890.0" y="-35.0"/>
      <point x="573.0" y="-35.0" type="curve" smooth="yes"/>
      <point x="106.0" y="-35.0"/>
      <point x="-17.0" y="238.0"/>
      <point x="71.0" y="618.0" type="curve" smooth="yes"/>
      <point x="110.0" y="783.0" type="line" smooth="yes"/>
      <point x="198.0" y="1163.0"/>
      <point x="455.0" y="1435.0"/>
      <point x="942.0" y="1435.0" type="curve" smooth="yes"/>
      <point x="1199.0" y="1435.0"/>
      <point x="1332.0" y="1325.0"/>
      <point x="1393.0" y="1198.0" type="curve" smooth="yes"/>
      <point x="1419.0" y="1143.0"/>
      <point x="1433.0" y="1086.0"/>
      <point x="1435.0" y="1033.0" type="curve" smooth="yes"/>
      <point x="1441.0" y="888.0"/>
      <point x="1353.0" y="823.0"/>
      <point x="1253.0" y="823.0" type="curve" smooth="yes"/>
      <point x="1233.0" y="823.0" type="line" smooth="yes"/>
      <point x="1137.0" y="823.0"/>
      <point x="1079.0" y="877.0"/>
      <point x="1073.0" y="963.0" type="curve" smooth="yes"/>
      <point x="1067.0" y="1044.0"/>
      <point x="1011.0" y="1102.0"/>
      <point x="904.0" y="1102.0" type="curve" smooth="yes"/>
      <point x="757.0" y="1102.0"/>
      <point x="647.0" y="1003.0"/>
      <point x="599.0" y="793.0" type="curve" smooth="yes"/>
      <point x="556.0" y="608.0" type="line" smooth="yes"/>
      <point x="505.0" y="388.0"/>
      <point x="554.0" y="298.0"/>
      <point x="731.0" y="298.0" type="curve" smooth="yes"/>
      <point x="869.0" y="298.0"/>
      <point x="976.0" y="413.0"/>
      <point x="1034.0" y="615.0" type="curve"/>
      <point x="1123.0" y="518.0" type="line"/>
      <point x="937.0" y="518.0" type="line" smooth="yes"/>
      <point x="800.0" y="518.0"/>
      <point x="754.0" y="548.0"/>
    </contour>
  </outline>
</glyph>
<glyph name="H" format="2">
  <advance height="1872" width="1379"/>
  <unicode hex="0048"/>
  <anchor x="585.0" y="0.0" name="bottom"/>
  <anchor x="907.0" y="1400.0" name="top"/>
  <outline>
    <contour>
      <point x="1264.0" y="1430.0" type="curve" smooth="yes"/>
      <point x="1274.0" y="1430.0" type="line" smooth="yes"/>
      <point x="1431.0" y="1430.0"/>
      <point x="1500.0" y="1337.0"/>
      <point x="1461.0" y="1170.0" type="curve" smooth="yes"/>
      <point x="1244.0" y="230.0" type="line" smooth="yes"/>
      <point x="1205.0" y="63.0"/>
      <point x="1124.0" y="-30.0"/>
      <point x="967.0" y="-30.0" type="curve" smooth="yes"/>
      <point x="957.0" y="-30.0" type="line" smooth="yes"/>
      <point x="800.0" y="-30.0"/>
      <point x="728.0" y="63.0"/>
      <point x="767.0" y="230.0" type="curve" smooth="yes"/>
      <point x="839.0" y="540.0" type="line"/>
      <point x="551.0" y="540.0" type="line"/>
      <point x="479.0" y="230.0" type="line" smooth="yes"/>
      <point x="440.0" y="63.0"/>
      <point x="358.0" y="-30.0"/>
      <point x="201.0" y="-30.0" type="curve" smooth="yes"/>
      <point x="191.0" y="-30.0" type="line" smooth="yes"/>
      <point x="34.0" y="-30.0"/>
      <point x="-38.0" y="63.0"/>
      <point x="1.0" y="230.0" type="curve" smooth="yes"/>
      <point x="218.0" y="1170.0" type="line" smooth="yes"/>
      <point x="257.0" y="1337.0"/>
      <point x="351.0" y="1430.0"/>
      <point x="508.0" y="1430.0" type="curve" smooth="yes"/>
      <point x="518.0" y="1430.0" type="line" smooth="yes"/>
      <point x="675.0" y="1430.0"/>
      <point x="735.0" y="1337.0"/>
      <point x="696.0" y="1170.0" type="curve" smooth="yes"/>
      <point x="631.0" y="890.0" type="line"/>
      <point x="919.0" y="890.0" type="line"/>
      <point x="984.0" y="1170.0" type="line" smooth="yes"/>
      <point x="1023.0" y="1337.0"/>
      <point x="1107.0" y="1430.0"/>
    </contour>
  </outline>
</glyph>
<glyph name="I" format="2">
  <advance height="1872" width="614"/>
  <unicode hex="0049"/>
  <anchor x="200.0" y="0.0" name="bottom"/>
  <anchor x="200.0" y="0.0" name="ogonek"/>
  <anchor x="522.0" y="1400.0" name="top"/>
  <outline>
    <contour>
      <point x="498.0" y="1430.0" type="curve" smooth="yes"/>
      <point x="508.0" y="1430.0" type="line" smooth="yes"/>
      <point x="655.0" y="1430.0"/>
      <point x="737.0" y="1347.0"/>
      <point x="696.0" y="1170.0" type="curve" smooth="yes"/>
      <point x="479.0" y="230.0" type="line" smooth="yes"/>
      <point x="438.0" y="53.0"/>
      <point x="358.0" y="-30.0"/>
      <point x="211.0" y="-30.0" type="curve" smooth="yes"/>
      <point x="201.0" y="-30.0" type="line" smooth="yes"/>
      <point x="54.0" y="-30.0"/>
      <point x="-40.0" y="53.0"/>
      <point x="1.0" y="230.0" type="curve" smooth="yes"/>
      <point x="218.0" y="1170.0" type="line" smooth="yes"/>
      <point x="259.0" y="1347.0"/>
      <point x="351.0" y="1430.0"/>
    </contour>
  </outline>
</glyph>
<glyph name="J" format="2">
  <advance height="1872" width="1084"/>
  <unicode hex="004A"/>
  <anchor x="337.0" y="0.0" name="bottom"/>
  <anchor x="1059.0" y="1400.0" name="top"/>
  <outline>
    <contour>
      <point x="931.0" y="1430.0" type="curve" smooth="yes"/>
      <point x="939.0" y="1430.0" type="line" smooth="yes"/>
      <point x="1096.0" y="1430.0"/>
      <point x="1209.03534768" y="1358.00101145"/>
      <point x="1168.0" y="1180.0" type="curve" smooth="yes"/>
      <point x="1017.0" y="525.0" type="line" smooth="yes"/>
      <point x="930.0" y="149.0"/>
      <point x="804.0" y="-34.0"/>
      <point x="391.0" y="-34.0" type="curve" smooth="yes"/>
      <point x="46.0" y="-34.0"/>
      <point x="-69.6826171875" y="164.5390625"/>
      <point x="48.0" y="466.0" type="curve" smooth="yes"/>
      <point x="70.0" y="523.0" type="line" smooth="yes"/>
      <point x="116.280739352" y="642.90918832"/>
      <point x="185.0" y="693.0"/>
      <point x="272.0" y="693.0" type="curve" smooth="yes"/>
      <point x="277.0" y="693.0" type="line" smooth="yes"/>
      <point x="384.0" y="693.0"/>
      <point x="429.935019455" y="624.260311284"/>
      <point x="389.0" y="523.0" type="curve" smooth="yes"/>
      <point x="370.0" y="476.0" type="line" smooth="yes"/>
      <point x="327.831427" y="370.875529282"/>
      <point x="350.0" y="317.0"/>
      <point x="410.0" y="317.0" type="curve" smooth="yes"/>
      <point x="471.0" y="317.0"/>
      <point x="491.0" y="359.0"/>
      <point x="522.0" y="495.0" type="curve" smooth="yes"/>
      <point x="680.0" y="1180.0" type="line" smooth="yes"/>
      <point x="721.055017412" y="1357.99168941"/>
      <point x="824.0" y="1430.0"/>
    </contour>
  </outline>
</glyph>
<glyph name="K" format="2">
  <advance height="1872" width="1418"/>
  <unicode hex="004B"/>
  <anchor x="525.0" y="0.0" name="bottom"/>
  <anchor x="847.0" y="1400.0" name="top"/>
  <outline>
    <contour>
      <point x="496.0" y="1430.0" type="curve" smooth="yes"/>
      <point x="506.0" y="1430.0" type="line" smooth="yes"/>
      <point x="653.0" y="1430.0"/>
      <point x="737.0" y="1347.0"/>
      <point x="696.0" y="1170.0" type="curve" smooth="yes"/>
      <point x="479.0" y="230.0" type="line" smooth="yes"/>
      <point x="438.0" y="53.0"/>
      <point x="346.0" y="-30.0"/>
      <point x="199.0" y="-30.0" type="curve" smooth="yes"/>
      <point x="189.0" y="-30.0" type="line" smooth="yes"/>
      <point x="42.0" y="-30.0"/>
      <point x="-40.0" y="53.0"/>
      <point x="1.0" y="230.0" type="curve" smooth="yes"/>
      <point x="218.0" y="1170.0" type="line" smooth="yes"/>
      <point x="259.0" y="1347.0"/>
      <point x="349.0" y="1430.0"/>
    </contour>
    <contour>
      <point x="581.0" y="714.0" type="line"/>
      <point x="969.0" y="956.0" type="line"/>
      <point x="1253.0" y="316.0" type="line" smooth="yes"/>
      <point x="1336.0" y="139.0"/>
      <point x="1196.0" y="-30.0"/>
      <point x="1039.0" y="-30.0" type="curve" smooth="yes"/>
      <point x="1029.0" y="-30.0" type="line" smooth="yes"/>
      <point x="872.0" y="-30.0"/>
      <point x="793.0" y="63.0"/>
      <point x="750.0" y="190.0" type="curve" smooth="yes"/>
    </contour>
    <contour>
      <point x="1044.0" y="1270.0" type="line" smooth="yes"/>
      <point x="1120.8176" y="1341.1968"/>
      <point x="1191.0" y="1430.0"/>
      <point x="1306.0" y="1430.0" type="curve" smooth="yes"/>
      <point x="1320.0" y="1430.0" type="line" smooth="yes"/>
      <point x="1483.0" y="1430.0"/>
      <point x="1526.17355618" y="1268.68236845"/>
      <point x="1373.0" y="1137.0" type="curve" smooth="yes"/>
      <point x="981.0" y="800.0" type="line"/>
      <point x="788.0" y="639.0" type="line"/>
      <point x="495.0" y="384.0" type="line"/>
      <point x="224.0" y="510.0" type="line"/>
    </contour>
  </outline>
</glyph>
<glyph name="L" format="2">
  <advance height="1872" width="1101"/>
  <unicode hex="004C"/>
  <anchor x="525.0" y="0.0" name="bottom"/>
  <anchor x="487.0" y="1400.0" name="top"/>
  <outline>
    <contour>
      <point x="488.0" y="1430.0" type="curve" smooth="yes"/>
      <point x="498.0" y="1430.0" type="line" smooth="yes"/>
      <point x="645.0" y="1430.0"/>
      <point x="737.0" y="1347.0"/>
      <point x="694.0" y="1160.0" type="curve" smooth="yes"/>
      <point x="505.0" y="341.0" type="line"/>
      <point x="828.0" y="341.0" type="line" smooth="yes"/>
      <point x="1005.0" y="341.0"/>
      <point x="1080.0" y="287.0"/>
      <point x="1080.0" y="180.0" type="curve" smooth="yes"/>
      <point x="1080.0" y="170.0" type="line" smooth="yes"/>
      <point x="1080.0" y="63.0"/>
      <point x="1007.0" y="0.0"/>
      <point x="830.0" y="0.0" type="curve" smooth="yes"/>
      <point x="228.0" y="0.0" type="line" smooth="yes"/>
      <point x="41.0" y="0.0"/>
      <point x="-30.0" y="93.0"/>
      <point x="13.0" y="280.0" type="curve" smooth="yes"/>
      <point x="216.0" y="1160.0" type="line" smooth="yes"/>
      <point x="259.0" y="1347.0"/>
      <point x="341.0" y="1430.0"/>
    </contour>
  </outline>
</glyph>
<glyph name="M" format="2">
  <advance height="1872" width="1789"/>
  <unicode hex="004D"/>
  <anchor x="745.0" y="0.0" name="bottom"/>
  <anchor x="1067.0" y="1400.0" name="top"/>
  <outline>
    <contour>
      <point x="465.0" y="844.0" type="line"/>
      <point x="314.0" y="190.0" type="line" smooth="yes"/>
      <point x="280.0" y="43.0"/>
      <point x="199.0" y="-30.0"/>
      <point x="102.0" y="-30.0" type="curve" smooth="yes"/>
      <point x="92.0" y="-30.0" type="line" smooth="yes"/>
      <point x="-5.0" y="-30.0"/>
      <point x="-61.0" y="43.0"/>
      <point x="-27.0" y="190.0" type="curve" smooth="yes"/>
      <point x="194.0" y="1150.0" type="line" smooth="yes"/>
      <point x="233.0" y="1317.0"/>
      <point x="358.0" y="1410.0"/>
      <point x="565.0" y="1410.0" type="curve" smooth="yes"/>
      <point x="585.0" y="1410.0" type="line" smooth="yes"/>
      <point x="802.0" y="1410.0"/>
      <point x="863.0" y="1326.0"/>
      <point x="880.0" y="1158.0" type="curve" smooth="yes"/>
      <point x="924.0" y="687.0" type="line"/>
      <point x="1193.0" y="1140.0" type="line" smooth="yes"/>
      <point x="1309.0" y="1331.0"/>
      <point x="1429.0" y="1415.0"/>
      <point x="1596.0" y="1415.0" type="curve" smooth="yes"/>
      <point x="1656.0" y="1415.0" type="line" smooth="yes"/>
      <point x="1843.0" y="1415.0"/>
      <point x="1905.0" y="1317.0"/>
      <point x="1869.0" y="1160.0" type="curve" smooth="yes"/>
      <point x="1654.0" y="230.0" type="line" smooth="yes"/>
      <point x="1615.0" y="63.0"/>
      <point x="1511.0" y="-30.0"/>
      <point x="1364.0" y="-30.0" type="curve" smooth="yes"/>
      <point x="1354.0" y="-30.0" type="line" smooth="yes"/>
      <point x="1207.0" y="-30.0"/>
      <point x="1156.0" y="63.0"/>
      <point x="1195.0" y="230.0" type="curve" smooth="yes"/>
      <point x="1337.0" y="844.0" type="line"/>
      <point x="973.0" y="210.0" type="line" smooth="yes"/>
      <point x="895.0" y="79.0"/>
      <point x="847.0" y="9.0"/>
      <point x="730.0" y="9.0" type="curve" smooth="yes"/>
      <point x="728.0" y="9.0" type="line" smooth="yes"/>
      <point x="614.0" y="9.0"/>
      <point x="569.0" y="81.0"/>
      <point x="550.0" y="210.0" type="curve" smooth="yes"/>
    </contour>
  </outline>
</glyph>
<glyph name="N" format="2">
  <advance height="1872" width="1340"/>
  <unicode hex="004E"/>
  <anchor x="565.0" y="0.0" name="bottom"/>
  <anchor x="897.0" y="1400.0" name="top"/>
  <outline>
    <contour>
      <point x="1289.0" y="1430.0" type="curve" smooth="yes"/>
      <point x="1299.0" y="1430.0" type="line" smooth="yes"/>
      <point x="1446.0" y="1430.0"/>
      <point x="1483.0" y="1347.0"/>
      <point x="1447.0" y="1190.0" type="curve" smooth="yes"/>
      <point x="1211.0" y="170.0" type="line" smooth="yes"/>
      <point x="1177.0" y="23.0"/>
      <point x="1092.0" y="-30.0"/>
      <point x="970.0" y="-30.0" type="curve" smooth="yes"/>
      <point x="903.0" y="-30.0" type="line" smooth="yes"/>
      <point x="766.0" y="-30.0"/>
      <point x="667.0" y="50.0"/>
      <point x="641.0" y="180.0" type="curve" smooth="yes"/>
      <point x="487.0" y="957.0" type="line"/>
      <point x="511.0" y="957.0" type="line"/>
      <point x="343.0" y="230.0" type="line" smooth="yes"/>
      <point x="304.0" y="63.0"/>
      <point x="259.0" y="-30.0"/>
      <point x="112.0" y="-30.0" type="curve" smooth="yes"/>
      <point x="102.0" y="-30.0" type="line" smooth="yes"/>
      <point x="-45.0" y="-30.0"/>
      <point x="-57.0" y="63.0"/>
      <point x="-18.0" y="230.0" type="curve" smooth="yes"/>
      <point x="194.0" y="1150.0" type="line" smooth="yes"/>
      <point x="235.0" y="1327.0"/>
      <point x="360.0" y="1420.0"/>
      <point x="517.0" y="1420.0" type="curve" smooth="yes"/>
      <point x="627.0" y="1420.0" type="line" smooth="yes"/>
      <point x="800.0" y="1420.0"/>
      <point x="859.0" y="1342.0"/>
      <point x="882.0" y="1160.0" type="curve" smooth="yes"/>
      <point x="970.0" y="594.0" type="line"/>
      <point x="948.0" y="594.0" type="line"/>
      <point x="1086.0" y="1190.0" type="line" smooth="yes"/>
      <point x="1122.0" y="1347.0"/>
      <point x="1142.0" y="1430.0"/>
    </contour>
  </outline>
</glyph>
<glyph name="P" format="2">
  <advance height="1872" width="1292"/>
  <unicode hex="0050"/>
  <anchor x="155.0" y="0.0" name="bottom"/>
  <anchor x="827.0" y="1400.0" name="top"/>
  <outline>
    <contour>
      <point x="670.0" y="1059.0" type="line"/>
      <point x="599.0" y="749.0" type="line"/>
      <point x="704.0" y="749.0" type="line" smooth="yes"/>
      <point x="821.0" y="749.0"/>
      <point x="865.0" y="798.0"/>
      <point x="886.0" y="888.0" type="curve" smooth="yes"/>
      <point x="892.0" y="912.0" type="line" smooth="yes"/>
      <point x="913.0" y="1002.0"/>
      <point x="897.0" y="1059.0"/>
      <point x="780.0" y="1059.0" type="curve" smooth="yes"/>
    </contour>
    <contour>
      <point x="901.0" y="1400.0" type="line" smooth="yes"/>
      <point x="1288.0" y="1400.0"/>
      <point x="1408.0" y="1252.0"/>
      <point x="1346.0" y="982.0" type="curve" smooth="yes"/>
      <point x="1331.0" y="918.0" type="line" smooth="yes"/>
      <point x="1269.0" y="648.0"/>
      <point x="1077.0" y="505.0"/>
      <point x="690.0" y="505.0" type="curve" smooth="yes"/>
      <point x="543.0" y="505.0" type="line"/>
      <point x="479.0" y="230.0" type="line" smooth="yes"/>
      <point x="440.0" y="63.0"/>
      <point x="338.0" y="-30.0"/>
      <point x="191.0" y="-30.0" type="curve" smooth="yes"/>
      <point x="181.0" y="-30.0" type="line" smooth="yes"/>
      <point x="34.0" y="-30.0"/>
      <point x="-38.0" y="63.0"/>
      <point x="1.0" y="230.0" type="curve" smooth="yes"/>
      <point x="204.0" y="1110.0" type="line" smooth="yes"/>
      <point x="247.0" y="1297.0"/>
      <point x="374.0" y="1400.0"/>
      <point x="561.0" y="1400.0" type="curve" smooth="yes"/>
    </contour>
  </outline>
</glyph>
<glyph name="Q" format="2">
  <advance height="1872" width="1610"/>
  <unicode hex="0051"/>
  <anchor x="645.0" y="0.0" name="bottom"/>
  <anchor x="967.0" y="1400.0" name="top"/>
  <outline>
    <contour>
      <point x="1562.0" y="216.0" type="curve" smooth="yes"/>
      <point x="1561.0" y="210.0" type="line" smooth="yes"/>
      <point x="1537.94594595" y="71.6756756757"/>
      <point x="1448.94264991" y="12.518548115"/>
      <point x="1311.0" y="-3.0" type="curve" smooth="yes"/>
      <point x="1151.0" y="-21.0"/>
      <point x="1024.0" y="84.0"/>
      <point x="1085.0" y="349.0" type="curve"/>
      <point x="1244.0" y="573.0" type="line"/>
      <point x="1165.0" y="232.0"/>
      <point x="1056.0" y="-34.0"/>
      <point x="593.0" y="-34.0" type="curve" smooth="yes"/>
      <point x="129.0" y="-34.0"/>
      <point x="6.0" y="252.0"/>
      <point x="85.0" y="593.0" type="curve" smooth="yes"/>
      <point x="135.0" y="808.0" type="line" smooth="yes"/>
      <point x="214.0" y="1149.0"/>
      <point x="478.0" y="1434.0"/>
      <point x="953.0" y="1434.0" type="curve" smooth="yes"/>
      <point x="1428.0" y="1434.0"/>
      <point x="1561.94569434" y="1149.01241272"/>
      <point x="1484.0" y="808.0" type="curve" smooth="yes"/>
      <point x="1436.0" y="598.0" type="line" smooth="yes"/>
      <point x="1410.0" y="484.0"/>
      <point x="1444.87944819" y="449.530137953"/>
      <point x="1483.0" y="440.0" type="curve" smooth="yes"/>
      <point x="1579.0" y="416.0"/>
      <point x="1584.18918919" y="349.135135135"/>
    </contour>
    <contour>
      <point x="946.0" y="591.0" type="curve" smooth="yes"/>
      <point x="997.0" y="810.0" type="line" smooth="yes"/>
      <point x="1035.0" y="975.0"/>
      <point x="1028.0" y="1103.0"/>
      <point x="877.0" y="1103.0" type="curve" smooth="yes"/>
      <point x="726.0" y="1103.0"/>
      <point x="660.0" y="975.0"/>
      <point x="622.0" y="810.0" type="curve" smooth="yes"/>
      <point x="571.0" y="591.0" type="line" smooth="yes"/>
      <point x="531.0" y="417.0"/>
      <point x="540.0" y="297.0"/>
      <point x="691.0" y="297.0" type="curve" smooth="yes"/>
      <point x="842.0" y="297.0"/>
      <point x="906.0" y="417.0"/>
    </contour>
  </outline>
</glyph>
<glyph name="R" format="2">
  <advance height="1872" width="1371"/>
  <unicode hex="0052"/>
  <anchor x="555.0" y="0.0" name="bottom"/>
  <anchor x="877.0" y="1400.0" name="top"/>
  <outline>
    <contour>
      <point x="670.0" y="1059.0" type="line"/>
      <point x="597.0" y="739.0" type="line"/>
      <point x="694.0" y="739.0" type="line" smooth="yes"/>
      <point x="821.0" y="739.0"/>
      <point x="854.529411765" y="803.117647059"/>
      <point x="877.0" y="893.0" type="curve" smooth="yes"/>
      <point x="878.0" y="897.0" type="line" smooth="yes"/>
      <point x="898.117647059" y="977.470588235"/>
      <point x="895.0" y="1059.0"/>
      <point x="768.0" y="1059.0" type="curve" smooth="yes"/>
    </contour>
    <contour>
      <point x="940.0" y="1400.0" type="line" smooth="yes"/>
      <point x="1347.0" y="1400.0"/>
      <point x="1439.0" y="1212.0"/>
      <point x="1386.0" y="982.0" type="curve" smooth="yes"/>
      <point x="1380.0" y="958.0" type="line" smooth="yes"/>
      <point x="1325.0" y="718.0"/>
      <point x="1080.0" y="583.0"/>
      <point x="753.0" y="583.0" type="curve"/>
      <point x="766.0" y="642.0" type="line"/>
      <point x="1123.0" y="642.0"/>
      <point x="1309.0" y="612.0"/>
      <point x="1254.0" y="372.0" type="curve" smooth="yes"/>
      <point x="1251.0" y="358.0" type="line" smooth="yes"/>
      <point x="1239.0" y="304.0"/>
      <point x="1241.0" y="260.0"/>
      <point x="1244.0" y="228.0" type="curve" smooth="yes"/>
      <point x="1246.0" y="202.0"/>
      <point x="1252.0" y="156.0"/>
      <point x="1240.0" y="103.0" type="curve" smooth="yes"/>
      <point x="1239.0" y="98.0" type="line" smooth="yes"/>
      <point x="1219.0" y="12.0"/>
      <point x="1153.0" y="-30.0"/>
      <point x="1006.0" y="-30.0" type="curve" smooth="yes"/>
      <point x="976.0" y="-30.0" type="line" smooth="yes"/>
      <point x="824.0" y="-30.0"/>
      <point x="742.0" y="1.0"/>
      <point x="733.0" y="139.0" type="curve" smooth="yes"/>
      <point x="730.0" y="193.0"/>
      <point x="727.0" y="241.0"/>
      <point x="747.0" y="328.0" type="curve" smooth="yes"/>
      <point x="757.0" y="372.0" type="line" smooth="yes"/>
      <point x="775.0" y="452.0"/>
      <point x="766.0" y="495.0"/>
      <point x="659.0" y="495.0" type="curve" smooth="yes"/>
      <point x="540.0" y="495.0" type="line"/>
      <point x="481.0" y="240.0" type="line" smooth="yes"/>
      <point x="440.0" y="63.0"/>
      <point x="348.0" y="-30.0"/>
      <point x="191.0" y="-30.0" type="curve" smooth="yes"/>
      <point x="181.0" y="-30.0" type="line" smooth="yes"/>
      <point x="24.0" y="-30.0"/>
      <point x="-38.0" y="63.0"/>
      <point x="3.0" y="240.0" type="curve" smooth="yes"/>
      <point x="200.0" y="1090.0" type="line" smooth="yes"/>
      <point x="248.0" y="1297.0"/>
      <point x="374.0" y="1400.0"/>
      <point x="581.0" y="1400.0" type="curve" smooth="yes"/>
    </contour>
  </outline>
</glyph>
<glyph name="S" format="2">
  <advance height="1872" width="1315"/>
  <unicode hex="0053"/>
  <anchor x="534.0" y="0.0" name="bottom"/>
  <anchor x="856.0" y="1400.0" name="top"/>
  <outline>
    <contour>
      <point x="201.0" y="528.0" type="curve" smooth="yes"/>
      <point x="211.0" y="528.0" type="line" smooth="yes"/>
      <point x="283.0" y="528.0"/>
      <point x="319.0" y="499.0"/>
      <point x="335.0" y="470.0" type="curve" smooth="yes"/>
      <point x="352.0" y="440.0"/>
      <point x="353.0" y="404.0"/>
      <point x="357.0" y="383.0" type="curve" smooth="yes"/>
      <point x="367.0" y="332.0"/>
      <point x="389.0" y="279.0"/>
      <point x="609.0" y="279.0" type="curve" smooth="yes"/>
      <point x="757.0" y="279.0"/>
      <point x="812.151219002" y="322.96341251"/>
      <point x="822.0" y="364.0" type="curve" smooth="yes"/>
      <point x="834.0" y="414.0"/>
      <point x="775.0" y="434.0"/>
      <point x="658.0" y="463.0" type="curve" smooth="yes"/>
      <point x="428.0" y="519.0"/>
      <point x="82.0" y="588.0"/>
      <point x="173.0" y="983.0" type="curve" smooth="yes"/>
      <point x="235.192382812" y="1252.95605469"/>
      <point x="478.0" y="1435.0"/>
      <point x="890.0" y="1435.0" type="curve" smooth="yes"/>
      <point x="1240.0" y="1435.0"/>
      <point x="1371.61723048" y="1249.78153652"/>
      <point x="1346.0" y="1079.0" type="curve" smooth="yes"/>
      <point x="1343.0" y="1059.0" type="line" smooth="yes"/>
      <point x="1326.0" y="992.0"/>
      <point x="1265.0" y="913.0"/>
      <point x="1140.0" y="913.0" type="curve" smooth="yes"/>
      <point x="1130.0" y="913.0" type="line" smooth="yes"/>
      <point x="1030.0" y="913.0"/>
      <point x="995.0" y="957.0"/>
      <point x="993.0" y="1006.0" type="curve" smooth="yes"/>
      <point x="992.0" y="1028.0"/>
      <point x="992.0" y="1035.0"/>
      <point x="988.0" y="1055.0" type="curve" smooth="yes"/>
      <point x="980.0" y="1095.0"/>
      <point x="907.0" y="1142.0"/>
      <point x="801.0" y="1142.0" type="curve" smooth="yes"/>
      <point x="689.0" y="1142.0"/>
      <point x="617.945243147" y="1093.22279343"/>
      <point x="610.0" y="1053.0" type="curve" smooth="yes"/>
      <point x="594.0" y="972.0"/>
      <point x="692.0" y="943.0"/>
      <point x="833.0" y="913.0" type="curve" smooth="yes"/>
      <point x="1066.44824219" y="863.330078125"/>
      <point x="1341.0" y="749.0"/>
      <point x="1268.0" y="428.0" type="curve" smooth="yes"/>
      <point x="1198.1251194" y="120.74196339"/>
      <point x="930.0" y="-35.0"/>
      <point x="491.0" y="-35.0" type="curve" smooth="yes"/>
      <point x="103.0" y="-35.0"/>
      <point x="-64.0" y="145.0"/>
      <point x="-12.0" y="370.0" type="curve" smooth="yes"/>
      <point x="-8.0" y="384.0" type="line" smooth="yes"/>
      <point x="12.0" y="471.0"/>
      <point x="108.0" y="528.0"/>
    </contour>
  </outline>
</glyph>
<glyph name="T" format="2">
  <advance height="1872" width="1309"/>
  <unicode hex="0054"/>
  <anchor x="515.0" y="0.0" name="bottom"/>
  <anchor x="877.0" y="1400.0" name="top"/>
  <outline>
    <contour>
      <point x="389.0" y="1400.0" type="curve" smooth="yes"/>
      <point x="1239.0" y="1400.0" type="line" smooth="yes"/>
      <point x="1416.0" y="1400.0"/>
      <point x="1489.0" y="1337.0"/>
      <point x="1489.0" y="1230.0" type="curve" smooth="yes"/>
      <point x="1489.0" y="1220.0" type="line" smooth="yes"/>
      <point x="1489.0" y="1113.0"/>
      <point x="1416.0" y="1050.0"/>
      <point x="1239.0" y="1050.0" type="curve" smooth="yes"/>
      <point x="1016.0" y="1050.0" type="line"/>
      <point x="827.0" y="230.0" type="line" smooth="yes"/>
      <point x="786.0" y="53.0"/>
      <point x="696.0" y="-30.0"/>
      <point x="549.0" y="-30.0" type="curve" smooth="yes"/>
      <point x="539.0" y="-30.0" type="line" smooth="yes"/>
      <point x="392.0" y="-30.0"/>
      <point x="308.0" y="53.0"/>
      <point x="349.0" y="230.0" type="curve" smooth="yes"/>
      <point x="538.0" y="1050.0" type="line"/>
      <point x="389.0" y="1050.0" type="line" smooth="yes"/>
      <point x="212.0" y="1050.0"/>
      <point x="139.0" y="1113.0"/>
      <point x="139.0" y="1220.0" type="curve" smooth="yes"/>
      <point x="139.0" y="1230.0" type="line" smooth="yes"/>
      <point x="139.0" y="1337.0"/>
      <point x="212.0" y="1400.0"/>
    </contour>
  </outline>
</glyph>
<glyph name="U" format="2">
  <advance height="1872" width="1329"/>
  <unicode hex="0055"/>
  <anchor x="580.0" y="0.0" name="bottom"/>
  <anchor x="675.0" y="0.0" name="ogonek"/>
  <anchor x="902.0" y="1400.0" name="top"/>
  <outline>
    <contour>
      <point x="935.0" y="588.0" type="curve" smooth="yes"/>
      <point x="1069.0" y="1170.0" type="line" smooth="yes"/>
      <point x="1110.0" y="1347.0"/>
      <point x="1157.0" y="1430.0"/>
      <point x="1274.0" y="1430.0" type="curve" smooth="yes"/>
      <point x="1276.0" y="1430.0" type="line" smooth="yes"/>
      <point x="1393.0" y="1430.0"/>
      <point x="1471.0" y="1347.0"/>
      <point x="1430.0" y="1170.0" type="curve" smooth="yes"/>
      <point x="1275.0" y="498.0" type="line" smooth="yes"/>
      <point x="1198.0" y="178.0"/>
      <point x="1114.0" y="-35.0"/>
      <point x="617.0" y="-35.0" type="curve" smooth="yes"/>
      <point x="80.0" y="-35.0"/>
      <point x="-14.0" y="208.0"/>
      <point x="74.0" y="588.0" type="curve" smooth="yes"/>
      <point x="208.0" y="1170.0" type="line" smooth="yes"/>
      <point x="249.0" y="1347.0"/>
      <point x="346.0" y="1430.0"/>
      <point x="493.0" y="1430.0" type="curve" smooth="yes"/>
      <point x="503.0" y="1430.0" type="line" smooth="yes"/>
      <point x="650.0" y="1430.0"/>
      <point x="737.0" y="1347.0"/>
      <point x="696.0" y="1170.0" type="curve" smooth="yes"/>
      <point x="578.0" y="658.0" type="line" smooth="yes"/>
      <point x="520.0" y="408.0"/>
      <point x="524.0" y="297.0"/>
      <point x="691.0" y="297.0" type="curve" smooth="yes"/>
      <point x="818.0" y="297.0"/>
      <point x="887.0" y="378.0"/>
    </contour>
  </outline>
</glyph>
<glyph name="V" format="2">
  <advance height="1872" width="1400"/>
  <unicode hex="0056"/>
  <anchor x="662.0" y="0.0" name="bottom"/>
  <anchor x="954.0" y="1400.0" name="top"/>
  <outline>
    <contour>
      <point x="707.0" y="416.0" type="line"/>
      <point x="1096.0" y="1155.0" type="line" smooth="yes"/>
      <point x="1203.0" y="1355.0"/>
      <point x="1247.0" y="1435.0"/>
      <point x="1377.0" y="1435.0" type="curve" smooth="yes"/>
      <point x="1387.0" y="1435.0" type="line" smooth="yes"/>
      <point x="1527.0" y="1435.0"/>
      <point x="1590.0" y="1332.0"/>
      <point x="1488.0" y="1155.0" type="curve" smooth="yes"/>
      <point x="981.0" y="260.0" type="line" smooth="yes"/>
      <point x="880.554895026" y="82.6856628175"/>
      <point x="782.0" y="0.0"/>
      <point x="592.0" y="0.0" type="curve" smooth="yes"/>
      <point x="582.0" y="0.0" type="line" smooth="yes"/>
      <point x="392.0" y="0.0"/>
      <point x="315.29198684" y="83.8129773299"/>
      <point x="296.0" y="260.0" type="curve" smooth="yes"/>
      <point x="198.0" y="1155.0" type="line" smooth="yes"/>
      <point x="178.0" y="1314.0"/>
      <point x="254.0" y="1435.0"/>
      <point x="424.0" y="1435.0" type="curve" smooth="yes"/>
      <point x="434.0" y="1435.0" type="line" smooth="yes"/>
      <point x="594.0" y="1435.0"/>
      <point x="636.0" y="1317.0"/>
      <point x="651.0" y="1155.0" type="curve" smooth="yes"/>
    </contour>
  </outline>
</glyph>
<glyph name="W" format="2">
  <advance height="1872" width="1783"/>
  <unicode hex="0057"/>
  <anchor x="813.0" y="0.0" name="bottom"/>
  <anchor x="1135.0" y="1400.0" name="top"/>
  <outline>
    <contour>
      <point x="599.0" y="680.0" type="line"/>
      <point x="869.0" y="1220.0" type="line" smooth="yes"/>
      <point x="937.2" y="1356.4"/>
      <point x="1044.0" y="1430.0"/>
      <point x="1141.0" y="1430.0" type="curve" smooth="yes"/>
      <point x="1161.0" y="1430.0" type="line" smooth="yes"/>
      <point x="1298.0" y="1430.0"/>
      <point x="1323.41777722" y="1328.0199293"/>
      <point x="1329.0" y="1211.0" type="curve" smooth="yes"/>
      <point x="1356.0" y="645.0" type="line"/>
      <point x="1579.0" y="1170.0" type="line" smooth="yes"/>
      <point x="1656.0" y="1349.0"/>
      <point x="1731.0" y="1430.0"/>
      <point x="1838.0" y="1430.0" type="curve" smooth="yes"/>
      <point x="1843.0" y="1430.0" type="line" smooth="yes"/>
      <point x="1970.0" y="1430.0"/>
      <point x="2019.0" y="1336.0"/>
      <point x="1937.0" y="1160.0" type="curve" smooth="yes"/>
      <point x="1507.0" y="230.0" type="line" smooth="yes"/>
      <point x="1429.0" y="62.0"/>
      <point x="1341.0" y="-30.0"/>
      <point x="1184.0" y="-30.0" type="curve" smooth="yes"/>
      <point x="1174.0" y="-30.0" type="line" smooth="yes"/>
      <point x="1017.0" y="-30.0"/>
      <point x="941.0" y="71.0"/>
      <point x="930.0" y="235.0" type="curve" smooth="yes"/>
      <point x="908.0" y="656.0" type="line"/>
      <point x="678.0" y="230.0" type="line" smooth="yes"/>
      <point x="593.0" y="78.0"/>
      <point x="521.0" y="-30.0"/>
      <point x="374.0" y="-30.0" type="curve" smooth="yes"/>
      <point x="339.0" y="-30.0" type="line" smooth="yes"/>
      <point x="192.0" y="-30.0"/>
      <point x="150.0" y="61.0"/>
      <point x="150.0" y="230.0" type="curve" smooth="yes"/>
      <point x="156.0" y="1160.0" type="line" smooth="yes"/>
      <point x="156.0" y="1326.0"/>
      <point x="284.0" y="1430.0"/>
      <point x="431.0" y="1430.0" type="curve" smooth="yes"/>
      <point x="436.0" y="1430.0" type="line" smooth="yes"/>
      <point x="593.0" y="1430.0"/>
      <point x="635.560725828" y="1329.96845917"/>
      <point x="626.0" y="1160.0" type="curve" smooth="yes"/>
    </contour>
  </outline>
</glyph>
<glyph name="X" format="2">
  <advance height="1872" width="1392"/>
  <unicode hex="0058"/>
  <anchor x="612.0" y="0.0" name="bottom"/>
  <anchor x="934.0" y="1400.0" name="top"/>
  <outline>
    <contour>
      <point x="1244.0" y="1430.0" type="curve" smooth="yes"/>
      <point x="1249.0" y="1430.0" type="line" smooth="yes"/>
      <point x="1400.0" y="1430.0"/>
      <point x="1521.68011745" y="1324.33099946"/>
      <point x="1374.0" y="1161.0" type="curve" smooth="yes"/>
      <point x="1006.0" y="754.0" type="line"/>
      <point x="1167.0" y="360.0" type="line" smooth="yes"/>
      <point x="1255.42968584" y="143.594433411"/>
      <point x="1147.0" y="-30.0"/>
      <point x="970.0" y="-30.0" type="curve" smooth="yes"/>
      <point x="965.0" y="-30.0" type="line" smooth="yes"/>
      <point x="798.0" y="-30.0"/>
      <point x="692.448722986" y="79.3343811395"/>
      <point x="658.0" y="220.0" type="curve" smooth="yes"/>
      <point x="622.0" y="367.0" type="line"/>
      <point x="510.0" y="230.0" type="line" smooth="yes"/>
      <point x="383.753648644" y="75.5736595024"/>
      <point x="239.0" y="-69.0"/>
      <point x="92.0" y="-69.0" type="curve" smooth="yes"/>
      <point x="87.0" y="-69.0" type="line" smooth="yes"/>
      <point x="-60.0" y="-69.0"/>
      <point x="-105.0" y="71.0"/>
      <point x="41.0" y="205.0" type="curve" smooth="yes"/>
      <point x="494.0" y="660.0" type="line"/>
      <point x="334.0" y="1051.0" type="line" smooth="yes"/>
      <point x="248.980306027" y="1258.76687715"/>
      <point x="370.0" y="1430.0"/>
      <point x="547.0" y="1430.0" type="curve" smooth="yes"/>
      <point x="572.0" y="1430.0" type="line" smooth="yes"/>
      <point x="705.0" y="1430.0"/>
      <point x="817.501429752" y="1333.35909004"/>
      <point x="841.0" y="1180.0" type="curve" smooth="yes"/>
      <point x="860.0" y="1056.0" type="line"/>
      <point x="962.0" y="1199.0" type="line" smooth="yes"/>
      <point x="1051.57274819" y="1324.57748031"/>
      <point x="1097.0" y="1430.0"/>
    </contour>
  </outline>
</glyph>
<glyph name="Y" format="2">
  <advance height="1872" width="1447"/>
  <unicode hex="0059"/>
  <anchor x="630.0" y="0.0" name="bottom"/>
  <anchor x="982.0" y="1400.0" name="top"/>
  <outline>
    <contour>
      <point x="1369.0" y="1430.0" type="curve" smooth="yes"/>
      <point x="1371.0" y="1430.0" type="line" smooth="yes"/>
      <point x="1508.0" y="1430.0"/>
      <point x="1596.94205809" y="1326.70602762"/>
      <point x="1470.0" y="1170.0" type="curve" smooth="yes"/>
      <point x="971.0" y="554.0" type="line"/>
      <point x="898.0" y="239.0" type="line" smooth="yes"/>
      <point x="857.0" y="62.0"/>
      <point x="755.0" y="-30.0"/>
      <point x="608.0" y="-30.0" type="curve" smooth="yes"/>
      <point x="598.0" y="-30.0" type="line" smooth="yes"/>
      <point x="451.0" y="-30.0"/>
      <point x="379.0" y="63.0"/>
      <point x="420.0" y="240.0" type="curve" smooth="yes"/>
      <point x="493.0" y="554.0" type="line"/>
      <point x="292.0" y="1132.0" type="line" smooth="yes"/>
      <point x="234.135981414" y="1298.39503852"/>
      <point x="398.0" y="1430.0"/>
      <point x="555.0" y="1430.0" type="curve" smooth="yes"/>
      <point x="570.0" y="1430.0" type="line" smooth="yes"/>
      <point x="707.0" y="1430.0"/>
      <point x="766.986182797" y="1373.26190428"/>
      <point x="813.0" y="1200.0" type="curve" smooth="yes"/>
      <point x="894.0" y="895.0" type="line"/>
      <point x="1115.0" y="1200.0" type="line" smooth="yes"/>
      <point x="1235.26745661" y="1365.97997406"/>
      <point x="1298.0" y="1430.0"/>
    </contour>
  </outline>
</glyph>
<glyph name="Z" format="2">
  <advance height="1872" width="1233"/>
  <unicode hex="005A"/>
  <anchor x="548.0" y="0.0" name="bottom"/>
  <anchor x="870.0" y="1400.0" name="top"/>
  <outline>
    <contour>
      <point x="42.0" y="275.0" type="curve" smooth="yes"/>
      <point x="715.0" y="1059.0" type="line"/>
      <point x="415.0" y="1059.0" type="line" smooth="yes"/>
      <point x="268.0" y="1059.0"/>
      <point x="202.0" y="1123.0"/>
      <point x="224.0" y="1220.0" type="curve" smooth="yes"/>
      <point x="227.0" y="1230.0" type="line" smooth="yes"/>
      <point x="249.0" y="1327.0"/>
      <point x="349.0" y="1400.0"/>
      <point x="496.0" y="1400.0" type="curve" smooth="yes"/>
      <point x="1206.0" y="1400.0" type="line" smooth="yes"/>
      <point x="1393.0" y="1400.0"/>
      <point x="1346.08459675" y="1247.9405045"/>
      <point x="1219.0" y="1100.0" type="curve" smooth="yes"/>
      <point x="567.0" y="341.0" type="line"/>
      <point x="973.0" y="341.0" type="line" smooth="yes"/>
      <point x="1130.0" y="341.0"/>
      <point x="1201.0" y="297.0"/>
      <point x="1174.0" y="180.0" type="curve" smooth="yes"/>
      <point x="1172.0" y="170.0" type="line" smooth="yes"/>
      <point x="1145.0" y="53.0"/>
      <point x="1050.0" y="0.0"/>
      <point x="893.0" y="0.0" type="curve" smooth="yes"/>
      <point x="63.0" y="0.0" type="line" smooth="yes"/>
      <point x="-84.0" y="0.0"/>
      <point x="-86.8678203609" y="124.877605999"/>
    </contour>
  </outline>
</glyph>
<glyph name="bracketleft" format="2">
  <advance height="1920" width="760"/>
  <unicode hex="005B"/>
  <outline>
    <contour>
      <point x="662.0" y="1350.0" type="line"/>
      <point x="325.0" y="-110.0" type="line"/>
      <point x="405.0" y="-110.0" type="line" smooth="yes"/>
      <point x="512.0" y="-110.0"/>
      <point x="589.0" y="-133.0"/>
      <point x="569.0" y="-220.0" type="curve" smooth="yes"/>
      <point x="562.0" y="-250.0" type="line" smooth="yes"/>
      <point x="542.0" y="-337.0"/>
      <point x="454.0" y="-360.0"/>
      <point x="347.0" y="-360.0" type="curve" smooth="yes"/>
      <point x="77.0" y="-360.0" type="line" smooth="yes"/>
      <point x="-80.0" y="-360.0"/>
      <point x="-121.0" y="-307.0"/>
      <point x="-85.0" y="-150.0" type="curve" smooth="yes"/>
      <point x="271.0" y="1390.0" type="line" smooth="yes"/>
      <point x="307.0" y="1547.0"/>
      <point x="372.0" y="1600.0"/>
      <point x="529.0" y="1600.0" type="curve" smooth="yes"/>
      <point x="799.0" y="1600.0" type="line" smooth="yes"/>
      <point x="906.0" y="1600.0"/>
      <point x="984.0" y="1577.0"/>
      <point x="964.0" y="1490.0" type="curve" smooth="yes"/>
      <point x="957.0" y="1460.0" type="line" smooth="yes"/>
      <point x="937.0" y="1373.0"/>
      <point x="849.0" y="1350.0"/>
      <point x="742.0" y="1350.0" type="curve" smooth="yes"/>
    </contour>
  </outline>
</glyph>
<glyph name="backslash" format="2">
  <advance height="2048" width="1040"/>
  <unicode hex="005C"/>
  <outline>
    <contour>
      <point x="843.0" y="110.0" type="line" smooth="yes"/>
      <point x="868.0" y="-26.0"/>
      <point x="782.0" y="-130.0"/>
      <point x="675.0" y="-130.0" type="curve" smooth="yes"/>
      <point x="665.0" y="-130.0" type="line" smooth="yes"/>
      <point x="559.0" y="-130.0"/>
      <point x="508.0" y="-26.0"/>
      <point x="483.0" y="110.0" type="curve" smooth="yes"/>
      <point x="282.0" y="1190.0" type="line" smooth="yes"/>
      <point x="257.0" y="1326.0"/>
      <point x="343.0" y="1430.0"/>
      <point x="450.0" y="1430.0" type="curve" smooth="yes"/>
      <point x="460.0" y="1430.0" type="line" smooth="yes"/>
      <point x="567.0" y="1430.0"/>
      <point x="617.0" y="1326.0"/>
      <point x="642.0" y="1190.0" type="curve" smooth="yes"/>
    </contour>
  </outline>
</glyph>
<glyph name="bracketright" format="2">
  <advance height="1920" width="750"/>
  <unicode hex="005D"/>
  <outline>
    <contour>
      <point x="145.0" y="-110.0" type="line"/>
      <point x="482.0" y="1350.0" type="line"/>
      <point x="402.0" y="1350.0" type="line" smooth="yes"/>
      <point x="295.0" y="1350.0"/>
      <point x="217.0" y="1373.0"/>
      <point x="237.0" y="1460.0" type="curve" smooth="yes"/>
      <point x="244.0" y="1490.0" type="line" smooth="yes"/>
      <point x="264.0" y="1577.0"/>
      <point x="352.0" y="1600.0"/>
      <point x="459.0" y="1600.0" type="curve" smooth="yes"/>
      <point x="729.0" y="1600.0" type="line" smooth="yes"/>
      <point x="886.0" y="1600.0"/>
      <point x="927.0" y="1547.0"/>
      <point x="891.0" y="1390.0" type="curve" smooth="yes"/>
      <point x="535.0" y="-150.0" type="line" smooth="yes"/>
      <point x="499.0" y="-307.0"/>
      <point x="434.0" y="-360.0"/>
      <point x="277.0" y="-360.0" type="curve" smooth="yes"/>
      <point x="7.0" y="-360.0" type="line" smooth="yes"/>
      <point x="-100.0" y="-360.0"/>
      <point x="-178.0" y="-337.0"/>
      <point x="-158.0" y="-250.0" type="curve" smooth="yes"/>
      <point x="-151.0" y="-220.0" type="line" smooth="yes"/>
      <point x="-131.0" y="-133.0"/>
      <point x="-42.0" y="-110.0"/>
      <point x="65.0" y="-110.0" type="curve" smooth="yes"/>
    </contour>
  </outline>
</glyph>
<glyph name="asciicircum" format="2">
  <advance height="1920" width="820"/>
  <unicode hex="005E"/>
  <outline>
    <contour>
      <point x="519.0" y="991.0" type="line"/>
      <point x="472.0" y="890.0" type="line" smooth="yes"/>
      <point x="404.0" y="741.0"/>
      <point x="319.0" y="700.0"/>
      <point x="212.0" y="700.0" type="curve" smooth="yes"/>
      <point x="202.0" y="700.0" type="line" smooth="yes"/>
      <point x="95.0" y="700.0"/>
      <point x="25.0" y="756.0"/>
      <point x="112.0" y="890.0" type="curve" smooth="yes"/>
      <point x="339.0" y="1240.0" type="line" smooth="yes"/>
      <point x="416.0" y="1359.0"/>
      <point x="503.0" y="1430.0"/>
      <point x="610.0" y="1430.0" type="curve" smooth="yes"/>
      <point x="630.0" y="1430.0" type="line" smooth="yes"/>
      <point x="737.0" y="1430.0"/>
      <point x="791.0" y="1359.0"/>
      <point x="813.0" y="1240.0" type="curve" smooth="yes"/>
      <point x="878.0" y="890.0" type="line" smooth="yes"/>
      <point x="903.0" y="756.0"/>
      <point x="814.0" y="700.0"/>
      <point x="702.0" y="700.0" type="curve" smooth="yes"/>
      <point x="692.0" y="700.0" type="line" smooth="yes"/>
      <point x="582.0" y="700.0"/>
      <point x="517.0" y="741.0"/>
      <point x="518.0" y="890.0" type="curve" smooth="yes"/>
    </contour>
  </outline>
</glyph>
<glyph name="underscore" format="2">
  <advance height="1920" width="900"/>
  <unicode hex="005F"/>
  <outline>
    <contour>
      <point x="-190.0" y="-195.0" type="curve" smooth="yes"/>
      <point x="-190.0" y="-160.0" type="line" smooth="yes"/>
      <point x="-190.0" y="-53.0"/>
      <point x="-107.0" y="0.0"/>
      <point x="0.0" y="0.0" type="curve" smooth="yes"/>
      <point x="580.0" y="0.0" type="line" smooth="yes"/>
      <point x="687.0" y="0.0"/>
      <point x="770.0" y="-53.0"/>
      <point x="770.0" y="-160.0" type="curve" smooth="yes"/>
      <point x="770.0" y="-195.0" type="line" smooth="yes"/>
      <point x="770.0" y="-302.0"/>
      <point x="687.0" y="-355.0"/>
      <point x="580.0" y="-355.0" type="curve" smooth="yes"/>
      <point x="0.0" y="-355.0" type="line" smooth="yes"/>
      <point x="-107.0" y="-355.0"/>
      <point x="-190.0" y="-302.0"/>
    </contour>
  </outline>
</glyph>
<glyph name="grave" format="2">
  <advance width="773"/>
  <unicode hex="0060"/>
  <outline>
    <contour>
      <point x="759.0" y="1054.0" type="curve" smooth="yes"/>
      <point x="749.0" y="1054.0" type="line" smooth="yes"/>
      <point x="662.0" y="1054.0"/>
      <point x="568.0" y="1121.0"/>
      <point x="472.0" y="1204.0" type="curve" smooth="yes"/>
      <point x="442.0" y="1230.0" type="line" smooth="yes"/>
      <point x="318.0" y="1339.0"/>
      <point x="454.0" y="1430.0"/>
      <point x="611.0" y="1430.0" type="curve" smooth="yes"/>
      <point x="621.0" y="1430.0" type="line" smooth="yes"/>
      <point x="778.0" y="1430.0"/>
      <point x="836.0" y="1390.0"/>
      <point x="841.0" y="1290.0" type="curve" smooth="yes"/>
      <point x="844.0" y="1214.0" type="line" smooth="yes"/>
      <point x="849.0" y="1105.0"/>
      <point x="816.0" y="1054.0"/>
    </contour>
  </outline>
</glyph>
<glyph name="a" format="2">
  <advance height="1872" width="1273"/>
  <unicode hex="0061"/>
  <anchor x="511.0" y="0.0" name="bottom"/>
  <anchor x="916.0" y="0.0" name="ogonek"/>
  <anchor x="782.0" y="1050.0" name="top"/>
  <outline>
    <contour>
      <point x="691.0" y="408.0" type="line"/>
      <point x="626.0" y="125.0"/>
      <point x="547.0" y="-34.0"/>
      <point x="308.0" y="-34.0" type="curve" smooth="yes"/>
      <point x="59.0" y="-34.0"/>
      <point x="-71.0" y="104.0"/>
      <point x="6.0" y="436.0" type="curve" smooth="yes"/>
      <point x="47.0" y="614.0" type="line" smooth="yes"/>
      <point x="119.0" y="926.0"/>
      <point x="295.0" y="1084.0"/>
      <point x="594.0" y="1084.0" type="curve" smooth="yes"/>
      <point x="863.0" y="1084.0"/>
      <point x="885.0" y="926.0"/>
      <point x="820.0" y="643.0" type="curve"/>
      <point x="721.0" y="575.0" type="line"/>
      <point x="752.0" y="711.0"/>
      <point x="729.0" y="753.0"/>
      <point x="665.0" y="753.0" type="curve" smooth="yes"/>
      <point x="591.0" y="753.0"/>
      <point x="545.0" y="702.0"/>
      <point x="520.0" y="595.0" type="curve" smooth="yes"/>
      <point x="488.0" y="455.0" type="line" smooth="yes"/>
      <point x="463.0" y="348.0"/>
      <point x="486.0" y="297.0"/>
      <point x="560.0" y="297.0" type="curve" smooth="yes"/>
      <point x="624.0" y="297.0"/>
      <point x="673.0" y="368.0"/>
      <point x="698.0" y="475.0" type="curve"/>
    </contour>
    <contour>
      <point x="1228.0" y="162.0" type="curve" smooth="yes"/>
      <point x="1228.0" y="157.0" type="line" smooth="yes"/>
      <point x="1228.0" y="60.0"/>
      <point x="1141.59383454" y="-2.21581321698"/>
      <point x="1066.0" y="-17.0" type="curve" smooth="yes"/>
      <point x="757.405201891" y="-77.3531116392"/>
      <point x="598.0" y="43.0"/>
      <point x="667.0" y="343.0" type="curve" smooth="yes"/>
      <point x="757.0" y="730.0" type="line"/>
      <point x="1030.0" y="985.0" type="line" smooth="yes"/>
      <point x="1088.0" y="1039.0"/>
      <point x="1137.0" y="1075.0"/>
      <point x="1194.0" y="1075.0" type="curve" smooth="yes"/>
      <point x="1196.0" y="1075.0" type="line" smooth="yes"/>
      <point x="1275.0" y="1075.0"/>
      <point x="1303.0" y="1024.0"/>
      <point x="1266.0" y="865.0" type="curve" smooth="yes"/>
      <point x="1152.0" y="371.0" type="line" smooth="yes"/>
      <point x="1134.0505618" y="293.219101124"/>
      <point x="1146.94598537" y="274.0"/>
      <point x="1166.0" y="265.0" type="curve" smooth="yes"/>
      <point x="1216.63559383" y="241.082712575"/>
      <point x="1228.0" y="209.0"/>
    </contour>
  </outline>
</glyph>
<glyph name="b" format="2">
  <advance height="1872" width="1278"/>
  <unicode hex="0062"/>
  <outline>
    <contour>
      <point x="478.0" y="1480.0" type="curve" smooth="yes"/>
      <point x="488.0" y="1480.0" type="line" smooth="yes"/>
      <point x="635.0" y="1480.0"/>
      <point x="729.0" y="1397.0"/>
      <point x="690.0" y="1230.0" type="curve" smooth="yes"/>
      <point x="483.0" y="335.0" type="line"/>
      <point x="194.0" y="65.0" type="line" smooth="yes"/>
      <point x="136.627160036" y="11.3990768503"/>
      <point x="97.0" y="-25.0"/>
      <point x="50.0" y="-25.0" type="curve" smooth="yes"/>
      <point x="39.0" y="-25.0" type="line" smooth="yes"/>
      <point x="-38.0" y="-25.0"/>
      <point x="-60.8176594157" y="47.0354602098"/>
      <point x="-29.0" y="185.0" type="curve" smooth="yes"/>
      <point x="212.0" y="1230.0" type="line" smooth="yes"/>
      <point x="251.0" y="1397.0"/>
      <point x="331.0" y="1480.0"/>
    </contour>
    <contour>
      <point x="536.0" y="641.0" type="line"/>
      <point x="601.0" y="924.0"/>
      <point x="702.0" y="1084.0"/>
      <point x="951.0" y="1084.0" type="curve" smooth="yes"/>
      <point x="1210.0" y="1084.0"/>
      <point x="1353.0" y="946.0"/>
      <point x="1276.0" y="614.0" type="curve" smooth="yes"/>
      <point x="1235.0" y="436.0" type="line" smooth="yes"/>
      <point x="1163.0" y="124.0"/>
      <point x="973.0" y="-34.0"/>
      <point x="664.0" y="-34.0" type="curve" smooth="yes"/>
      <point x="385.0" y="-34.0"/>
      <point x="332.0" y="124.0"/>
      <point x="397.0" y="407.0" type="curve"/>
      <point x="516.0" y="475.0" type="line"/>
      <point x="485.0" y="339.0"/>
      <point x="521.0" y="297.0"/>
      <point x="595.0" y="297.0" type="curve" smooth="yes"/>
      <point x="679.0" y="297.0"/>
      <point x="736.0" y="348.0"/>
      <point x="761.0" y="455.0" type="curve" smooth="yes"/>
      <point x="793.0" y="595.0" type="line" smooth="yes"/>
      <point x="818.0" y="702.0"/>
      <point x="784.0" y="753.0"/>
      <point x="700.0" y="753.0" type="curve" smooth="yes"/>
      <point x="626.0" y="753.0"/>
      <point x="564.0" y="682.0"/>
      <point x="539.0" y="575.0" type="curve"/>
    </contour>
  </outline>
</glyph>
<glyph name="c" format="2">
  <advance height="1872" width="1097"/>
  <unicode hex="0063"/>
  <anchor x="520.0" y="0.0" name="bottom"/>
  <anchor x="756.0" y="1050.0" name="top"/>
  <outline>
    <contour>
      <point x="1029.0" y="343.0" type="curve" smooth="yes"/>
      <point x="1012.0" y="270.0"/>
      <point x="935.0" y="175.0"/>
      <point x="871.0" y="112.0" type="curve" smooth="yes"/>
      <point x="794.0" y="36.0"/>
      <point x="651.0" y="-35.0"/>
      <point x="470.0" y="-35.0" type="curve" smooth="yes"/>
      <point x="90.0" y="-35.0"/>
      <point x="-61.0" y="151.0"/>
      <point x="8.0" y="448.0" type="curve" smooth="yes"/>
      <point x="44.0" y="603.0" type="line" smooth="yes"/>
      <point x="113.0" y="900.0"/>
      <point x="293.0" y="1085.0"/>
      <point x="673.0" y="1085.0" type="curve" smooth="yes"/>
      <point x="933.58045566" y="1085.0"/>
      <point x="1106.0" y="984.484375"/>
      <point x="1106.0" y="814.0" type="curve" smooth="yes"/>
      <point x="1106.0" y="755.0"/>
      <point x="1100.0" y="717.0"/>
      <point x="1093.0" y="688.0" type="curve" smooth="yes"/>
      <point x="1073.0" y="600.0"/>
      <point x="992.0" y="583.0"/>
      <point x="923.0" y="583.0" type="curve" smooth="yes"/>
      <point x="908.0" y="583.0" type="line" smooth="yes"/>
      <point x="811.0" y="583.0"/>
      <point x="793.0" y="616.0"/>
      <point x="793.0" y="640.0" type="curve" smooth="yes"/>
      <point x="793.0" y="661.0"/>
      <point x="798.0" y="665.0"/>
      <point x="798.0" y="707.0" type="curve" smooth="yes"/>
      <point x="798.0" y="764.0"/>
      <point x="750.0" y="799.0"/>
      <point x="686.0" y="799.0" type="curve" smooth="yes"/>
      <point x="602.0" y="799.0"/>
      <point x="553.0" y="733.0"/>
      <point x="518.0" y="583.0" type="curve" smooth="yes"/>
      <point x="491.0" y="468.0" type="line" smooth="yes"/>
      <point x="458.0" y="325.0"/>
      <point x="485.0" y="251.0"/>
      <point x="574.0" y="251.0" type="curve" smooth="yes"/>
      <point x="612.0" y="251.0"/>
      <point x="654.0" y="268.0"/>
      <point x="681.0" y="294.0" type="curve" smooth="yes"/>
      <point x="700.0" y="313.0"/>
      <point x="718.0" y="335.0"/>
      <point x="732.0" y="361.0" type="curve" smooth="yes"/>
      <point x="769.0" y="432.0"/>
      <point x="825.0" y="468.0"/>
      <point x="912.0" y="468.0" type="curve" smooth="yes"/>
      <point x="922.0" y="468.0" type="line" smooth="yes"/>
      <point x="998.0" y="468.0"/>
      <point x="1047.0" y="423.0"/>
    </contour>
  </outline>
</glyph>
<glyph name="d" format="2">
  <advance height="1872" width="1278"/>
  <unicode hex="0064"/>
  <outline>
    <contour>
      <point x="745.0" y="408.0" type="line"/>
      <point x="680.0" y="125.0"/>
      <point x="579.0" y="-34.0"/>
      <point x="330.0" y="-34.0" type="curve" smooth="yes"/>
      <point x="71.0" y="-34.0"/>
      <point x="-71.0" y="104.0"/>
      <point x="6.0" y="436.0" type="curve" smooth="yes"/>
      <point x="47.0" y="614.0" type="line" smooth="yes"/>
      <point x="124.0" y="946.0"/>
      <point x="269.0" y="1084.0"/>
      <point x="528.0" y="1084.0" type="curve" smooth="yes"/>
      <point x="777.0" y="1084.0"/>
      <point x="864.0" y="925.0"/>
      <point x="799.0" y="642.0" type="curve"/>
      <point x="765.0" y="575.0" type="line"/>
      <point x="790.0" y="682.0"/>
      <point x="761.0" y="753.0"/>
      <point x="687.0" y="753.0" type="curve" smooth="yes"/>
      <point x="603.0" y="753.0"/>
      <point x="545.0" y="702.0"/>
      <point x="520.0" y="595.0" type="curve" smooth="yes"/>
      <point x="488.0" y="455.0" type="line" smooth="yes"/>
      <point x="463.0" y="348.0"/>
      <point x="498.0" y="297.0"/>
      <point x="582.0" y="297.0" type="curve" smooth="yes"/>
      <point x="656.0" y="297.0"/>
      <point x="717.0" y="368.0"/>
      <point x="742.0" y="475.0" type="curve"/>
    </contour>
    <contour>
      <point x="1392.0" y="1220.0" type="curve" smooth="yes"/>
      <point x="1163.0" y="230.0" type="line" smooth="yes"/>
      <point x="1124.0" y="63.0"/>
      <point x="1047.0" y="-30.0"/>
      <point x="900.0" y="-30.0" type="curve" smooth="yes"/>
      <point x="895.0" y="-30.0" type="line" smooth="yes"/>
      <point x="748.0" y="-30.0"/>
      <point x="661.0" y="63.0"/>
      <point x="700.0" y="230.0" type="curve" smooth="yes"/>
      <point x="702.0" y="240.0" type="line"/>
      <point x="690.0" y="252.0" type="line"/>
      <point x="914.0" y="1220.0" type="line" smooth="yes"/>
      <point x="953.0" y="1387.0"/>
      <point x="1037.0" y="1480.0"/>
      <point x="1184.0" y="1480.0" type="curve" smooth="yes"/>
      <point x="1194.0" y="1480.0" type="line" smooth="yes"/>
      <point x="1341.0" y="1480.0"/>
      <point x="1431.0" y="1387.0"/>
    </contour>
  </outline>
</glyph>
<glyph name="e" format="2">
  <advance height="1872" width="1223"/>
  <unicode hex="0065"/>
  <anchor x="513.0" y="0.0" name="bottom"/>
  <anchor x="733.0" y="60.0" name="ogonek"/>
  <anchor x="736.0" y="1050.0" name="top"/>
  <outline>
    <contour>
      <point x="1076.0" y="263.0" type="curve" smooth="yes"/>
      <point x="1076.0" y="188.046875"/>
      <point x="1012.0" y="119.0"/>
      <point x="904.0" y="56.0" type="curve" smooth="yes"/>
      <point x="811.0" y="2.0"/>
      <point x="701.0" y="-35.0"/>
      <point x="520.0" y="-35.0" type="curve" smooth="yes"/>
      <point x="151.0" y="-35.0"/>
      <point x="-64.0" y="138.0"/>
      <point x="8.0" y="448.0" type="curve" smooth="yes"/>
      <point x="44.0" y="603.0" type="line" smooth="yes"/>
      <point x="113.0" y="903.0"/>
      <point x="349.0" y="1085.0"/>
      <point x="726.0" y="1085.0" type="curve" smooth="yes"/>
      <point x="1063.0" y="1085.0"/>
      <point x="1228.0" y="907.0"/>
      <point x="1229.0" y="724.0" type="curve" smooth="yes"/>
      <point x="1229.0" y="694.0"/>
      <point x="1223.0" y="657.0"/>
      <point x="1220.0" y="643.0" type="curve" smooth="yes"/>
      <point x="1182.0" y="478.0"/>
      <point x="1077.0" y="437.0"/>
      <point x="920.0" y="437.0" type="curve" smooth="yes"/>
      <point x="279.0" y="437.0" type="line"/>
      <point x="276.0" y="603.0" type="line"/>
      <point x="757.0" y="603.0" type="line"/>
      <point x="785.0" y="745.0"/>
      <point x="759.0" y="811.0"/>
      <point x="686.0" y="811.0" type="curve" smooth="yes"/>
      <point x="609.0" y="811.0"/>
      <point x="557.0" y="753.0"/>
      <point x="529.0" y="633.0" type="curve" smooth="yes"/>
      <point x="480.0" y="418.0" type="line" smooth="yes"/>
      <point x="445.0" y="268.0"/>
      <point x="476.0" y="239.0"/>
      <point x="553.0" y="239.0" type="curve" smooth="yes"/>
      <point x="657.0" y="239.0"/>
      <point x="682.0" y="297.0"/>
      <point x="732.0" y="331.0" type="curve" smooth="yes"/>
      <point x="792.0" y="372.0"/>
      <point x="834.0" y="388.0"/>
      <point x="921.0" y="388.0" type="curve" smooth="yes"/>
      <point x="931.0" y="388.0" type="line" smooth="yes"/>
      <point x="1007.0" y="388.0"/>
      <point x="1076.0" y="332.0"/>
    </contour>
  </outline>
</glyph>
<glyph name="h" format="2">
  <advance height="1872" width="1221"/>
  <unicode hex="0068"/>
  <anchor x="509.0" y="0.0" name="bottom"/>
  <anchor x="507.0" y="1450.0" name="top"/>
  <outline>
    <contour>
      <point x="467.0" y="1480.0" type="curve" smooth="yes"/>
      <point x="477.0" y="1480.0" type="line" smooth="yes"/>
      <point x="624.0" y="1480.0"/>
      <point x="728.0" y="1397.0"/>
      <point x="687.0" y="1220.0" type="curve" smooth="yes"/>
      <point x="458.0" y="230.0" type="line" smooth="yes"/>
      <point x="417.0" y="53.0"/>
      <point x="345.0" y="-30.0"/>
      <point x="198.0" y="-30.0" type="curve" smooth="yes"/>
      <point x="188.0" y="-30.0" type="line" smooth="yes"/>
      <point x="41.0" y="-30.0"/>
      <point x="-60.0" y="53.0"/>
      <point x="-19.0" y="230.0" type="curve" smooth="yes"/>
      <point x="210.0" y="1220.0" type="line" smooth="yes"/>
      <point x="251.0" y="1397.0"/>
      <point x="320.0" y="1480.0"/>
    </contour>
    <contour>
      <point x="550.0" y="703.0" type="line"/>
      <point x="605.0" y="943.0"/>
      <point x="733.0" y="1085.0"/>
      <point x="940.0" y="1085.0" type="curve" smooth="yes"/>
      <point x="1167.0" y="1085.0"/>
      <point x="1281.56347948" y="972.86986617"/>
      <point x="1210.0" y="663.0" type="curve" smooth="yes"/>
      <point x="1110.0" y="230.0" type="line" smooth="yes"/>
      <point x="1069.0" y="53.0"/>
      <point x="975.0" y="-30.0"/>
      <point x="828.0" y="-30.0" type="curve" smooth="yes"/>
      <point x="818.0" y="-30.0" type="line" smooth="yes"/>
      <point x="671.0" y="-30.0"/>
      <point x="592.0" y="53.0"/>
      <point x="633.0" y="230.0" type="curve" smooth="yes"/>
      <point x="722.0" y="613.0" type="line" smooth="yes"/>
      <point x="745.0" y="713.0"/>
      <point x="744.0" y="762.0"/>
      <point x="684.0" y="762.0" type="curve" smooth="yes"/>
      <point x="627.0" y="762.0"/>
      <point x="562.0" y="683.0"/>
      <point x="514.0" y="473.0" type="curve"/>
    </contour>
  </outline>
</glyph>
<glyph name="i" format="2">
  <advance height="1872" width="575"/>
  <unicode hex="0069"/>
  <anchor x="176.0" y="0.0" name="bottom"/>
  <anchor x="176.0" y="0.0" name="ogonek"/>
  <outline>
    <contour>
      <point x="680.0" y="1365.0" type="curve" smooth="yes"/>
      <point x="680.0" y="1345.0" type="line" smooth="yes"/>
      <point x="680.0" y="1231.0"/>
      <point x="610.0" y="1160.0"/>
      <point x="490.0" y="1160.0" type="curve" smooth="yes"/>
      <point x="480.0" y="1160.0" type="line" smooth="yes"/>
      <point x="360.0" y="1160.0"/>
      <point x="290.0" y="1231.0"/>
      <point x="290.0" y="1345.0" type="curve" smooth="yes"/>
      <point x="290.0" y="1365.0" type="line" smooth="yes"/>
      <point x="290.0" y="1479.0"/>
      <point x="360.0" y="1550.0"/>
      <point x="480.0" y="1550.0" type="curve" smooth="yes"/>
      <point x="490.0" y="1550.0" type="line" smooth="yes"/>
      <point x="610.0" y="1550.0"/>
      <point x="680.0" y="1479.0"/>
    </contour>
    <contour>
      <point x="595.0" y="820.0" type="curve" smooth="yes"/>
      <point x="459.0" y="230.0" type="line" smooth="yes"/>
      <point x="418.0" y="53.0"/>
      <point x="340.0" y="-30.0"/>
      <point x="193.0" y="-30.0" type="curve" smooth="yes"/>
      <point x="183.0" y="-30.0" type="line" smooth="yes"/>
      <point x="36.0" y="-30.0"/>
      <point x="-58.0" y="53.0"/>
      <point x="-17.0" y="230.0" type="curve" smooth="yes"/>
      <point x="119.0" y="820.0" type="line" smooth="yes"/>
      <point x="160.0" y="997.0"/>
      <point x="242.0" y="1080.0"/>
      <point x="389.0" y="1080.0" type="curve" smooth="yes"/>
      <point x="399.0" y="1080.0" type="line" smooth="yes"/>
      <point x="546.0" y="1080.0"/>
      <point x="636.0" y="997.0"/>
    </contour>
  </outline>
</glyph>
<glyph name="j" format="2">
  <advance height="1872" width="575"/>
  <unicode hex="006A"/>
  <outline>
    <contour>
      <point x="387.0" y="-55.0" type="line" smooth="yes"/>
      <point x="310.765625" y="-383.3203125"/>
      <point x="100.0" y="-430.0"/>
      <point x="-84.0" y="-430.0" type="curve" smooth="yes"/>
      <point x="-373.0" y="-430.0"/>
      <point x="-440.0" y="-302.520507812"/>
      <point x="-440.0" y="-196.0" type="curve" smooth="yes"/>
      <point x="-440.0" y="-109.0"/>
      <point x="-380.0" y="-69.0"/>
      <point x="-313.0" y="-69.0" type="curve" smooth="yes"/>
      <point x="-307.0" y="-69.0" type="line" smooth="yes"/>
      <point x="-240.0" y="-69.0"/>
      <point x="-220.84375" y="-98.8056640625"/>
      <point x="-211.0" y="-124.0" type="curve" smooth="yes"/>
      <point x="-201.909179688" y="-147.268554688"/>
      <point x="-181.0" y="-156.0"/>
      <point x="-162.0" y="-156.0" type="curve" smooth="yes"/>
      <point x="-114.0" y="-156.0"/>
      <point x="-90.0" y="-84.0"/>
      <point x="-66.0" y="21.0" type="curve" smooth="yes"/>
      <point x="119.0" y="820.0" type="line" smooth="yes"/>
      <point x="160.242190206" y="997.902702133"/>
      <point x="242.0" y="1080.0"/>
      <point x="389.0" y="1080.0" type="curve" smooth="yes"/>
      <point x="399.0" y="1080.0" type="line" smooth="yes"/>
      <point x="546.0" y="1080.0"/>
      <point x="637.40598221" y="997.795914996"/>
      <point x="595.0" y="820.0" type="curve" smooth="yes"/>
    </contour>
    <contour>
      <point x="678.0" y="1365.0" type="curve" smooth="yes"/>
      <point x="678.0" y="1345.0" type="line" smooth="yes"/>
      <point x="678.0" y="1231.0"/>
      <point x="608.0" y="1160.0"/>
      <point x="488.0" y="1160.0" type="curve" smooth="yes"/>
      <point x="478.0" y="1160.0" type="line" smooth="yes"/>
      <point x="358.0" y="1160.0"/>
      <point x="288.0" y="1231.0"/>
      <point x="288.0" y="1345.0" type="curve" smooth="yes"/>
      <point x="288.0" y="1365.0" type="line" smooth="yes"/>
      <point x="288.0" y="1479.0"/>
      <point x="358.0" y="1550.0"/>
      <point x="478.0" y="1550.0" type="curve" smooth="yes"/>
      <point x="488.0" y="1550.0" type="line" smooth="yes"/>
      <point x="608.0" y="1550.0"/>
      <point x="678.0" y="1479.0"/>
    </contour>
  </outline>
</glyph>
<glyph name="l" format="2">
  <advance height="1872" width="575"/>
  <unicode hex="006C"/>
  <outline>
    <contour>
      <point x="470.0" y="1480.0" type="curve" smooth="yes"/>
      <point x="480.0" y="1480.0" type="line" smooth="yes"/>
      <point x="627.0" y="1480.0"/>
      <point x="728.0" y="1397.0"/>
      <point x="687.0" y="1220.0" type="curve" smooth="yes"/>
      <point x="458.0" y="230.0" type="line" smooth="yes"/>
      <point x="417.0" y="53.0"/>
      <point x="348.0" y="-30.0"/>
      <point x="201.0" y="-30.0" type="curve" smooth="yes"/>
      <point x="191.0" y="-30.0" type="line" smooth="yes"/>
      <point x="44.0" y="-30.0"/>
      <point x="-60.0" y="53.0"/>
      <point x="-19.0" y="230.0" type="curve" smooth="yes"/>
      <point x="210.0" y="1220.0" type="line" smooth="yes"/>
      <point x="251.0" y="1397.0"/>
      <point x="323.0" y="1480.0"/>
    </contour>
  </outline>
</glyph>
<glyph name="m" format="2">
  <advance height="1872" width="1583"/>
  <unicode hex="006D"/>
  <outline>
    <contour>
      <point x="990.0" y="703.0" type="line"/>
      <point x="1045.0" y="943.0"/>
      <point x="1152.0" y="1085.0"/>
      <point x="1349.0" y="1085.0" type="curve" smooth="yes"/>
      <point x="1556.0" y="1085.0"/>
      <point x="1645.0" y="973.0"/>
      <point x="1573.0" y="663.0" type="curve" smooth="yes"/>
      <point x="1473.0" y="230.0" type="line" smooth="yes"/>
      <point x="1432.0" y="53.0"/>
      <point x="1349.0" y="-30.0"/>
      <point x="1202.0" y="-30.0" type="curve" smooth="yes"/>
      <point x="1182.0" y="-30.0" type="line" smooth="yes"/>
      <point x="1035.0" y="-30.0"/>
      <point x="974.0" y="53.0"/>
      <point x="1015.0" y="230.0" type="curve" smooth="yes"/>
      <point x="1104.0" y="613.0" type="line" smooth="yes"/>
      <point x="1127.0" y="713.0"/>
      <point x="1133.0" y="762.0"/>
      <point x="1093.0" y="762.0" type="curve" smooth="yes"/>
      <point x="1056.0" y="762.0"/>
      <point x="1021.0" y="683.0"/>
      <point x="973.0" y="473.0" type="curve"/>
    </contour>
    <contour>
      <point x="376.0" y="1080.0" type="curve" smooth="yes"/>
      <point x="396.0" y="1080.0" type="line" smooth="yes"/>
      <point x="543.0" y="1080.0"/>
      <point x="607.0" y="997.0"/>
      <point x="566.0" y="820.0" type="curve" smooth="yes"/>
      <point x="536.0" y="687.0" type="line"/>
      <point x="539.0" y="660.0" type="line"/>
      <point x="440.0" y="230.0" type="line" smooth="yes"/>
      <point x="399.0" y="53.0"/>
      <point x="312.0" y="-30.0"/>
      <point x="175.0" y="-30.0" type="curve" smooth="yes"/>
      <point x="155.0" y="-30.0" type="line" smooth="yes"/>
      <point x="8.0" y="-30.0"/>
      <point x="-59.0" y="53.0"/>
      <point x="-18.0" y="230.0" type="curve" smooth="yes"/>
      <point x="118.0" y="820.0" type="line" smooth="yes"/>
      <point x="159.0" y="997.0"/>
      <point x="229.0" y="1080.0"/>
    </contour>
    <contour>
      <point x="521.0" y="703.0" type="line"/>
      <point x="576.0" y="943.0"/>
      <point x="655.0" y="1085.0"/>
      <point x="832.0" y="1085.0" type="curve" smooth="yes"/>
      <point x="1019.0" y="1085.0"/>
      <point x="1089.0" y="973.0"/>
      <point x="1017.0" y="663.0" type="curve" smooth="yes"/>
      <point x="917.0" y="230.0" type="line" smooth="yes"/>
      <point x="876.0" y="53.0"/>
      <point x="827.0" y="-30.0"/>
      <point x="680.0" y="-30.0" type="curve" smooth="yes"/>
      <point x="670.0" y="-30.0" type="line" smooth="yes"/>
      <point x="523.0" y="-30.0"/>
      <point x="495.0" y="53.0"/>
      <point x="536.0" y="230.0" type="curve" smooth="yes"/>
      <point x="625.0" y="613.0" type="line" smooth="yes"/>
      <point x="648.0" y="713.0"/>
      <point x="655.0" y="762.0"/>
      <point x="616.0" y="762.0" type="curve" smooth="yes"/>
      <point x="578.0" y="762.0"/>
      <point x="544.0" y="683.0"/>
      <point x="496.0" y="473.0" type="curve"/>
    </contour>
  </outline>
</glyph>
<glyph name="n" format="2">
  <advance height="1872" width="1221"/>
  <unicode hex="006E"/>
  <anchor x="509.0" y="0.0" name="bottom"/>
  <anchor x="752.0" y="1050.0" name="top"/>
  <outline>
    <contour>
      <point x="391.0" y="1080.0" type="curve" smooth="yes"/>
      <point x="401.0" y="1080.0" type="line" smooth="yes"/>
      <point x="548.0" y="1080.0"/>
      <point x="627.0" y="997.0"/>
      <point x="586.0" y="820.0" type="curve" smooth="yes"/>
      <point x="556.0" y="687.0" type="line"/>
      <point x="559.0" y="660.0" type="line"/>
      <point x="460.0" y="230.0" type="line" smooth="yes"/>
      <point x="419.0" y="53.0"/>
      <point x="327.0" y="-30.0"/>
      <point x="180.0" y="-30.0" type="curve" smooth="yes"/>
      <point x="170.0" y="-30.0" type="line" smooth="yes"/>
      <point x="23.0" y="-30.0"/>
      <point x="-59.0" y="53.0"/>
      <point x="-18.0" y="230.0" type="curve" smooth="yes"/>
      <point x="118.0" y="820.0" type="line" smooth="yes"/>
      <point x="159.0" y="997.0"/>
      <point x="244.0" y="1080.0"/>
    </contour>
    <contour>
      <point x="542.0" y="711.0" type="line"/>
      <point x="597.0" y="951.0"/>
      <point x="735.0" y="1084.0"/>
      <point x="942.0" y="1084.0" type="curve" smooth="yes"/>
      <point x="1169.0" y="1084.0"/>
      <point x="1282.0" y="973.0"/>
      <point x="1210.0" y="663.0" type="curve" smooth="yes"/>
      <point x="1110.0" y="230.0" type="line" smooth="yes"/>
      <point x="1069.0" y="53.0"/>
      <point x="997.0" y="-30.0"/>
      <point x="850.0" y="-30.0" type="curve" smooth="yes"/>
      <point x="840.0" y="-30.0" type="line" smooth="yes"/>
      <point x="693.0" y="-30.0"/>
      <point x="592.0" y="53.0"/>
      <point x="633.0" y="230.0" type="curve" smooth="yes"/>
      <point x="722.0" y="613.0" type="line" smooth="yes"/>
      <point x="745.0" y="713.0"/>
      <point x="745.0" y="762.0"/>
      <point x="684.0" y="762.0" type="curve" smooth="yes"/>
      <point x="631.0" y="762.0"/>
      <point x="566.0" y="697.0"/>
      <point x="518.0" y="487.0" type="curve"/>
    </contour>
  </outline>
</glyph>
<glyph name="p" format="2">
  <advance height="1872" width="1278"/>
  <unicode hex="0070"/>
  <outline>
    <contour>
      <point x="516.0" y="641.0" type="line"/>
      <point x="581.0" y="924.0"/>
      <point x="701.0" y="1084.0"/>
      <point x="950.0" y="1084.0" type="curve" smooth="yes"/>
      <point x="1209.0" y="1084.0"/>
      <point x="1353.0" y="946.0"/>
      <point x="1276.0" y="614.0" type="curve" smooth="yes"/>
      <point x="1235.0" y="436.0" type="line" smooth="yes"/>
      <point x="1158.0" y="104.0"/>
      <point x="1011.0" y="-34.0"/>
      <point x="752.0" y="-34.0" type="curve" smooth="yes"/>
      <point x="503.0" y="-34.0"/>
      <point x="407.0" y="126.0"/>
      <point x="472.0" y="409.0" type="curve"/>
      <point x="516.0" y="475.0" type="line"/>
      <point x="491.0" y="368.0"/>
      <point x="521.0" y="297.0"/>
      <point x="595.0" y="297.0" type="curve" smooth="yes"/>
      <point x="679.0" y="297.0"/>
      <point x="736.0" y="348.0"/>
      <point x="761.0" y="455.0" type="curve" smooth="yes"/>
      <point x="793.0" y="595.0" type="line" smooth="yes"/>
      <point x="818.0" y="702.0"/>
      <point x="784.0" y="753.0"/>
      <point x="700.0" y="753.0" type="curve" smooth="yes"/>
      <point x="626.0" y="753.0"/>
      <point x="564.0" y="682.0"/>
      <point x="539.0" y="575.0" type="curve"/>
    </contour>
    <contour>
      <point x="-101.0" y="-130.0" type="curve" smooth="yes"/>
      <point x="118.0" y="820.0" type="line" smooth="yes"/>
      <point x="157.0" y="987.0"/>
      <point x="233.0" y="1080.0"/>
      <point x="380.0" y="1080.0" type="curve" smooth="yes"/>
      <point x="385.0" y="1080.0" type="line" smooth="yes"/>
      <point x="532.0" y="1080.0"/>
      <point x="619.0" y="987.0"/>
      <point x="580.0" y="820.0" type="curve" smooth="yes"/>
      <point x="578.0" y="810.0" type="line"/>
      <point x="590.0" y="798.0" type="line"/>
      <point x="376.0" y="-130.0" type="line" smooth="yes"/>
      <point x="337.0" y="-297.0"/>
      <point x="253.0" y="-390.0"/>
      <point x="106.0" y="-390.0" type="curve" smooth="yes"/>
      <point x="96.0" y="-390.0" type="line" smooth="yes"/>
      <point x="-51.0" y="-390.0"/>
      <point x="-140.0" y="-297.0"/>
    </contour>
  </outline>
</glyph>
<glyph name="q" format="2">
  <advance height="1872" width="1297"/>
  <unicode hex="0071"/>
  <outline>
    <contour>
      <point x="832.0" y="-390.0" type="curve" smooth="yes"/>
      <point x="822.0" y="-390.0" type="line" smooth="yes"/>
      <point x="675.0" y="-390.0"/>
      <point x="561.0" y="-307.0"/>
      <point x="600.0" y="-140.0" type="curve" smooth="yes"/>
      <point x="797.0" y="715.0" type="line"/>
      <point x="1086.0" y="985.0" type="line" smooth="yes"/>
      <point x="1144.0" y="1039.0"/>
      <point x="1183.0" y="1075.0"/>
      <point x="1230.0" y="1075.0" type="curve" smooth="yes"/>
      <point x="1241.0" y="1075.0" type="line" smooth="yes"/>
      <point x="1308.0" y="1075.0"/>
      <point x="1346.0" y="1022.0"/>
      <point x="1310.0" y="865.0" type="curve" smooth="yes"/>
      <point x="1078.0" y="-140.0" type="line" smooth="yes"/>
      <point x="1039.0" y="-307.0"/>
      <point x="979.0" y="-390.0"/>
    </contour>
    <contour>
      <point x="745.0" y="408.0" type="line"/>
      <point x="680.0" y="125.0"/>
      <point x="579.0" y="-34.0"/>
      <point x="330.0" y="-34.0" type="curve" smooth="yes"/>
      <point x="71.0" y="-34.0"/>
      <point x="-71.0" y="104.0"/>
      <point x="6.0" y="436.0" type="curve" smooth="yes"/>
      <point x="47.0" y="614.0" type="line" smooth="yes"/>
      <point x="119.0" y="926.0"/>
      <point x="307.0" y="1084.0"/>
      <point x="616.0" y="1084.0" type="curve" smooth="yes"/>
      <point x="895.0" y="1084.0"/>
      <point x="919.0" y="926.0"/>
      <point x="854.0" y="643.0" type="curve"/>
      <point x="765.0" y="575.0" type="line"/>
      <point x="796.0" y="711.0"/>
      <point x="761.0" y="753.0"/>
      <point x="687.0" y="753.0" type="curve" smooth="yes"/>
      <point x="603.0" y="753.0"/>
      <point x="545.0" y="702.0"/>
      <point x="520.0" y="595.0" type="curve" smooth="yes"/>
      <point x="488.0" y="455.0" type="line" smooth="yes"/>
      <point x="463.0" y="348.0"/>
      <point x="498.0" y="297.0"/>
      <point x="582.0" y="297.0" type="curve" smooth="yes"/>
      <point x="656.0" y="297.0"/>
      <point x="717.0" y="368.0"/>
      <point x="742.0" y="475.0" type="curve"/>
    </contour>
  </outline>
</glyph>
<glyph name="r" format="2">
  <advance height="1872" width="1098"/>
  <unicode hex="0072"/>
  <anchor x="204.0" y="0.0" name="bottom"/>
  <anchor x="597.0" y="1050.0" name="top"/>
  <outline>
    <contour>
      <point x="531.0" y="453.0" type="curve"/>
      <point x="558.0" y="770.0" type="line"/>
      <point x="632.0" y="930.0"/>
      <point x="748.0" y="1084.0"/>
      <point x="910.0" y="1084.0" type="curve" smooth="yes"/>
      <point x="1069.0" y="1084.0"/>
      <point x="1129.30078125" y="973.318359375"/>
      <point x="1119.0" y="810.0" type="curve" smooth="yes"/>
      <point x="1111.13085938" y="685.231445312"/>
      <point x="1008.0" y="583.0"/>
      <point x="821.0" y="583.0" type="curve" smooth="yes"/>
      <point x="810.0" y="583.0" type="line" smooth="yes"/>
      <point x="733.0" y="583.0"/>
      <point x="679.661132812" y="616.46484375"/>
      <point x="688.0" y="690.0" type="curve" smooth="yes"/>
      <point x="693.26171875" y="736.399414062"/>
      <point x="682.0" y="760.0"/>
      <point x="656.0" y="760.0" type="curve" smooth="yes"/>
      <point x="608.0" y="760.0"/>
      <point x="581.0" y="658.0"/>
    </contour>
    <contour>
      <point x="385.0" y="1080.0" type="curve" smooth="yes"/>
      <point x="400.0" y="1080.0" type="line" smooth="yes"/>
      <point x="548.0" y="1080.0"/>
      <point x="621.0" y="997.0"/>
      <point x="580.0" y="820.0" type="curve" smooth="yes"/>
      <point x="558.0" y="724.0" type="line"/>
      <point x="591.0" y="715.0" type="line"/>
      <point x="479.0" y="230.0" type="line" smooth="yes"/>
      <point x="438.0" y="52.0"/>
      <point x="346.0" y="-30.0"/>
      <point x="199.0" y="-30.0" type="curve" smooth="yes"/>
      <point x="189.0" y="-30.0" type="line" smooth="yes"/>
      <point x="43.0" y="-30.0"/>
      <point x="-40.0" y="54.0"/>
      <point x="1.0" y="230.0" type="curve" smooth="yes"/>
      <point x="137.0" y="820.0" type="line" smooth="yes"/>
      <point x="178.0" y="996.0"/>
      <point x="239.0" y="1080.0"/>
    </contour>
  </outline>
</glyph>
<glyph name="s" format="2">
  <advance height="1872" width="1126"/>
  <unicode hex="0073"/>
  <anchor x="441.0" y="0.0" name="bottom"/>
  <anchor x="644.0" y="1050.0" name="top"/>
  <outline>
    <contour>
      <point x="164.0" y="388.0" type="curve" smooth="yes"/>
      <point x="174.0" y="388.0" type="line" smooth="yes"/>
      <point x="265.0" y="388.0"/>
      <point x="318.0" y="367.0"/>
      <point x="325.0" y="321.0" type="curve" smooth="yes"/>
      <point x="329.0" y="298.0"/>
      <point x="327.0" y="281.0"/>
      <point x="334.0" y="265.0" type="curve" smooth="yes"/>
      <point x="344.0" y="242.0"/>
      <point x="371.0" y="222.0"/>
      <point x="453.0" y="222.0" type="curve" smooth="yes"/>
      <point x="537.0" y="222.0"/>
      <point x="564.0" y="233.0"/>
      <point x="573.0" y="274.0" type="curve" smooth="yes"/>
      <point x="601.0" y="395.0"/>
      <point x="14.0" y="380.0"/>
      <point x="95.0" y="748.0" type="curve" smooth="yes"/>
      <point x="149.49132749" y="995.565537239"/>
      <point x="321.0" y="1085.0"/>
      <point x="651.0" y="1085.0" type="curve" smooth="yes"/>
      <point x="940.0" y="1085.0"/>
      <point x="1082.0" y="974.0"/>
      <point x="1087.0" y="864.0" type="curve" smooth="yes"/>
      <point x="1088.0" y="846.0"/>
      <point x="1085.90077607" y="816.024588275"/>
      <point x="1080.0" y="792.0" type="curve" smooth="yes"/>
      <point x="1066.0" y="735.0"/>
      <point x="1001.0" y="688.0"/>
      <point x="904.0" y="688.0" type="curve" smooth="yes"/>
      <point x="895.0" y="688.0" type="line" smooth="yes"/>
      <point x="815.0" y="688.0"/>
      <point x="740.0" y="692.0"/>
      <point x="743.0" y="767.0" type="curve" smooth="yes"/>
      <point x="744.0" y="786.0"/>
      <point x="743.0" y="795.0"/>
      <point x="737.0" y="807.0" type="curve" smooth="yes"/>
      <point x="724.0" y="831.0"/>
      <point x="687.0" y="843.0"/>
      <point x="620.0" y="843.0" type="curve" smooth="yes"/>
      <point x="549.0" y="843.0"/>
      <point x="521.0" y="827.0"/>
      <point x="513.0" y="794.0" type="curve" smooth="yes"/>
      <point x="485.0" y="674.0"/>
      <point x="1151.0" y="713.0"/>
      <point x="1049.0" y="272.0" type="curve" smooth="yes"/>
      <point x="993.0" y="29.0"/>
      <point x="813.0" y="-35.0"/>
      <point x="442.0" y="-35.0" type="curve" smooth="yes"/>
      <point x="108.0" y="-35.0"/>
      <point x="-38.0" y="83.0"/>
      <point x="-41.0" y="212.0" type="curve" smooth="yes"/>
      <point x="-41.0" y="231.0"/>
      <point x="-40.0" y="244.0"/>
      <point x="-36.0" y="260.0" type="curve" smooth="yes"/>
      <point x="-11.0" y="367.0"/>
      <point x="67.0" y="388.0"/>
    </contour>
  </outline>
</glyph>
<glyph name="t" format="2">
  <advance height="1872" width="792"/>
  <unicode hex="0074"/>
  <anchor x="439.0" y="0.0" name="bottom"/>
  <outline>
    <contour>
      <point x="644.0" y="816.0" type="curve" smooth="yes"/>
      <point x="304.0" y="816.0" type="line" smooth="yes"/>
      <point x="127.0" y="816.0"/>
      <point x="44.0" y="833.0"/>
      <point x="44.0" y="930.0" type="curve" smooth="yes"/>
      <point x="44.0" y="935.0" type="line" smooth="yes"/>
      <point x="44.0" y="1032.0"/>
      <point x="127.0" y="1050.0"/>
      <point x="304.0" y="1050.0" type="curve" smooth="yes"/>
      <point x="644.0" y="1050.0" type="line" smooth="yes"/>
      <point x="821.0" y="1050.0"/>
      <point x="904.0" y="1032.0"/>
      <point x="904.0" y="935.0" type="curve" smooth="yes"/>
      <point x="904.0" y="930.0" type="line" smooth="yes"/>
      <point x="904.0" y="833.0"/>
      <point x="821.0" y="816.0"/>
    </contour>
    <contour>
      <point x="760.0" y="190.0" type="curve" smooth="yes"/>
      <point x="758.0" y="180.0" type="line" smooth="yes"/>
      <point x="738.538461538" y="82.6923076923"/>
      <point x="673.0" y="-3.0"/>
      <point x="514.0" y="-13.0" type="curve" smooth="yes"/>
      <point x="168.0" y="-35.0"/>
      <point x="1.0" y="44.0"/>
      <point x="72.0" y="352.0" type="curve" smooth="yes"/>
      <point x="259.0" y="1160.0" type="line" smooth="yes"/>
      <point x="300.0" y="1337.0"/>
      <point x="414.0" y="1430.0"/>
      <point x="561.0" y="1430.0" type="curve" smooth="yes"/>
      <point x="566.0" y="1430.0" type="line" smooth="yes"/>
      <point x="713.0" y="1430.0"/>
      <point x="773.0" y="1337.0"/>
      <point x="732.0" y="1160.0" type="curve" smooth="yes"/>
      <point x="561.0" y="422.0" type="line" smooth="yes"/>
      <point x="531.0" y="294.0"/>
      <point x="631.0" y="313.0"/>
      <point x="662.0" y="314.0" type="curve" smooth="yes"/>
      <point x="738.0" y="316.0"/>
      <point x="779.461538462" y="287.307692308"/>
    </contour>
  </outline>
</glyph>
<glyph name="u" format="2">
  <advance height="1872" width="1221"/>
  <unicode hex="0075"/>
  <anchor x="448.0" y="0.0" name="bottom"/>
  <anchor x="834.0" y="0.0" name="ogonek"/>
  <anchor x="741.0" y="1050.0" name="top"/>
  <outline>
    <contour>
      <point x="848.0" y="-30.0" type="curve" smooth="yes"/>
      <point x="828.0" y="-30.0" type="line" smooth="yes"/>
      <point x="681.0" y="-30.0"/>
      <point x="597.0" y="53.0"/>
      <point x="638.0" y="230.0" type="curve" smooth="yes"/>
      <point x="669.0" y="363.0" type="line"/>
      <point x="665.0" y="390.0" type="line"/>
      <point x="764.0" y="820.0" type="line" smooth="yes"/>
      <point x="805.0" y="997.0"/>
      <point x="882.0" y="1080.0"/>
      <point x="1029.0" y="1080.0" type="curve" smooth="yes"/>
      <point x="1039.0" y="1080.0" type="line" smooth="yes"/>
      <point x="1186.0" y="1080.0"/>
      <point x="1283.0" y="997.0"/>
      <point x="1242.0" y="820.0" type="curve" smooth="yes"/>
      <point x="1106.0" y="230.0" type="line" smooth="yes"/>
      <point x="1063.00112385" y="43.4607578915"/>
      <point x="975.0" y="-30.0"/>
    </contour>
    <contour>
      <point x="674.0" y="347.0" type="line"/>
      <point x="619.0" y="107.0"/>
      <point x="496.0" y="-35.0"/>
      <point x="279.0" y="-35.0" type="curve" smooth="yes"/>
      <point x="52.0" y="-35.0"/>
      <point x="-58.6141152165" y="76.9108811124"/>
      <point x="13.0" y="387.0" type="curve" smooth="yes"/>
      <point x="113.0" y="820.0" type="line" smooth="yes"/>
      <point x="154.0" y="997.0"/>
      <point x="217.0" y="1080.0"/>
      <point x="364.0" y="1080.0" type="curve" smooth="yes"/>
      <point x="374.0" y="1080.0" type="line" smooth="yes"/>
      <point x="521.0" y="1080.0"/>
      <point x="632.0" y="997.0"/>
      <point x="591.0" y="820.0" type="curve" smooth="yes"/>
      <point x="503.0" y="437.0" type="line" smooth="yes"/>
      <point x="480.0" y="337.0"/>
      <point x="478.0" y="288.0"/>
      <point x="540.0" y="288.0" type="curve" smooth="yes"/>
      <point x="600.0" y="288.0"/>
      <point x="660.0" y="367.0"/>
      <point x="708.0" y="577.0" type="curve"/>
    </contour>
  </outline>
</glyph>
<glyph name="v" format="2">
  <advance height="1872" width="1183"/>
  <unicode hex="0076"/>
  <outline>
    <contour>
      <point x="578.0" y="337.0" type="line"/>
      <point x="788.0" y="820.0" type="line" smooth="yes"/>
      <point x="860.718600954" y="987.252782194"/>
      <point x="914.0" y="1080.0"/>
      <point x="1061.0" y="1080.0" type="curve" smooth="yes"/>
      <point x="1071.0" y="1080.0" type="line" smooth="yes"/>
      <point x="1228.0" y="1080.0"/>
      <point x="1292.98264669" y="984.00894047"/>
      <point x="1209.0" y="821.0" type="curve" smooth="yes"/>
      <point x="904.0" y="229.0" type="line" smooth="yes"/>
      <point x="810.603726361" y="47.7193639527"/>
      <point x="662.0" y="-30.0"/>
      <point x="515.0" y="-30.0" type="curve" smooth="yes"/>
      <point x="391.0" y="-30.0" type="line" smooth="yes"/>
      <point x="244.0" y="-30.0"/>
      <point x="191.050250907" y="52.9031986501"/>
      <point x="173.0" y="230.0" type="curve" smooth="yes"/>
      <point x="120.0" y="750.0" type="line" smooth="yes"/>
      <point x="100.0" y="936.0"/>
      <point x="200.0" y="1080.0"/>
      <point x="367.0" y="1080.0" type="curve" smooth="yes"/>
      <point x="377.0" y="1080.0" type="line" smooth="yes"/>
      <point x="544.0" y="1080.0"/>
      <point x="596.0" y="988.0"/>
      <point x="590.0" y="820.0" type="curve" smooth="yes"/>
    </contour>
  </outline>
</glyph>
<glyph name="w" format="2">
  <advance height="1872" width="1486"/>
  <unicode hex="0077"/>
  <outline>
    <contour>
      <point x="1048.0" y="467.0" type="line"/>
      <point x="1176.0" y="820.0" type="line" smooth="yes"/>
      <point x="1238.41353826" y="992.124835985"/>
      <point x="1284.0" y="1080.0"/>
      <point x="1401.0" y="1080.0" type="curve" smooth="yes"/>
      <point x="1411.0" y="1080.0" type="line" smooth="yes"/>
      <point x="1528.0" y="1080.0"/>
      <point x="1585.91200394" y="989.408676362"/>
      <point x="1517.0" y="820.0" type="curve" smooth="yes"/>
      <point x="1277.0" y="230.0" type="line" smooth="yes"/>
      <point x="1207.94601923" y="60.242297264"/>
      <point x="1086.0" y="-30.0"/>
      <point x="939.0" y="-30.0" type="curve" smooth="yes"/>
      <point x="924.0" y="-30.0" type="line" smooth="yes"/>
      <point x="777.0" y="-30.0"/>
      <point x="703.165329416" y="59.9962707651"/>
      <point x="707.0" y="230.0" type="curve" smooth="yes"/>
      <point x="710.0" y="363.0" type="line"/>
      <point x="656.0" y="230.0" type="line" smooth="yes"/>
      <point x="586.566561514" y="58.9880126183"/>
      <point x="446.0" y="-30.0"/>
      <point x="299.0" y="-30.0" type="curve" smooth="yes"/>
      <point x="284.0" y="-30.0" type="line" smooth="yes"/>
      <point x="137.0" y="-30.0"/>
      <point x="72.905401483" y="58.7681082935"/>
      <point x="81.0" y="230.0" type="curve" smooth="yes"/>
      <point x="107.0" y="780.0" type="line" smooth="yes"/>
      <point x="116.413053804" y="979.122292002"/>
      <point x="194.0" y="1080.0"/>
      <point x="351.0" y="1080.0" type="curve" smooth="yes"/>
      <point x="352.0" y="1080.0" type="line" smooth="yes"/>
      <point x="499.0" y="1080.0"/>
      <point x="556.983996807" y="992.094365622"/>
      <point x="541.0" y="820.0" type="curve" smooth="yes"/>
      <point x="511.0" y="497.0" type="line"/>
      <point x="653.0" y="820.0" type="line" smooth="yes"/>
      <point x="727.087105299" y="988.522077547"/>
      <point x="754.0" y="1080.0"/>
      <point x="891.0" y="1080.0" type="curve" smooth="yes"/>
      <point x="896.0" y="1080.0" type="line" smooth="yes"/>
      <point x="1033.0" y="1080.0"/>
      <point x="1061.21254275" y="996.969770402"/>
      <point x="1057.0" y="828.0" type="curve" smooth="yes"/>
    </contour>
  </outline>
</glyph>
<glyph name="x" format="2">
  <advance height="1872" width="1241"/>
  <unicode hex="0078"/>
  <outline>
    <contour>
      <point x="124.0" y="-30.0" type="curve" smooth="yes"/>
      <point x="119.0" y="-30.0" type="line" smooth="yes"/>
      <point x="-48.0" y="-30.0"/>
      <point x="-90.0" y="92.0"/>
      <point x="90.0" y="270.0" type="curve" smooth="yes"/>
      <point x="327.0" y="505.0" type="line"/>
      <point x="202.0" y="790.0" type="line" smooth="yes"/>
      <point x="132.0" y="939.0"/>
      <point x="276.0" y="1090.0"/>
      <point x="453.0" y="1090.0" type="curve" smooth="yes"/>
      <point x="468.0" y="1090.0" type="line" smooth="yes"/>
      <point x="645.0" y="1090.0"/>
      <point x="704.721633888" y="992.493192133"/>
      <point x="731.0" y="883.0" type="curve" smooth="yes"/>
      <point x="737.0" y="858.0" type="line"/>
      <point x="774.0" y="903.0" type="line" smooth="yes"/>
      <point x="867.197701827" y="1016.34855628"/>
      <point x="933.0" y="1080.0"/>
      <point x="1040.0" y="1080.0" type="curve" smooth="yes"/>
      <point x="1045.0" y="1080.0" type="line" smooth="yes"/>
      <point x="1222.0" y="1080.0"/>
      <point x="1246.36073064" y="948.153121563"/>
      <point x="1132.0" y="841.0" type="curve" smooth="yes"/>
      <point x="894.0" y="618.0" type="line"/>
      <point x="1037.0" y="290.0" type="line" smooth="yes"/>
      <point x="1109.05900822" y="124.717799317"/>
      <point x="1009.0" y="-40.0"/>
      <point x="842.0" y="-40.0" type="curve" smooth="yes"/>
      <point x="802.0" y="-40.0" type="line" smooth="yes"/>
      <point x="654.0" y="-40.0"/>
      <point x="560.144776621" y="27.3372522674"/>
      <point x="513.0" y="165.0" type="curve" smooth="yes"/>
      <point x="488.0" y="238.0" type="line"/>
      <point x="458.0" y="205.0" type="line" smooth="yes"/>
      <point x="329.583710407" y="63.742081448"/>
      <point x="251.0" y="-30.0"/>
    </contour>
  </outline>
</glyph>
<glyph name="y" format="2">
  <advance height="1872" width="1175"/>
  <unicode hex="0079"/>
  <anchor x="739.0" y="1050.0" name="top"/>
  <outline>
    <contour>
      <point x="599.0" y="335.0" type="line"/>
      <point x="809.0" y="817.0" type="line" smooth="yes"/>
      <point x="876.0" y="975.0"/>
      <point x="944.0" y="1080.0"/>
      <point x="1071.0" y="1080.0" type="curve" smooth="yes"/>
      <point x="1081.0" y="1080.0" type="line" smooth="yes"/>
      <point x="1238.0" y="1080.0"/>
      <point x="1272.0" y="960.0"/>
      <point x="1184.0" y="790.0" type="curve" smooth="yes"/>
      <point x="943.0" y="327.0" type="line" smooth="yes"/>
      <point x="726.0" y="-91.0"/>
      <point x="529.0" y="-390.0"/>
      <point x="106.0" y="-390.0" type="curve" smooth="yes"/>
      <point x="-173.0" y="-390.0"/>
      <point x="-221.0" y="-271.0"/>
      <point x="-208.0" y="-156.0" type="curve" smooth="yes"/>
      <point x="-197.0" y="-62.0"/>
      <point x="-117.0" y="-19.0"/>
      <point x="-60.0" y="-19.0" type="curve" smooth="yes"/>
      <point x="-53.0" y="-19.0" type="line" smooth="yes"/>
      <point x="14.0" y="-19.0"/>
      <point x="62.0" y="-52.0"/>
      <point x="60.0" y="-116.0" type="curve" smooth="yes"/>
      <point x="59.0" y="-138.0"/>
      <point x="61.0" y="-156.0"/>
      <point x="78.0" y="-156.0" type="curve" smooth="yes"/>
      <point x="101.0" y="-156.0"/>
      <point x="139.0" y="-96.0"/>
      <point x="193.0" y="-15.0" type="curve"/>
      <point x="116.0" y="790.0" type="line" smooth="yes"/>
      <point x="100.0" y="958.0"/>
      <point x="209.0" y="1080.0"/>
      <point x="376.0" y="1080.0" type="curve" smooth="yes"/>
      <point x="386.0" y="1080.0" type="line" smooth="yes"/>
      <point x="543.0" y="1080.0"/>
      <point x="615.0" y="980.0"/>
      <point x="611.0" y="822.0" type="curve" smooth="yes"/>
    </contour>
  </outline>
</glyph>
<glyph name="z" format="2">
  <advance height="1872" width="1098"/>
  <unicode hex="007A"/>
  <anchor x="677.0" y="1050.0" name="top"/>
  <outline>
    <contour>
      <point x="109.0" y="310.0" type="curve" smooth="yes"/>
      <point x="464.0" y="709.0" type="line"/>
      <point x="362.0" y="709.0" type="line" smooth="yes"/>
      <point x="183.0" y="709.0"/>
      <point x="102.0" y="771.0"/>
      <point x="102.0" y="870.0" type="curve" smooth="yes"/>
      <point x="102.0" y="880.0" type="line" smooth="yes"/>
      <point x="102.0" y="979.0"/>
      <point x="183.0" y="1050.0"/>
      <point x="362.0" y="1050.0" type="curve" smooth="yes"/>
      <point x="944.0" y="1050.0" type="line" smooth="yes"/>
      <point x="1141.0" y="1050.0"/>
      <point x="1105.0" y="885.0"/>
      <point x="981.0" y="760.0" type="curve" smooth="yes"/>
      <point x="605.0" y="341.0" type="line"/>
      <point x="772.0" y="341.0" type="line" smooth="yes"/>
      <point x="949.0" y="341.0"/>
      <point x="1032.0" y="277.0"/>
      <point x="1032.0" y="180.0" type="curve" smooth="yes"/>
      <point x="1032.0" y="170.0" type="line" smooth="yes"/>
      <point x="1032.0" y="73.0"/>
      <point x="949.0" y="0.0"/>
      <point x="772.0" y="0.0" type="curve" smooth="yes"/>
      <point x="122.0" y="0.0" type="line" smooth="yes"/>
      <point x="-64.0" y="0.0"/>
      <point x="-29.0" y="171.0"/>
    </contour>
  </outline>
</glyph>
<glyph name="braceleft" format="2">
  <advance height="2048" width="775"/>
  <unicode hex="007B"/>
  <outline>
    <contour>
      <point x="330.0" y="1278.0" type="line" smooth="yes"/>
      <point x="382.0" y="1505.0"/>
      <point x="524.0" y="1590.0"/>
      <point x="814.0" y="1600.0" type="curve" smooth="yes"/>
      <point x="922.0" y="1604.0"/>
      <point x="942.0" y="1547.0"/>
      <point x="927.0" y="1480.0" type="curve" smooth="yes"/>
      <point x="924.0" y="1470.0" type="line" smooth="yes"/>
      <point x="909.0" y="1403.0"/>
      <point x="878.0" y="1371.0"/>
      <point x="808.0" y="1360.0" type="curve" smooth="yes"/>
      <point x="758.0" y="1352.0"/>
      <point x="713.0" y="1312.0"/>
      <point x="673.0" y="1138.0" type="curve" smooth="yes"/>
      <point x="631.0" y="956.0" type="line" smooth="yes"/>
      <point x="588.0" y="771.0"/>
      <point x="476.0" y="668.0"/>
      <point x="309.0" y="620.0" type="curve"/>
      <point x="454.0" y="572.0"/>
      <point x="519.0" y="469.0"/>
      <point x="476.0" y="284.0" type="curve" smooth="yes"/>
      <point x="436.0" y="112.0" type="line" smooth="yes"/>
      <point x="396.0" y="-61.0"/>
      <point x="422.0" y="-102.0"/>
      <point x="467.0" y="-110.0" type="curve" smooth="yes"/>
      <point x="534.0" y="-121.0"/>
      <point x="549.0" y="-153.0"/>
      <point x="534.0" y="-220.0" type="curve" smooth="yes"/>
      <point x="530.0" y="-240.0" type="line" smooth="yes"/>
      <point x="515.0" y="-307.0"/>
      <point x="468.0" y="-364.0"/>
      <point x="360.0" y="-360.0" type="curve" smooth="yes"/>
      <point x="76.0" y="-350.0"/>
      <point x="-26.0" y="-265.0"/>
      <point x="26.0" y="-38.0" type="curve" smooth="yes"/>
      <point x="101.0" y="284.0" type="line" smooth="yes"/>
      <point x="127.0" y="397.0"/>
      <point x="114.0" y="451.0"/>
      <point x="71.0" y="472.0" type="curve" smooth="yes"/>
      <point x="18.0" y="498.0"/>
      <point x="-20.0" y="519.0"/>
      <point x="2.0" y="616.0" type="curve" smooth="yes"/>
      <point x="4.0" y="624.0" type="line" smooth="yes"/>
      <point x="26.0" y="721.0"/>
      <point x="75.0" y="743.0"/>
      <point x="137.0" y="767.0" type="curve" smooth="yes"/>
      <point x="195.0" y="789.0"/>
      <point x="230.0" y="842.0"/>
      <point x="256.0" y="956.0" type="curve" smooth="yes"/>
    </contour>
  </outline>
</glyph>
<glyph name="bar" format="2">
  <advance height="1920" width="515"/>
  <unicode hex="007C"/>
  <outline>
    <contour>
      <point x="504.0" y="1630.0" type="curve" smooth="yes"/>
      <point x="524.0" y="1630.0" type="line" smooth="yes"/>
      <point x="631.0" y="1630.0"/>
      <point x="666.0" y="1507.0"/>
      <point x="639.0" y="1390.0" type="curve" smooth="yes"/>
      <point x="283.0" y="-150.0" type="line" smooth="yes"/>
      <point x="258.0" y="-257.0"/>
      <point x="165.0" y="-390.0"/>
      <point x="58.0" y="-390.0" type="curve" smooth="yes"/>
      <point x="38.0" y="-390.0" type="line" smooth="yes"/>
      <point x="-69.0" y="-390.0"/>
      <point x="-102.0" y="-257.0"/>
      <point x="-77.0" y="-150.0" type="curve" smooth="yes"/>
      <point x="279.0" y="1390.0" type="line" smooth="yes"/>
      <point x="306.0" y="1507.0"/>
      <point x="397.0" y="1630.0"/>
    </contour>
  </outline>
</glyph>
<glyph name="braceright" format="2">
  <advance height="2048" width="775"/>
  <unicode hex="007D"/>
  <outline>
    <contour>
      <point x="491.0" y="-38.0" type="line" smooth="yes"/>
      <point x="439.0" y="-265.0"/>
      <point x="297.0" y="-350.0"/>
      <point x="7.0" y="-360.0" type="curve" smooth="yes"/>
      <point x="-101.0" y="-364.0"/>
      <point x="-120.0" y="-307.0"/>
      <point x="-105.0" y="-240.0" type="curve" smooth="yes"/>
      <point x="-103.0" y="-230.0" type="line" smooth="yes"/>
      <point x="-88.0" y="-163.0"/>
      <point x="-57.0" y="-131.0"/>
      <point x="13.0" y="-120.0" type="curve" smooth="yes"/>
      <point x="63.0" y="-112.0"/>
      <point x="109.0" y="-72.0"/>
      <point x="149.0" y="102.0" type="curve" smooth="yes"/>
      <point x="191.0" y="284.0" type="line" smooth="yes"/>
      <point x="234.0" y="469.0"/>
      <point x="345.0" y="572.0"/>
      <point x="512.0" y="620.0" type="curve"/>
      <point x="367.0" y="668.0"/>
      <point x="303.0" y="771.0"/>
      <point x="346.0" y="956.0" type="curve" smooth="yes"/>
      <point x="385.0" y="1128.0" type="line" smooth="yes"/>
      <point x="425.0" y="1301.0"/>
      <point x="400.0" y="1342.0"/>
      <point x="355.0" y="1350.0" type="curve" smooth="yes"/>
      <point x="288.0" y="1361.0"/>
      <point x="272.0" y="1393.0"/>
      <point x="287.0" y="1460.0" type="curve" smooth="yes"/>
      <point x="292.0" y="1480.0" type="line" smooth="yes"/>
      <point x="307.0" y="1547.0"/>
      <point x="353.0" y="1604.0"/>
      <point x="461.0" y="1600.0" type="curve" smooth="yes"/>
      <point x="745.0" y="1590.0"/>
      <point x="847.0" y="1505.0"/>
      <point x="795.0" y="1278.0" type="curve" smooth="yes"/>
      <point x="721.0" y="956.0" type="line" smooth="yes"/>
      <point x="695.0" y="843.0"/>
      <point x="707.0" y="789.0"/>
      <point x="750.0" y="768.0" type="curve" smooth="yes"/>
      <point x="803.0" y="742.0"/>
      <point x="841.0" y="721.0"/>
      <point x="819.0" y="624.0" type="curve" smooth="yes"/>
      <point x="817.0" y="616.0" type="line" smooth="yes"/>
      <point x="795.0" y="519.0"/>
      <point x="746.0" y="497.0"/>
      <point x="684.0" y="473.0" type="curve" smooth="yes"/>
      <point x="626.0" y="451.0"/>
      <point x="592.0" y="398.0"/>
      <point x="566.0" y="284.0" type="curve" smooth="yes"/>
    </contour>
  </outline>
</glyph>
<glyph name="asciitilde" format="2">
  <advance height="2048" width="1330"/>
  <unicode hex="007E"/>
  <outline>
    <contour>
      <point x="452.0" y="519.0" type="curve" smooth="yes"/>
      <point x="410.0" y="519.0"/>
      <point x="391.0" y="499.0"/>
      <point x="380.0" y="477.0" type="curve" smooth="yes"/>
      <point x="342.0" y="401.0"/>
      <point x="262.0" y="368.0"/>
      <point x="185.0" y="368.0" type="curve" smooth="yes"/>
      <point x="165.0" y="368.0" type="line" smooth="yes"/>
      <point x="58.0" y="368.0"/>
      <point x="-11.0" y="465.0"/>
      <point x="41.0" y="567.0" type="curve" smooth="yes"/>
      <point x="96.0" y="675.0"/>
      <point x="204.0" y="879.0"/>
      <point x="475.0" y="879.0" type="curve" smooth="yes"/>
      <point x="764.0" y="879.0"/>
      <point x="814.0" y="682.0"/>
      <point x="916.0" y="682.0" type="curve" smooth="yes"/>
      <point x="958.0" y="682.0"/>
      <point x="975.0" y="701.0"/>
      <point x="992.0" y="743.0" type="curve" smooth="yes"/>
      <point x="1016.0" y="800.0"/>
      <point x="1109.0" y="843.0"/>
      <point x="1186.0" y="843.0" type="curve" smooth="yes"/>
      <point x="1205.0" y="843.0" type="line" smooth="yes"/>
      <point x="1312.0" y="843.0"/>
      <point x="1391.0" y="746.0"/>
      <point x="1338.0" y="643.0" type="curve" smooth="yes"/>
      <point x="1283.0" y="535.0"/>
      <point x="1166.0" y="332.0"/>
      <point x="896.0" y="332.0" type="curve" smooth="yes"/>
      <point x="607.0" y="332.0"/>
      <point x="554.0" y="519.0"/>
    </contour>
  </outline>
</glyph>
<glyph name="exclamdown" format="2">
  <advance height="1920" width="740"/>
  <unicode hex="00A1"/>
  <outline>
    <contour>
      <point x="435.0" y="1090.0" type="curve" smooth="yes"/>
      <point x="465.0" y="1090.0" type="line" smooth="yes"/>
      <point x="642.0" y="1090.0"/>
      <point x="745.0" y="987.0"/>
      <point x="745.0" y="840.0" type="curve" smooth="yes"/>
      <point x="745.0" y="800.0" type="line" smooth="yes"/>
      <point x="745.0" y="653.0"/>
      <point x="642.0" y="550.0"/>
      <point x="465.0" y="550.0" type="curve" smooth="yes"/>
      <point x="435.0" y="550.0" type="line" smooth="yes"/>
      <point x="258.0" y="550.0"/>
      <point x="155.0" y="653.0"/>
      <point x="155.0" y="800.0" type="curve" smooth="yes"/>
      <point x="155.0" y="840.0" type="line" smooth="yes"/>
      <point x="155.0" y="987.0"/>
      <point x="258.0" y="1090.0"/>
    </contour>
    <contour>
      <point x="525.0" y="-130.0" type="curve" smooth="yes"/>
      <point x="518.0" y="-160.0" type="line" smooth="yes"/>
      <point x="482.0" y="-317.0"/>
      <point x="323.0" y="-430.0"/>
      <point x="166.0" y="-430.0" type="curve" smooth="yes"/>
      <point x="136.0" y="-430.0" type="line" smooth="yes"/>
      <point x="-21.0" y="-430.0"/>
      <point x="-128.0" y="-317.0"/>
      <point x="-92.0" y="-160.0" type="curve" smooth="yes"/>
      <point x="-85.0" y="-130.0" type="line" smooth="yes"/>
      <point x="-60.0" y="-23.0"/>
      <point x="-26.0" y="54.0"/>
      <point x="60.0" y="190.0" type="curve" smooth="yes"/>
      <point x="185.0" y="390.0" type="line" smooth="yes"/>
      <point x="243.0" y="483.0"/>
      <point x="288.0" y="520.0"/>
      <point x="365.0" y="520.0" type="curve" smooth="yes"/>
      <point x="375.0" y="520.0" type="line" smooth="yes"/>
      <point x="452.0" y="520.0"/>
      <point x="480.0" y="483.0"/>
      <point x="495.0" y="390.0" type="curve" smooth="yes"/>
      <point x="528.0" y="190.0" type="line" smooth="yes"/>
      <point x="551.0" y="54.0"/>
      <point x="550.0" y="-23.0"/>
    </contour>
  </outline>
</glyph>
<glyph name="cent" format="2">
  <advance height="1920" width="1097"/>
  <unicode hex="00A2"/>
  <outline>
    <contour>
      <point x="822.0" y="1240.0" type="curve" smooth="yes"/>
      <point x="832.0" y="1240.0" type="line" smooth="yes"/>
      <point x="849.0" y="1240.0"/>
      <point x="864.0" y="1227.0"/>
      <point x="855.0" y="1190.0" type="curve" smooth="yes"/>
      <point x="548.0" y="-140.0" type="line" smooth="yes"/>
      <point x="539.0" y="-177.0"/>
      <point x="519.0" y="-190.0"/>
      <point x="502.0" y="-190.0" type="curve" smooth="yes"/>
      <point x="492.0" y="-190.0" type="line" smooth="yes"/>
      <point x="475.0" y="-190.0"/>
      <point x="459.0" y="-177.0"/>
      <point x="468.0" y="-140.0" type="curve" smooth="yes"/>
      <point x="775.0" y="1190.0" type="line" smooth="yes"/>
      <point x="784.0" y="1227.0"/>
      <point x="805.0" y="1240.0"/>
    </contour>
    <component base="c"/>
  </outline>
</glyph>
<glyph name="sterling" format="2">
  <advance height="1920" width="1420"/>
  <unicode hex="00A3"/>
  <outline>
    <contour>
      <point x="57.0" y="685.0" type="curve" smooth="yes"/>
      <point x="57.0" y="700.0" type="line" smooth="yes"/>
      <point x="57.0" y="807.0"/>
      <point x="140.0" y="850.0"/>
      <point x="247.0" y="850.0" type="curve" smooth="yes"/>
      <point x="937.0" y="850.0" type="line" smooth="yes"/>
      <point x="1044.0" y="850.0"/>
      <point x="1127.0" y="807.0"/>
      <point x="1127.0" y="700.0" type="curve" smooth="yes"/>
      <point x="1127.0" y="685.0" type="line" smooth="yes"/>
      <point x="1127.0" y="578.0"/>
      <point x="1044.0" y="535.0"/>
      <point x="937.0" y="535.0" type="curve" smooth="yes"/>
      <point x="247.0" y="535.0" type="line" smooth="yes"/>
      <point x="140.0" y="535.0"/>
      <point x="57.0" y="578.0"/>
    </contour>
    <contour>
      <point x="124.0" y="392.0" type="curve" smooth="yes"/>
      <point x="225.0" y="440.0"/>
      <point x="312.0" y="495.0"/>
      <point x="340.0" y="614.0" type="curve" smooth="yes"/>
      <point x="381.0" y="792.0"/>
      <point x="194.0" y="795.0"/>
      <point x="251.0" y="1043.0" type="curve" smooth="yes"/>
      <point x="304.0" y="1273.0"/>
      <point x="589.0" y="1435.0"/>
      <point x="926.0" y="1435.0" type="curve" smooth="yes"/>
      <point x="1270.0" y="1435.0"/>
      <point x="1415.0" y="1268.0"/>
      <point x="1428.0" y="1121.0" type="curve" smooth="yes"/>
      <point x="1441.0" y="979.0"/>
      <point x="1318.0" y="913.0"/>
      <point x="1181.0" y="913.0" type="curve" smooth="yes"/>
      <point x="1171.0" y="913.0" type="line" smooth="yes"/>
      <point x="1064.0" y="913.0"/>
      <point x="982.0" y="963.0"/>
      <point x="967.0" y="1031.0" type="curve" smooth="yes"/>
      <point x="960.0" y="1064.0"/>
      <point x="923.0" y="1095.0"/>
      <point x="868.0" y="1095.0" type="curve" smooth="yes"/>
      <point x="791.0" y="1095.0"/>
      <point x="735.0" y="1063.0"/>
      <point x="719.0" y="993.0" type="curve" smooth="yes"/>
      <point x="691.0" y="872.0"/>
      <point x="854.0" y="850.0"/>
      <point x="807.0" y="644.0" type="curve" smooth="yes"/>
      <point x="767.0" y="472.0"/>
      <point x="623.0" y="411.0"/>
      <point x="491.0" y="355.0" type="curve"/>
      <point x="1072.0" y="355.0" type="line" smooth="yes"/>
      <point x="1229.0" y="355.0"/>
      <point x="1309.0" y="297.0"/>
      <point x="1282.0" y="180.0" type="curve" smooth="yes"/>
      <point x="1280.0" y="175.0" type="line" smooth="yes"/>
      <point x="1253.0" y="58.0"/>
      <point x="1147.0" y="0.0"/>
      <point x="990.0" y="0.0" type="curve" smooth="yes"/>
      <point x="160.0" y="0.0" type="line" smooth="yes"/>
      <point x="3.0" y="0.0"/>
      <point x="-60.0" y="83.0"/>
      <point x="-38.0" y="180.0" type="curve" smooth="yes"/>
      <point x="-33.0" y="205.0" type="line" smooth="yes"/>
      <point x="-14.0" y="289.0"/>
      <point x="12.0" y="338.0"/>
    </contour>
  </outline>
</glyph>
<glyph name="currency" format="2">
  <advance width="1112"/>
  <unicode hex="00A4"/>
  <outline>
    <contour>
      <point x="1176.0" y="1182.0" type="curve" smooth="yes"/>
      <point x="1188.0" y="1167.0" type="line" smooth="yes"/>
      <point x="1246.0" y="1091.0"/>
      <point x="1198.0" y="1002.0"/>
      <point x="1104.0" y="926.0" type="curve" smooth="yes"/>
      <point x="1035.0" y="870.0" type="line" smooth="yes"/>
      <point x="1029.0" y="865.0"/>
      <point x="1025.0" y="865.0"/>
      <point x="1021.0" y="870.0" type="curve" smooth="yes"/>
      <point x="845.0" y="1098.0" type="line" smooth="yes"/>
      <point x="841.0" y="1103.0"/>
      <point x="843.0" y="1107.0"/>
      <point x="849.0" y="1112.0" type="curve" smooth="yes"/>
      <point x="918.0" y="1168.0" type="line" smooth="yes"/>
      <point x="1012.0" y="1244.0"/>
      <point x="1118.0" y="1258.0"/>
    </contour>
    <contour>
      <point x="166.0" y="546.0" type="curve" smooth="yes"/>
      <point x="341.0" y="318.0" type="line" smooth="yes"/>
      <point x="345.0" y="313.0"/>
      <point x="344.0" y="309.0"/>
      <point x="338.0" y="304.0" type="curve" smooth="yes"/>
      <point x="269.0" y="248.0" type="line" smooth="yes"/>
      <point x="175.0" y="172.0"/>
      <point x="80.0" y="143.0"/>
      <point x="22.0" y="219.0" type="curve" smooth="yes"/>
      <point x="10.0" y="235.0" type="line" smooth="yes"/>
      <point x="-48.0" y="311.0"/>
      <point x="-11.0" y="414.0"/>
      <point x="83.0" y="490.0" type="curve" smooth="yes"/>
      <point x="152.0" y="546.0" type="line" smooth="yes"/>
      <point x="158.0" y="551.0"/>
      <point x="162.0" y="551.0"/>
    </contour>
    <contour>
      <point x="219.0" y="1173.0" type="curve" smooth="yes"/>
      <point x="239.0" y="1190.0" type="line" smooth="yes"/>
      <point x="333.0" y="1266.0"/>
      <point x="424.0" y="1244.0"/>
      <point x="482.0" y="1168.0" type="curve" smooth="yes"/>
      <point x="525.0" y="1112.0" type="line" smooth="yes"/>
      <point x="529.0" y="1107.0"/>
      <point x="527.0" y="1103.0"/>
      <point x="521.0" y="1098.0" type="curve" smooth="yes"/>
      <point x="241.0" y="869.0" type="line" smooth="yes"/>
      <point x="235.0" y="864.0"/>
      <point x="231.0" y="864.0"/>
      <point x="227.0" y="869.0" type="curve" smooth="yes"/>
      <point x="183.0" y="926.0" type="line" smooth="yes"/>
      <point x="125.0" y="1002.0"/>
      <point x="125.0" y="1097.0"/>
    </contour>
    <contour>
      <point x="664.0" y="318.0" type="curve" smooth="yes"/>
      <point x="860.0" y="476.0" type="line" smooth="yes"/>
      <point x="866.0" y="481.0"/>
      <point x="956.0" y="551.0"/>
      <point x="960.0" y="546.0" type="curve" smooth="yes"/>
      <point x="1003.0" y="490.0" type="line" smooth="yes"/>
      <point x="1061.0" y="414.0"/>
      <point x="1062.0" y="318.0"/>
      <point x="968.0" y="242.0" type="curve" smooth="yes"/>
      <point x="947.0" y="226.0" type="line" smooth="yes"/>
      <point x="853.0" y="150.0"/>
      <point x="763.0" y="171.0"/>
      <point x="705.0" y="247.0" type="curve" smooth="yes"/>
      <point x="661.0" y="304.0" type="line" smooth="yes"/>
      <point x="657.0" y="309.0"/>
      <point x="658.0" y="313.0"/>
    </contour>
    <contour>
      <point x="107.0" y="710.0" type="curve" smooth="yes"/>
      <point x="169.0" y="979.0"/>
      <point x="441.0" y="1200.0"/>
      <point x="710.0" y="1200.0" type="curve" smooth="yes"/>
      <point x="979.0" y="1200.0"/>
      <point x="1149.0" y="979.0"/>
      <point x="1087.0" y="710.0" type="curve" smooth="yes"/>
      <point x="1025.0" y="441.0"/>
      <point x="753.0" y="220.0"/>
      <point x="484.0" y="220.0" type="curve" smooth="yes"/>
      <point x="215.0" y="220.0"/>
      <point x="45.0" y="441.0"/>
    </contour>
    <contour>
      <point x="467.0" y="710.0" type="curve" smooth="yes"/>
      <point x="446.0" y="621.0"/>
      <point x="476.0" y="570.0"/>
      <point x="565.0" y="570.0" type="curve" smooth="yes"/>
      <point x="654.0" y="570.0"/>
      <point x="706.0" y="621.0"/>
      <point x="727.0" y="710.0" type="curve" smooth="yes"/>
      <point x="748.0" y="799.0"/>
      <point x="718.0" y="850.0"/>
      <point x="629.0" y="850.0" type="curve" smooth="yes"/>
      <point x="540.0" y="850.0"/>
      <point x="488.0" y="799.0"/>
    </contour>
  </outline>
</glyph>
<glyph name="yen" format="2">
  <advance height="1920" width="1447"/>
  <unicode hex="00A5"/>
  <outline>
    <contour>
      <point x="105.0390625" y="335.0" type="curve" smooth="yes"/>
      <point x="105.0390625" y="340.0" type="line" smooth="yes"/>
      <point x="105.0390625" y="377.0"/>
      <point x="138.0390625" y="400.0"/>
      <point x="215.0390625" y="400.0" type="curve" smooth="yes"/>
      <point x="1185.0390625" y="400.0" type="line" smooth="yes"/>
      <point x="1262.0390625" y="400.0"/>
      <point x="1295.0390625" y="377.0"/>
      <point x="1295.0390625" y="340.0" type="curve" smooth="yes"/>
      <point x="1295.0390625" y="335.0" type="line" smooth="yes"/>
      <point x="1295.0390625" y="298.0"/>
      <point x="1262.0390625" y="275.0"/>
      <point x="1185.0390625" y="275.0" type="curve" smooth="yes"/>
      <point x="215.0390625" y="275.0" type="line" smooth="yes"/>
      <point x="138.0390625" y="275.0"/>
      <point x="105.0390625" y="298.0"/>
    </contour>
    <contour>
      <point x="165.0390625" y="605.0" type="curve" smooth="yes"/>
      <point x="165.0390625" y="610.0" type="line" smooth="yes"/>
      <point x="165.0390625" y="647.0"/>
      <point x="198.0390625" y="670.0"/>
      <point x="275.0390625" y="670.0" type="curve" smooth="yes"/>
      <point x="1245.0390625" y="670.0" type="line" smooth="yes"/>
      <point x="1322.0390625" y="670.0"/>
      <point x="1355.0390625" y="647.0"/>
      <point x="1355.0390625" y="610.0" type="curve" smooth="yes"/>
      <point x="1355.0390625" y="605.0" type="line" smooth="yes"/>
      <point x="1355.0390625" y="568.0"/>
      <point x="1322.0390625" y="545.0"/>
      <point x="1245.0390625" y="545.0" type="curve" smooth="yes"/>
      <point x="275.0390625" y="545.0" type="line" smooth="yes"/>
      <point x="198.0390625" y="545.0"/>
      <point x="165.0390625" y="568.0"/>
    </contour>
    <component base="Y"/>
  </outline>
</glyph>
<glyph name="brokenbar" format="2">
  <advance height="1920" width="515"/>
  <unicode hex="00A6"/>
  <outline>
    <contour>
      <point x="234.0" y="460.0" type="curve" smooth="yes"/>
      <point x="254.0" y="460.0" type="line" smooth="yes"/>
      <point x="361.0" y="460.0"/>
      <point x="396.0" y="337.0"/>
      <point x="369.0" y="220.0" type="curve" smooth="yes"/>
      <point x="283.0" y="-150.0" type="line" smooth="yes"/>
      <point x="258.0" y="-257.0"/>
      <point x="165.0" y="-390.0"/>
      <point x="58.0" y="-390.0" type="curve" smooth="yes"/>
      <point x="38.0" y="-390.0" type="line" smooth="yes"/>
      <point x="-69.0" y="-390.0"/>
      <point x="-102.0" y="-257.0"/>
      <point x="-77.0" y="-150.0" type="curve" smooth="yes"/>
      <point x="9.0" y="220.0" type="line" smooth="yes"/>
      <point x="36.0" y="337.0"/>
      <point x="127.0" y="460.0"/>
    </contour>
    <contour>
      <point x="504.0" y="1630.0" type="curve" smooth="yes"/>
      <point x="524.0" y="1630.0" type="line" smooth="yes"/>
      <point x="631.0" y="1630.0"/>
      <point x="666.0" y="1507.0"/>
      <point x="639.0" y="1390.0" type="curve" smooth="yes"/>
      <point x="553.0" y="1020.0" type="line" smooth="yes"/>
      <point x="528.0" y="913.0"/>
      <point x="435.0" y="780.0"/>
      <point x="328.0" y="780.0" type="curve" smooth="yes"/>
      <point x="308.0" y="780.0" type="line" smooth="yes"/>
      <point x="201.0" y="780.0"/>
      <point x="168.0" y="913.0"/>
      <point x="193.0" y="1020.0" type="curve" smooth="yes"/>
      <point x="279.0" y="1390.0" type="line" smooth="yes"/>
      <point x="306.0" y="1507.0"/>
      <point x="397.0" y="1630.0"/>
    </contour>
  </outline>
</glyph>
<glyph name="copyright" format="2">
  <advance width="1484"/>
  <unicode hex="00A9"/>
  <outline>
    <contour>
      <point x="1130.0" y="507.0" type="curve" smooth="yes"/>
      <point x="1068.0" y="367.0"/>
      <point x="922.0" y="229.0"/>
      <point x="684.0" y="229.0" type="curve" smooth="yes"/>
      <point x="392.0" y="229.0"/>
      <point x="304.0" y="393.0"/>
      <point x="357.0" y="621.0" type="curve" smooth="yes"/>
      <point x="380.0" y="720.0" type="line" smooth="yes"/>
      <point x="433.0" y="948.0"/>
      <point x="595.0" y="1111.0"/>
      <point x="887.0" y="1111.0" type="curve" smooth="yes"/>
      <point x="1125.0" y="1111.0"/>
      <point x="1178.0" y="992.0"/>
      <point x="1195.0" y="888.0" type="curve" smooth="yes"/>
      <point x="1209.0" y="804.0"/>
      <point x="1149.0" y="756.0"/>
      <point x="1091.0" y="756.0" type="curve" smooth="yes"/>
      <point x="1061.0" y="756.0" type="line" smooth="yes"/>
      <point x="1009.0" y="756.0"/>
      <point x="986.0" y="790.0"/>
      <point x="980.0" y="828.0" type="curve" smooth="yes"/>
      <point x="972.0" y="875.0"/>
      <point x="934.0" y="907.0"/>
      <point x="870.0" y="907.0" type="curve" smooth="yes"/>
      <point x="782.0" y="907.0"/>
      <point x="711.0" y="852.0"/>
      <point x="682.0" y="726.0" type="curve" smooth="yes"/>
      <point x="656.0" y="615.0" type="line" smooth="yes"/>
      <point x="626.0" y="483.0"/>
      <point x="667.0" y="433.0"/>
      <point x="767.0" y="433.0" type="curve" smooth="yes"/>
      <point x="849.0" y="433.0"/>
      <point x="881.0" y="456.0"/>
      <point x="917.0" y="525.0" type="curve" smooth="yes"/>
      <point x="938.0" y="564.0"/>
      <point x="991.0" y="627.0"/>
      <point x="1055.0" y="627.0" type="curve" smooth="yes"/>
      <point x="1073.0" y="627.0" type="line" smooth="yes"/>
      <point x="1149.0" y="627.0"/>
      <point x="1159.0" y="571.0"/>
    </contour>
    <contour>
      <point x="1473.0" y="668.0" type="curve" smooth="yes"/>
      <point x="1384.0" y="284.0"/>
      <point x="999.0" y="-28.0"/>
      <point x="615.0" y="-28.0" type="curve" smooth="yes"/>
      <point x="231.0" y="-28.0"/>
      <point x="-10.0" y="284.0"/>
      <point x="79.0" y="668.0" type="curve" smooth="yes"/>
      <point x="168.0" y="1052.0"/>
      <point x="552.0" y="1366.0"/>
      <point x="936.0" y="1366.0" type="curve" smooth="yes"/>
      <point x="1320.0" y="1366.0"/>
      <point x="1562.0" y="1052.0"/>
    </contour>
    <contour>
      <point x="1387.0" y="668.0" type="curve" smooth="yes"/>
      <point x="1465.0" y="1006.0"/>
      <point x="1255.0" y="1280.0"/>
      <point x="917.0" y="1280.0" type="curve" smooth="yes"/>
      <point x="579.0" y="1280.0"/>
      <point x="243.0" y="1006.0"/>
      <point x="165.0" y="668.0" type="curve" smooth="yes"/>
      <point x="87.0" y="330.0"/>
      <point x="296.0" y="58.0"/>
      <point x="634.0" y="58.0" type="curve" smooth="yes"/>
      <point x="972.0" y="58.0"/>
      <point x="1309.0" y="330.0"/>
    </contour>
  </outline>
</glyph>
<glyph name="ordfeminine" format="2">
  <advance height="1920" width="948"/>
  <unicode hex="00AA"/>
  <outline>
    <contour>
      <point x="475.0" y="892.0" type="curve" smooth="yes"/>
      <point x="466.0" y="854.0"/>
      <point x="478.0" y="821.0"/>
      <point x="527.0" y="821.0" type="curve" smooth="yes"/>
      <point x="577.0" y="821.0"/>
      <point x="609.0" y="865.0"/>
      <point x="625.0" y="933.0" type="curve"/>
      <point x="679.0" y="827.0" type="line"/>
      <point x="651.0" y="705.0"/>
      <point x="507.0" y="609.0"/>
      <point x="338.0" y="609.0" type="curve" smooth="yes"/>
      <point x="164.0" y="609.0"/>
      <point x="65.0" y="693.0"/>
      <point x="102.0" y="852.0" type="curve" smooth="yes"/>
      <point x="147.0" y="1047.0"/>
      <point x="334.0" y="1115.0"/>
      <point x="544.0" y="1139.0" type="curve" smooth="yes"/>
      <point x="657.0" y="1152.0"/>
      <point x="681.0" y="1175.0"/>
      <point x="687.0" y="1201.0" type="curve"/>
      <point x="670.0" y="1023.0" type="line"/>
      <point x="661.0" y="985.0"/>
      <point x="608.0" y="973.0"/>
      <point x="568.0" y="964.0" type="curve" smooth="yes"/>
      <point x="516.0" y="952.0"/>
      <point x="484.0" y="930.0"/>
    </contour>
    <contour>
      <point x="590.0" y="779.0" type="curve" smooth="yes"/>
      <point x="692.0" y="1221.0" type="line" smooth="yes"/>
      <point x="698.0" y="1245.0"/>
      <point x="681.0" y="1271.0"/>
      <point x="642.0" y="1271.0" type="curve" smooth="yes"/>
      <point x="611.0" y="1271.0"/>
      <point x="592.0" y="1261.0"/>
      <point x="580.0" y="1242.0" type="curve" smooth="yes"/>
      <point x="551.0" y="1195.0"/>
      <point x="513.0" y="1177.0"/>
      <point x="409.0" y="1177.0" type="curve" smooth="yes"/>
      <point x="399.0" y="1177.0" type="line" smooth="yes"/>
      <point x="295.0" y="1177.0"/>
      <point x="267.0" y="1241.0"/>
      <point x="321.0" y="1322.0" type="curve" smooth="yes"/>
      <point x="360.0" y="1381.0"/>
      <point x="497.0" y="1489.0"/>
      <point x="734.0" y="1489.0" type="curve" smooth="yes"/>
      <point x="1020.0" y="1489.0"/>
      <point x="1085.0" y="1375.0"/>
      <point x="1048.0" y="1214.0" type="curve" smooth="yes"/>
      <point x="969.0" y="869.0" type="line" smooth="yes"/>
      <point x="954.0" y="802.0"/>
      <point x="942.0" y="740.0"/>
      <point x="945.0" y="708.0" type="curve" smooth="yes"/>
      <point x="951.0" y="635.0"/>
      <point x="896.0" y="614.0"/>
      <point x="792.0" y="614.0" type="curve" smooth="yes"/>
      <point x="762.0" y="614.0" type="line" smooth="yes"/>
      <point x="658.0" y="614.0"/>
      <point x="617.0" y="632.0"/>
      <point x="602.0" y="664.0" type="curve" smooth="yes"/>
      <point x="589.0" y="692.0"/>
      <point x="577.0" y="722.0"/>
    </contour>
  </outline>
</glyph>
<glyph name="logicalnot" format="2">
  <advance height="2048" width="1150"/>
  <unicode hex="00AC"/>
  <outline>
    <contour>
      <point x="81.0" y="655.0" type="curve" smooth="yes"/>
      <point x="89.0" y="690.0" type="line" smooth="yes"/>
      <point x="114.0" y="797.0"/>
      <point x="209.0" y="850.0"/>
      <point x="316.0" y="850.0" type="curve" smooth="yes"/>
      <point x="896.0" y="850.0" type="line" smooth="yes"/>
      <point x="1103.0" y="850.0"/>
      <point x="1144.0" y="797.0"/>
      <point x="1096.0" y="590.0" type="curve" smooth="yes"/>
      <point x="1070.0" y="475.0" type="line" smooth="yes"/>
      <point x="1045.0" y="368.0"/>
      <point x="973.0" y="285.0"/>
      <point x="866.0" y="285.0" type="curve" smooth="yes"/>
      <point x="796.0" y="285.0" type="line" smooth="yes"/>
      <point x="689.0" y="285.0"/>
      <point x="655.0" y="368.0"/>
      <point x="680.0" y="475.0" type="curve" smooth="yes"/>
      <point x="684.0" y="495.0" type="line"/>
      <point x="234.0" y="495.0" type="line" smooth="yes"/>
      <point x="127.0" y="495.0"/>
      <point x="56.0" y="548.0"/>
    </contour>
  </outline>
</glyph>
<glyph name="registered" format="2">
  <advance width="1484"/>
  <unicode hex="00AE"/>
  <outline>
    <contour>
      <point x="747.0" y="890.0" type="line"/>
      <point x="705.0" y="704.0" type="line"/>
      <point x="765.0" y="704.0" type="line" smooth="yes"/>
      <point x="841.0" y="704.0"/>
      <point x="867.0" y="742.0"/>
      <point x="879.0" y="796.0" type="curve" smooth="yes"/>
      <point x="879.0" y="798.0" type="line" smooth="yes"/>
      <point x="890.0" y="846.0"/>
      <point x="883.0" y="890.0"/>
      <point x="807.0" y="890.0" type="curve" smooth="yes"/>
    </contour>
    <contour>
      <point x="916.0" y="1100.0" type="line" smooth="yes"/>
      <point x="1160.0" y="1100.0"/>
      <point x="1223.0" y="987.0"/>
      <point x="1191.0" y="849.0" type="curve" smooth="yes"/>
      <point x="1188.0" y="835.0" type="line" smooth="yes"/>
      <point x="1155.0" y="691.0"/>
      <point x="998.0" y="608.0"/>
      <point x="802.0" y="608.0" type="curve"/>
      <point x="811.0" y="644.0" type="line"/>
      <point x="1025.0" y="644.0"/>
      <point x="1146.0" y="627.0"/>
      <point x="1113.0" y="483.0" type="curve" smooth="yes"/>
      <point x="1111.0" y="475.0" type="line" smooth="yes"/>
      <point x="1104.0" y="443.0"/>
      <point x="1105.0" y="416.0"/>
      <point x="1107.0" y="397.0" type="curve" smooth="yes"/>
      <point x="1108.0" y="381.0"/>
      <point x="1110.0" y="354.0"/>
      <point x="1103.0" y="322.0" type="curve" smooth="yes"/>
      <point x="1103.0" y="319.0" type="line" smooth="yes"/>
      <point x="1091.0" y="267.0"/>
      <point x="1052.0" y="242.0"/>
      <point x="964.0" y="242.0" type="curve" smooth="yes"/>
      <point x="946.0" y="242.0" type="line" smooth="yes"/>
      <point x="855.0" y="242.0"/>
      <point x="796.0" y="260.0"/>
      <point x="791.0" y="343.0" type="curve" smooth="yes"/>
      <point x="789.0" y="375.0"/>
      <point x="789.0" y="405.0"/>
      <point x="801.0" y="457.0" type="curve" smooth="yes"/>
      <point x="807.0" y="483.0" type="line" smooth="yes"/>
      <point x="818.0" y="531.0"/>
      <point x="806.0" y="554.0"/>
      <point x="742.0" y="554.0" type="curve" smooth="yes"/>
      <point x="670.0" y="554.0" type="line"/>
      <point x="635.0" y="404.0" type="line" smooth="yes"/>
      <point x="611.0" y="298.0"/>
      <point x="548.0" y="242.0"/>
      <point x="454.0" y="242.0" type="curve" smooth="yes"/>
      <point x="448.0" y="242.0" type="line" smooth="yes"/>
      <point x="354.0" y="242.0"/>
      <point x="317.0" y="298.0"/>
      <point x="341.0" y="404.0" type="curve" smooth="yes"/>
      <point x="459.0" y="914.0" type="line" smooth="yes"/>
      <point x="488.0" y="1038.0"/>
      <point x="564.0" y="1100.0"/>
      <point x="688.0" y="1100.0" type="curve" smooth="yes"/>
    </contour>
    <contour>
      <point x="1473.0" y="668.0" type="curve" smooth="yes"/>
      <point x="1384.0" y="284.0"/>
      <point x="999.0" y="-28.0"/>
      <point x="615.0" y="-28.0" type="curve" smooth="yes"/>
      <point x="231.0" y="-28.0"/>
      <point x="-10.0" y="284.0"/>
      <point x="79.0" y="668.0" type="curve" smooth="yes"/>
      <point x="168.0" y="1052.0"/>
      <point x="552.0" y="1366.0"/>
      <point x="936.0" y="1366.0" type="curve" smooth="yes"/>
      <point x="1320.0" y="1366.0"/>
      <point x="1562.0" y="1052.0"/>
    </contour>
    <contour>
      <point x="1387.0" y="668.0" type="curve" smooth="yes"/>
      <point x="1465.0" y="1006.0"/>
      <point x="1255.0" y="1280.0"/>
      <point x="917.0" y="1280.0" type="curve" smooth="yes"/>
      <point x="579.0" y="1280.0"/>
      <point x="243.0" y="1006.0"/>
      <point x="165.0" y="668.0" type="curve" smooth="yes"/>
      <point x="87.0" y="330.0"/>
      <point x="296.0" y="58.0"/>
      <point x="634.0" y="58.0" type="curve" smooth="yes"/>
      <point x="972.0" y="58.0"/>
      <point x="1309.0" y="330.0"/>
    </contour>
  </outline>
</glyph>
<glyph name="plusminus" format="2">
  <advance width="1168"/>
  <unicode hex="00B1"/>
  <outline>
    <contour>
      <point x="15.0" y="260.0" type="curve" smooth="yes"/>
      <point x="15.0" y="295.0" type="line" smooth="yes"/>
      <point x="15.0" y="402.0"/>
      <point x="98.0" y="455.0"/>
      <point x="205.0" y="455.0" type="curve" smooth="yes"/>
      <point x="835.0" y="455.0" type="line" smooth="yes"/>
      <point x="942.0" y="455.0"/>
      <point x="1025.0" y="402.0"/>
      <point x="1025.0" y="295.0" type="curve" smooth="yes"/>
      <point x="1025.0" y="260.0" type="line" smooth="yes"/>
      <point x="1025.0" y="153.0"/>
      <point x="942.0" y="100.0"/>
      <point x="835.0" y="100.0" type="curve" smooth="yes"/>
      <point x="205.0" y="100.0" type="line" smooth="yes"/>
      <point x="98.0" y="100.0"/>
      <point x="15.0" y="153.0"/>
    </contour>
    <contour>
      <point x="195.0" y="1025.0" type="curve" smooth="yes"/>
      <point x="195.0" y="1060.0" type="line" smooth="yes"/>
      <point x="195.0" y="1167.0"/>
      <point x="278.0" y="1220.0"/>
      <point x="385.0" y="1220.0" type="curve" smooth="yes"/>
      <point x="1015.0" y="1220.0" type="line" smooth="yes"/>
      <point x="1122.0" y="1220.0"/>
      <point x="1205.0" y="1167.0"/>
      <point x="1205.0" y="1060.0" type="curve" smooth="yes"/>
      <point x="1205.0" y="1025.0" type="line" smooth="yes"/>
      <point x="1205.0" y="918.0"/>
      <point x="1122.0" y="865.0"/>
      <point x="1015.0" y="865.0" type="curve" smooth="yes"/>
      <point x="385.0" y="865.0" type="line" smooth="yes"/>
      <point x="278.0" y="865.0"/>
      <point x="195.0" y="918.0"/>
    </contour>
    <contour>
      <point x="796.0" y="1520.0" type="curve" smooth="yes"/>
      <point x="826.0" y="1520.0" type="line" smooth="yes"/>
      <point x="933.0" y="1520.0"/>
      <point x="967.0" y="1437.0"/>
      <point x="942.0" y="1330.0" type="curve" smooth="yes"/>
      <point x="804.0" y="730.0" type="line" smooth="yes"/>
      <point x="779.0" y="623.0"/>
      <point x="707.0" y="540.0"/>
      <point x="600.0" y="540.0" type="curve" smooth="yes"/>
      <point x="570.0" y="540.0" type="line" smooth="yes"/>
      <point x="463.0" y="540.0"/>
      <point x="429.0" y="623.0"/>
      <point x="454.0" y="730.0" type="curve" smooth="yes"/>
      <point x="592.0" y="1330.0" type="line" smooth="yes"/>
      <point x="617.0" y="1437.0"/>
      <point x="689.0" y="1520.0"/>
    </contour>
  </outline>
</glyph>
<glyph name="acute" format="2">
  <advance width="773"/>
  <unicode hex="00B4"/>
  <outline>
    <contour>
      <point x="260.0" y="1054.0" type="line" smooth="yes"/>
      <point x="203.0" y="1054.0"/>
      <point x="194.0" y="1105.0"/>
      <point x="249.0" y="1214.0" type="curve" smooth="yes"/>
      <point x="288.0" y="1290.0" type="line" smooth="yes"/>
      <point x="338.0" y="1390.0"/>
      <point x="415.0" y="1430.0"/>
      <point x="572.0" y="1430.0" type="curve" smooth="yes"/>
      <point x="582.0" y="1430.0" type="line" smooth="yes"/>
      <point x="739.0" y="1430.0"/>
      <point x="833.0" y="1339.0"/>
      <point x="659.0" y="1230.0" type="curve" smooth="yes"/>
      <point x="617.0" y="1204.0" type="line" smooth="yes"/>
      <point x="483.0" y="1121.0"/>
      <point x="357.0" y="1054.0"/>
      <point x="270.0" y="1054.0" type="curve" smooth="yes"/>
    </contour>
  </outline>
</glyph>
<glyph name="mu" format="2">
  <advance height="1920" width="1255"/>
  <unicode hex="00B5"/>
  <outline>
    <contour>
      <point x="414.0" y="1080.0" type="curve" smooth="yes"/>
      <point x="424.0" y="1080.0" type="line" smooth="yes"/>
      <point x="571.0" y="1080.0"/>
      <point x="645.0" y="997.0"/>
      <point x="604.0" y="820.0" type="curve" smooth="yes"/>
      <point x="385.0" y="-130.0" type="line" smooth="yes"/>
      <point x="344.0" y="-307.0"/>
      <point x="232.0" y="-390.0"/>
      <point x="85.0" y="-390.0" type="curve" smooth="yes"/>
      <point x="75.0" y="-390.0" type="line" smooth="yes"/>
      <point x="-72.0" y="-390.0"/>
      <point x="-146.0" y="-307.0"/>
      <point x="-105.0" y="-130.0" type="curve" smooth="yes"/>
      <point x="114.0" y="820.0" type="line" smooth="yes"/>
      <point x="155.0" y="997.0"/>
      <point x="267.0" y="1080.0"/>
    </contour>
    <contour>
      <point x="848.0" y="-30.0" type="curve" smooth="yes"/>
      <point x="828.0" y="-30.0" type="line" smooth="yes"/>
      <point x="681.0" y="-30.0"/>
      <point x="617.0" y="53.0"/>
      <point x="658.0" y="230.0" type="curve" smooth="yes"/>
      <point x="689.0" y="363.0" type="line"/>
      <point x="685.0" y="390.0" type="line"/>
      <point x="784.0" y="820.0" type="line" smooth="yes"/>
      <point x="825.0" y="997.0"/>
      <point x="932.0" y="1080.0"/>
      <point x="1079.0" y="1080.0" type="curve" smooth="yes"/>
      <point x="1089.0" y="1080.0" type="line" smooth="yes"/>
      <point x="1236.0" y="1080.0"/>
      <point x="1315.0" y="997.0"/>
      <point x="1274.0" y="820.0" type="curve" smooth="yes"/>
      <point x="1138.0" y="230.0" type="line" smooth="yes"/>
      <point x="1097.0" y="53.0"/>
      <point x="995.0" y="-30.0"/>
    </contour>
    <contour>
      <point x="725.0" y="347.0" type="line"/>
      <point x="670.0" y="107.0"/>
      <point x="569.0" y="-35.0"/>
      <point x="422.0" y="-35.0" type="curve" smooth="yes"/>
      <point x="265.0" y="-35.0"/>
      <point x="242.0" y="77.0"/>
      <point x="314.0" y="387.0" type="curve" smooth="yes"/>
      <point x="414.0" y="820.0" type="line" smooth="yes"/>
      <point x="455.0" y="997.0"/>
      <point x="267.0" y="1080.0"/>
      <point x="414.0" y="1080.0" type="curve" smooth="yes"/>
      <point x="424.0" y="1080.0" type="line" smooth="yes"/>
      <point x="571.0" y="1080.0"/>
      <point x="645.0" y="997.0"/>
      <point x="604.0" y="820.0" type="curve" smooth="yes"/>
      <point x="516.0" y="437.0" type="line" smooth="yes"/>
      <point x="493.0" y="337.0"/>
      <point x="501.0" y="295.0"/>
      <point x="558.0" y="295.0" type="curve" smooth="yes"/>
      <point x="615.0" y="295.0"/>
      <point x="680.0" y="367.0"/>
      <point x="728.0" y="577.0" type="curve"/>
    </contour>
  </outline>
</glyph>
<glyph name="paragraph" format="2">
  <advance height="1920" width="1510"/>
  <unicode hex="00B6"/>
  <outline>
    <contour>
      <point x="1453.0" y="1075.0" type="line"/>
      <point x="1170.0" y="-150.0" type="line" smooth="yes"/>
      <point x="1134.0" y="-307.0"/>
      <point x="1062.0" y="-390.0"/>
      <point x="955.0" y="-390.0" type="curve" smooth="yes"/>
      <point x="925.0" y="-390.0" type="line" smooth="yes"/>
      <point x="818.0" y="-390.0"/>
      <point x="784.0" y="-307.0"/>
      <point x="820.0" y="-150.0" type="curve" smooth="yes"/>
      <point x="1103.0" y="1075.0" type="line"/>
      <point x="1023.0" y="1075.0" type="line"/>
      <point x="740.0" y="-150.0" type="line" smooth="yes"/>
      <point x="704.0" y="-307.0"/>
      <point x="632.0" y="-390.0"/>
      <point x="525.0" y="-390.0" type="curve" smooth="yes"/>
      <point x="505.0" y="-390.0" type="line" smooth="yes"/>
      <point x="398.0" y="-390.0"/>
      <point x="364.0" y="-307.0"/>
      <point x="400.0" y="-150.0" type="curve" smooth="yes"/>
      <point x="527.0" y="400.0" type="line"/>
      <point x="517.0" y="400.0" type="line" smooth="yes"/>
      <point x="260.0" y="400.0"/>
      <point x="56.0" y="548.0"/>
      <point x="130.0" y="868.0" type="curve" smooth="yes"/>
      <point x="145.0" y="932.0" type="line" smooth="yes"/>
      <point x="219.0" y="1252.0"/>
      <point x="491.0" y="1400.0"/>
      <point x="748.0" y="1400.0" type="curve" smooth="yes"/>
      <point x="1518.0" y="1400.0" type="line" smooth="yes"/>
      <point x="1645.0" y="1400.0"/>
      <point x="1696.0" y="1347.0"/>
      <point x="1671.0" y="1240.0" type="curve" smooth="yes"/>
      <point x="1670.0" y="1235.0" type="line" smooth="yes"/>
      <point x="1645.0" y="1128.0"/>
      <point x="1550.0" y="1075.0"/>
      <point x="1463.0" y="1075.0" type="curve" smooth="yes"/>
    </contour>
  </outline>
</glyph>
<glyph name="uni00B9" format="2">
  <advance height="1920" width="368"/>
  <unicode hex="00B9"/>
  <outline>
    <contour>
      <point x="317.0" y="1441.0" type="curve" smooth="yes"/>
      <point x="354.0" y="1451.0"/>
      <point x="361.0" y="1458.0"/>
      <point x="375.0" y="1474.0" type="curve" smooth="yes"/>
      <point x="397.0" y="1500.0"/>
      <point x="428.0" y="1510.0"/>
      <point x="472.0" y="1510.0" type="curve" smooth="yes"/>
      <point x="474.0" y="1510.0" type="line" smooth="yes"/>
      <point x="528.0" y="1510.0"/>
      <point x="547.0" y="1458.0"/>
      <point x="535.0" y="1404.0" type="curve" smooth="yes"/>
      <point x="395.0" y="796.0" type="line" smooth="yes"/>
      <point x="366.0" y="672.0"/>
      <point x="300.0" y="610.0"/>
      <point x="216.0" y="610.0" type="curve" smooth="yes"/>
      <point x="194.0" y="610.0" type="line" smooth="yes"/>
      <point x="110.0" y="610.0"/>
      <point x="72.0" y="672.0"/>
      <point x="101.0" y="796.0" type="curve" smooth="yes"/>
      <point x="212.0" y="1278.0" type="line" smooth="yes"/>
      <point x="236.0" y="1382.0"/>
      <point x="261.0" y="1426.0"/>
    </contour>
  </outline>
</glyph>
